<svg width="22" height="18" viewBox="0 0 22 18" fill="none" xmlns="http://www.w3.org/2000/svg">
<path d="M5.32021 10.2554L7.71486 16.8916C7.71486 16.8916 8.01418 17.5112 8.33746 17.5112C8.66074 17.5112 13.4261 12.5453 13.4261 12.5453L18.7482 2.29623L5.41301 8.54625L5.32021 10.2554Z" fill="#C8DAEA"/>
<path d="M8.50534 11.9556L8.04735 16.8466C8.04735 16.8466 7.85279 18.3433 9.35244 16.8466C10.8521 15.35 12.2829 14.1946 12.2829 14.1946L8.50534 11.9556Z" fill="#A9C6D8"/>
<path d="M5.37107 10.4919L0.441099 8.88153C0.441099 8.88153 -0.157569 8.64207 0.0399886 8.10028C0.0789016 7.98953 0.159728 7.89374 0.393205 7.72911C1.48576 6.96881 20.616 0.0931924 20.616 0.0931924C20.8916 -0.003916 21.1882 -0.0256057 21.475 0.0303447C21.5539 0.0556016 21.6248 0.100848 21.681 0.161704C21.7371 0.222559 21.7765 0.296918 21.7953 0.377542C21.8288 0.519667 21.8429 0.665689 21.8372 0.811593C21.8372 0.940305 21.8193 1.05703 21.8073 1.24261C21.6906 3.12241 18.2153 17.152 18.2153 17.152C18.2153 17.152 18.0058 17.9722 17.2575 17.9991C17.0741 18.0057 16.8913 17.9752 16.72 17.9093C16.5487 17.8435 16.3925 17.7437 16.2607 17.616C14.794 16.3528 9.72333 12.9464 8.60383 12.1981C8.57862 12.1805 8.55734 12.1578 8.54136 12.1316C8.52539 12.1053 8.51506 12.0759 8.51104 12.0454C8.49608 11.9676 8.58288 11.8688 8.58288 11.8688C8.58288 11.8688 17.4101 4.02339 17.6436 3.18826C17.6616 3.1254 17.5927 3.09248 17.4999 3.11942C16.9013 3.33494 6.75098 9.75259 5.62849 10.462C5.54648 10.4931 5.45803 10.5034 5.37107 10.4919Z" fill="white"/>
</svg>
