<svg width="9" height="7" viewBox="0 0 9 7" fill="none" xmlns="http://www.w3.org/2000/svg">
<path d="M2.82344 7C6.22395 7 8.07877 4.3073 8.07877 1.97152C8.07877 1.8956 8.07877 1.81968 8.07877 1.74376C8.44009 1.49342 8.75203 1.18361 9 0.828776C8.66284 0.971047 8.30551 1.06475 7.93966 1.10682C8.32525 0.885716 8.61381 0.538143 8.75166 0.128735C8.38931 0.334882 7.99266 0.479956 7.579 0.557633C7.32555 0.299401 6.99686 0.119983 6.63555 0.0426438C6.27425 -0.0346951 5.89699 -0.00638706 5.5527 0.123896C5.20842 0.254179 4.91298 0.480429 4.70469 0.773308C4.49641 1.06619 4.38488 1.41218 4.38459 1.76644C4.38399 1.90216 4.39991 2.03749 4.432 2.1697C3.69765 2.13448 2.97926 1.95186 2.32347 1.63371C1.66769 1.31555 1.08916 0.868972 0.625487 0.322972C0.389028 0.712019 0.316544 1.17271 0.422811 1.61113C0.529079 2.04954 0.806095 2.43267 1.19739 2.68241C0.904041 2.67383 0.617116 2.59809 0.360659 2.46155C0.360121 2.4691 0.360121 2.47668 0.360659 2.48423C0.360779 2.89225 0.508403 3.28767 0.778483 3.60342C1.04856 3.91917 1.42448 4.1358 1.84246 4.21659C1.57061 4.28721 1.28552 4.29767 1.00882 4.24715C1.12751 4.59783 1.35738 4.90445 1.6665 5.12442C1.97562 5.3444 2.34864 5.46682 2.73379 5.47469C2.07939 5.96565 1.27158 6.23198 0.440006 6.23094C0.292954 6.23119 0.146017 6.22296 0 6.20629C0.844435 6.72522 1.82707 7.00074 2.83066 7" fill="#1E1E1E"/>
</svg>
