<svg width="5" height="6" viewBox="0 0 5 6" fill="none" xmlns="http://www.w3.org/2000/svg">
<path d="M4.30641 5.84655C4.10438 5.98084 3.85708 6.0297 3.6189 5.98239C3.38072 5.93508 3.17115 5.79548 3.03626 5.59428L0.166044 1.42425C0.0266829 1.22627 -0.0281109 0.981286 0.0136926 0.743091C0.055496 0.504897 0.190475 0.292964 0.388998 0.15384C0.488992 0.087218 0.601197 0.0408926 0.71918 0.0175139C0.837164 -0.00586483 0.958619 -0.00583761 1.07659 0.0175936C1.19456 0.0410249 1.30674 0.0874005 1.4067 0.154067C1.50666 0.220733 1.59246 0.306383 1.65916 0.406113L4.53138 4.57715C4.67022 4.7753 4.72451 5.02022 4.68233 5.25819C4.64016 5.49616 4.50497 5.70775 4.30641 5.84655Z" fill="#7F7F7F"/>
</svg>
