<svg width="41" height="40" viewBox="0 0 41 40" fill="none" xmlns="http://www.w3.org/2000/svg">
<path d="M21.8981 15.009H31.9976V21.5991H28.7013V18.3865H25.3178V24.9839H18.6017V28.3328H25.2743V39.9713H21.9126V31.6529H15.1965V21.6709H21.8981V15.009Z" fill="#1E1E1E"/>
<path d="M15.1385 6.66191H18.5075V18.3292H3.37623V24.9839H0V15.009H15.1312L15.1385 6.66191Z" fill="#1E1E1E"/>
<path d="M11.755 0.0142772V11.5883H0V0.0142772H11.755ZM8.37885 8.304V3.38467H3.41248V8.304H8.37885Z" fill="#1E1E1E"/>
<path d="M28.7376 0H40.4564V11.6099H28.7376V0ZM32.0921 3.35604V8.28972H37.0294V3.35604H32.0921Z" fill="#1E1E1E"/>
<path d="M11.7405 40H0V28.3829H11.7333L11.7405 40ZM8.37885 36.644V31.6959H3.41248V36.644H8.37885Z" fill="#1E1E1E"/>
<path d="M37.0874 15.0162H40.4709V28.3113H28.7376V25.0198H37.0874V15.0162Z" fill="#1E1E1E"/>
<path d="M32.0704 39.9929H28.7304V31.7032H40.4709V39.9857H37.1383V35.0664H32.0558L32.0704 39.9929Z" fill="#1E1E1E"/>
<path d="M21.9126 11.6027V3.33449H15.2036V0.00713859H25.2524V11.6027H21.9126Z" fill="#1E1E1E"/>
<path d="M6.73772 24.984V21.7211H11.7403V24.984H6.73772Z" fill="#1E1E1E"/>
<path d="M18.5291 35.0234V39.9427H15.2473V35.0234H18.5291Z" fill="#1E1E1E"/>
</svg>
