<svg width="25" height="25" viewBox="0 0 25 25" fill="none" xmlns="http://www.w3.org/2000/svg">
<g clip-path="url(#clip0_165_1618)">
<path d="M24.1562 12.4542C24.1562 9.35877 22.9266 6.3901 20.7377 4.20129C18.5489 2.01247 15.5803 0.782812 12.4848 0.782812C11.765 0.783532 11.0467 0.851604 10.3396 0.986144C9.27761 0.325048 8.05245 -0.0270129 6.80155 -0.03053C5.59039 -0.0292642 4.40155 0.294903 3.35737 0.908578C2.31319 1.52225 1.45149 2.40324 0.861105 3.46076C0.270716 4.51828 -0.0271228 5.7141 -0.00155353 6.92499C0.0240158 8.13588 0.372053 9.31806 1.00656 10.3497C0.890597 11.0214 0.829341 11.7014 0.823501 12.3831C0.826193 15.475 2.05567 18.4395 4.24199 20.6258C6.42832 22.8122 9.39291 24.0416 12.4848 24.0443C13.2182 24.0445 13.9499 23.9764 14.6706 23.841C15.7041 24.4642 16.8848 24.8017 18.0916 24.8189C19.2984 24.836 20.4881 24.5322 21.539 23.9385C22.5898 23.3448 23.4639 22.4826 24.0721 21.4401C24.6802 20.3976 25.0005 19.2122 25 18.0053C25.006 16.7371 24.6536 15.493 23.9834 14.4164C24.0938 13.7681 24.1516 13.1119 24.1562 12.4542ZM12.9016 20.5876C9.57707 20.5876 6.24246 19.0931 6.25263 16.5209C6.24144 16.142 6.37862 15.7738 6.635 15.4946C6.89138 15.2155 7.24666 15.0474 7.62511 15.0264C9.57712 15.0264 9.55679 17.9341 12.7085 17.9341C14.8943 17.9341 15.6365 16.7344 15.6365 15.9007C15.6365 12.8507 6.19157 14.7417 6.19157 9.08903C6.19157 6.03901 8.70273 3.93449 12.6474 4.15816C16.4091 4.38183 18.6052 6.03902 18.8289 7.58436C18.8607 7.82289 18.838 8.06553 18.7629 8.29412C18.6877 8.52271 18.5618 8.73134 18.3946 8.90441C18.2274 9.07748 18.0233 9.2105 17.7974 9.29353C17.5716 9.37656 17.3298 9.40745 17.0903 9.38388C15.3924 9.38388 15.2196 7.10652 12.2916 7.10652C10.9699 7.10652 9.85157 7.65553 9.85157 8.8552C9.85157 11.3461 19.2354 9.87187 19.2354 15.3822C19.2049 18.5441 16.6734 20.6079 12.9016 20.6079V20.5876Z" fill="white"/>
</g>
<defs>
<clipPath id="clip0_165_1618">
<rect width="24.59" height="24.48" fill="white" transform="scale(1.01667)"/>
</clipPath>
</defs>
</svg>
