<svg width="23" height="23" viewBox="0 0 23 23" fill="none" xmlns="http://www.w3.org/2000/svg">
<path d="M12.4448 8.52971H18.1844V12.275H16.3111V10.4492H14.3883V14.1985H10.5714V16.1017H14.3635V22.716H12.4531V17.9886H8.63623V12.3157H12.4448V8.52971Z" fill="#1DADCC"/>
<path d="M8.60333 3.78602H10.5179V10.4166H1.91874V14.1986H0V8.52973H8.5992L8.60333 3.78602Z" fill="#1DADCC"/>
<path d="M6.68046 0.00820923V6.58585H0V0.00820923H6.68046ZM4.76177 4.71932V1.92363H1.93934V4.71932H4.76177Z" fill="#1DADCC"/>
<path d="M16.3318 0H22.9916V6.59801H16.3318V0ZM18.2381 1.90727V4.71111H21.044V1.90727H18.2381Z" fill="#1DADCC"/>
<path d="M6.67225 22.7323H0V16.1302H6.66812L6.67225 22.7323ZM4.76177 20.8251V18.0131H1.93934V20.8251H4.76177Z" fill="#1DADCC"/>
<path d="M21.077 8.53384H22.9999V16.0896H16.3318V14.219H21.077V8.53384Z" fill="#1DADCC"/>
<path d="M18.2258 22.7283H16.3276V18.0172H22.9999V22.7242H21.1059V19.9285H18.2175L18.2258 22.7283Z" fill="#1DADCC"/>
<path d="M12.4531 6.59391V1.89502H8.64038V0.00405884H14.3512V6.59391H12.4531Z" fill="#1DADCC"/>
<path d="M3.8291 14.1986V12.3443H6.67213V14.1986H3.8291Z" fill="#1DADCC"/>
<path d="M10.5304 19.9041V22.6998H8.66528V19.9041H10.5304Z" fill="#1DADCC"/>
</svg>
