<svg width="81" height="80" viewBox="0 0 81 80" fill="none" xmlns="http://www.w3.org/2000/svg">
<path d="M42.4966 34.0243H54.5973V41.9203H50.6479V38.0711H46.5939V45.9758H38.547V49.9882H46.5418V63.933H42.514V53.9663H34.467V42.0063H42.4966V34.0243Z" fill="#1E1E1E"/>
<path d="M34.3974 24.0232H38.4339V38.0023H20.3044V45.9757H16.2592V34.0243H34.3887L34.3974 24.0232Z" fill="#1E1E1E"/>
<path d="M30.3434 16.0584V29.9259H16.2592V16.0584H30.3434ZM26.2983 25.9907V20.0967H20.3478V25.9907H26.2983Z" fill="#1E1E1E"/>
<path d="M50.6913 16.0413H64.7321V29.9517H50.6913V16.0413ZM54.7104 20.0623V25.9736H60.626V20.0623H54.7104Z" fill="#1E1E1E"/>
<path d="M30.3261 63.9674H16.2592V50.0483H30.3174L30.3261 63.9674ZM26.2983 59.9463V54.0178H20.3478V59.9463H26.2983Z" fill="#1E1E1E"/>
<path d="M60.6956 34.0328H64.7495V49.9624H50.6913V46.0186H60.6956V34.0328Z" fill="#1E1E1E"/>
<path d="M54.6844 63.9588H50.6826V54.0264H64.7496V63.9502H60.7566V58.0561H54.667L54.6844 63.9588Z" fill="#1E1E1E"/>
<path d="M42.5139 29.9431V20.0365H34.4756V16.0499H46.5156V29.9431H42.5139Z" fill="#1E1E1E"/>
<path d="M24.3322 45.9758V42.0664H30.326V45.9758H24.3322Z" fill="#1E1E1E"/>
<path d="M38.46 58.0045V63.8986H34.5278V58.0045H38.46Z" fill="#1E1E1E"/>
</svg>
