<svg width="27" height="27" viewBox="0 0 27 27" fill="none" xmlns="http://www.w3.org/2000/svg">
<path d="M0 17.3116C0.17549 16.9854 0.389812 16.6816 0.638287 16.407C1.31851 15.8195 2.03602 15.2786 2.75818 14.7424C2.85511 14.677 2.93123 14.5851 2.97748 14.4777C3.02373 14.3702 3.03814 14.2517 3.01905 14.1363C2.9911 13.7171 2.9911 13.2965 3.01905 12.8773C3.03626 12.7551 3.01824 12.6305 2.96707 12.5181C2.9159 12.4058 2.83369 12.3104 2.73019 12.2432C2.03134 11.7163 1.33252 11.1754 0.670932 10.6392C0.524293 10.5524 0.39766 10.4354 0.299437 10.2961C0.201214 10.1567 0.133577 9.99817 0.101007 9.83079C0.0684366 9.66341 0.0717053 9.49101 0.110504 9.32496C0.149304 9.15891 0.222808 9.00297 0.326167 8.8674C1.13684 7.45304 1.95062 6.04335 2.7675 4.63832C2.8369 4.48362 2.93732 4.34486 3.06262 4.2307C3.18791 4.11654 3.33537 4.02942 3.49576 3.97474C3.65616 3.92007 3.82607 3.89903 3.99494 3.91292C4.16381 3.92681 4.32801 3.97534 4.47734 4.05548C5.30199 4.37721 6.12199 4.70359 6.93266 5.04863C7.03096 5.09769 7.14138 5.1172 7.25053 5.10479C7.35967 5.09238 7.46289 5.04857 7.54769 4.97869C7.89321 4.73792 8.25781 4.52584 8.63789 4.34457C8.76566 4.29313 8.87539 4.20505 8.95331 4.0914C9.03123 3.97775 9.07383 3.84359 9.07581 3.70578C9.18297 2.85716 9.30411 2.00854 9.42991 1.16459C9.43522 0.998077 9.47504 0.834485 9.54684 0.684176C9.61863 0.533866 9.72081 0.400109 9.84696 0.291399C9.9731 0.182689 10.1205 0.101387 10.2796 0.0526425C10.4388 0.0038983 10.6064 -0.0112246 10.7717 0.00823229H15.659C15.8277 -0.0113257 15.9987 0.00470616 16.1608 0.055275C16.3229 0.105844 16.4727 0.189833 16.6004 0.301843C16.7281 0.413854 16.831 0.55139 16.9024 0.705605C16.9737 0.85982 17.0121 1.0273 17.0148 1.19723C17.136 2.03186 17.2571 2.86182 17.3643 3.69644C17.3623 3.84186 17.4063 3.98418 17.49 4.10308C17.5736 4.22198 17.6927 4.3114 17.8302 4.35856C18.0592 4.42848 18.2716 4.54428 18.4545 4.69892C18.661 4.90483 18.9331 5.03163 19.2235 5.05719C19.5139 5.08276 19.804 5.00548 20.0432 4.83881C20.6442 4.53574 21.2825 4.32126 21.9068 4.06947C22.7408 3.73842 23.2486 3.91093 23.7006 4.69892C24.4895 6.05422 25.2754 7.41418 26.0581 8.7788C26.524 9.6041 26.4261 10.117 25.6713 10.7092C25.0004 11.2361 24.3156 11.7536 23.6587 12.3038C23.5218 12.444 23.4421 12.6302 23.435 12.8261C23.4024 13.269 23.435 13.7213 23.435 14.1689C23.4198 14.2776 23.4358 14.3884 23.4812 14.4883C23.5266 14.5882 23.5994 14.6731 23.6912 14.7331C24.3854 15.2553 25.089 15.8009 25.7506 16.3371C26.4121 16.8733 26.538 17.4048 26.1233 18.1369C25.3126 19.5481 24.4988 20.9578 23.6819 22.366C23.6142 22.5221 23.5146 22.6623 23.3896 22.7777C23.2645 22.893 23.1168 22.981 22.9558 23.0358C22.7948 23.0907 22.6242 23.1113 22.4548 23.0963C22.2854 23.0814 22.1209 23.0311 21.9721 22.9488C21.1521 22.6224 20.3321 22.3007 19.5214 21.951C19.4231 21.9019 19.3127 21.8824 19.2036 21.8948C19.0944 21.9072 18.9912 21.951 18.9064 22.0209C18.5609 22.2617 18.1963 22.4738 17.8162 22.6551C17.6881 22.706 17.578 22.7939 17.5 22.9077C17.422 23.0214 17.3796 23.1559 17.3783 23.2938C17.2664 24.1425 17.15 24.9864 17.0242 25.835C17.0182 26.0013 16.9779 26.1646 16.9059 26.3145C16.8339 26.4645 16.7316 26.598 16.6056 26.7065C16.4797 26.8151 16.3326 26.8965 16.1737 26.9455C16.0149 26.9945 15.8476 27.0101 15.6824 26.9914H10.781C10.6122 27.0117 10.441 26.9962 10.2786 26.9459C10.1161 26.8956 9.96609 26.8117 9.8382 26.6995C9.71031 26.5873 9.6074 26.4495 9.53626 26.2949C9.46512 26.1404 9.4273 25.9726 9.42524 25.8024C9.29945 24.9584 9.17831 24.1098 9.07115 23.2612C9.07118 23.1293 9.02982 23.0008 8.95291 22.8937C8.876 22.7866 8.76747 22.7064 8.64255 22.6644C8.4013 22.5855 8.1769 22.4621 7.98095 22.3007C7.77447 22.0948 7.50228 21.968 7.21191 21.9424C6.92154 21.9168 6.63143 21.9941 6.3922 22.1608C5.79584 22.4639 5.15289 22.6784 4.52858 22.9302C3.69927 23.2659 3.19144 23.0887 2.73486 22.3054C1.93816 20.9298 1.14148 19.559 0.358756 18.1835C0.22275 17.8999 0.102965 17.6088 0 17.3116ZM13.2224 17.983C14.1088 17.9839 14.9757 17.7218 15.7132 17.2297C16.4508 16.7375 17.026 16.0376 17.3661 15.2183C17.7062 14.3991 17.7959 13.4973 17.6238 12.627C17.4518 11.7567 17.0258 10.957 16.3996 10.329C15.7734 9.70107 14.9753 9.27303 14.106 9.09905C13.2368 8.92507 12.3355 9.01296 11.5162 9.35161C10.6969 9.69026 9.99624 10.2644 9.50299 11.0016C9.00973 11.7387 8.74596 12.6057 8.74504 13.4928C8.74319 14.0813 8.85777 14.6644 9.08224 15.2084C9.30671 15.7523 9.63658 16.2464 10.0528 16.6621C10.4691 17.0778 10.9635 17.4069 11.5075 17.6304C12.0515 17.8539 12.6343 17.9674 13.2224 17.9644V17.983Z" fill="#3371A5"/>
</svg>
