<svg width="18" height="19" viewBox="0 0 18 19" fill="none" xmlns="http://www.w3.org/2000/svg">
<path d="M18 9.6677C17.9789 9.83788 17.9592 10.0081 17.9367 10.1782C17.7941 11.2256 17.4704 12.2403 16.9803 13.1768C16.9576 13.2255 16.9252 13.269 16.8851 13.3047C16.845 13.3404 16.7981 13.3676 16.7472 13.3846C16.6962 13.4016 16.6424 13.408 16.5889 13.4035C16.5354 13.3989 16.4834 13.3836 16.436 13.3583C16.3891 13.3339 16.3477 13.3002 16.3142 13.2593C16.2808 13.2183 16.2561 13.171 16.2416 13.1202C16.2271 13.0694 16.2232 13.0161 16.23 12.9637C16.2368 12.9113 16.2543 12.8608 16.2813 12.8154C16.7062 11.9925 16.9833 11.1013 17.0999 10.1825C17.1872 9.53238 17.1967 8.87418 17.128 8.22185C16.9876 6.83313 16.4878 5.50495 15.6779 4.36812C14.762 3.0601 13.4786 2.05324 11.9902 1.47501C10.9163 1.04529 9.76097 0.857058 8.6062 0.923676C6.58619 1.0148 4.67476 1.86404 3.25317 3.30202C2.31086 4.23059 1.61437 5.379 1.22644 6.64379C1.03648 7.25076 0.919852 7.87829 0.879044 8.51299C0.761278 10.1083 1.12272 11.7025 1.91702 13.091C2.68074 14.4515 3.82245 15.5615 5.20394 16.2865C5.95452 16.6876 6.76466 16.9654 7.60338 17.1093C8.46982 17.2616 9.35524 17.2721 10.225 17.1403C11.482 16.9516 12.6769 16.4698 13.7131 15.7338C13.7792 15.6874 13.8425 15.6368 13.9072 15.5932C13.9821 15.5412 14.0725 15.5162 14.1634 15.5224C14.2544 15.5285 14.3406 15.5654 14.4079 15.6269C14.4761 15.6893 14.52 15.7738 14.5319 15.8654C14.5437 15.9571 14.5227 16.05 14.4726 16.1276C14.4527 16.1577 14.428 16.1844 14.3994 16.2064C13.2944 17.0428 12.0104 17.6114 10.6484 17.8674C9.46326 18.0927 8.24455 18.0726 7.06751 17.8083C5.71871 17.5159 4.45687 16.9124 3.38257 16.046C2.23002 15.1283 1.32177 13.9404 0.738397 12.5875C0.314472 11.6154 0.0691075 10.5749 0.0140613 9.5158C0.0140613 9.47783 0.00421941 9.43985 0 9.40188V8.61847C0.00984529 8.49189 0.0210943 8.36531 0.0323461 8.23873C0.0941988 7.50507 0.246304 6.78184 0.485225 6.08542C0.870825 4.96003 1.47714 3.9229 2.26864 3.03479C3.06606 2.12967 4.03878 1.3957 5.12798 0.877264C6.56856 0.186816 8.16797 -0.104603 9.7595 0.0333821C10.719 0.109864 11.6596 0.342162 12.5443 0.721146C13.9238 1.30906 15.133 2.23485 16.0605 3.41313C17.1021 4.71588 17.7566 6.28516 17.9494 7.94196C17.9648 8.06714 17.9803 8.19372 17.9972 8.3203L18 9.6677Z" fill="black"/>
<path d="M14.6892 7.60299C14.6895 7.81304 14.6152 8.01638 14.4796 8.17683C14.3089 8.38044 14.1206 8.56869 13.917 8.73942C13.3882 9.2148 12.8608 9.6916 12.3305 10.1642C12.3082 10.1814 12.2915 10.205 12.2827 10.2318C12.274 10.2587 12.2735 10.2875 12.2813 10.3147C12.4304 11.032 12.5776 11.7493 12.7229 12.4666C12.7679 12.6874 12.8158 12.9068 12.8509 13.129C12.8778 13.2557 12.8714 13.3871 12.8322 13.5106C12.7931 13.634 12.7226 13.7451 12.6276 13.8331C12.5327 13.9212 12.4165 13.983 12.2905 14.0127C12.1644 14.0424 12.0329 14.0388 11.9086 14.0024C11.6908 13.9453 11.4834 13.8541 11.294 13.7324C10.5725 13.3104 9.84812 12.8955 9.12801 12.4666C9.09515 12.4432 9.05582 12.4306 9.01549 12.4306C8.97516 12.4306 8.93584 12.4432 8.90298 12.4666C8.0966 12.9354 7.28835 13.4005 6.47823 13.8618C6.30428 13.979 6.09701 14.0368 5.8875 14.0263C5.76471 14.0185 5.6452 13.9834 5.5376 13.9238C5.42999 13.8641 5.33697 13.7813 5.26525 13.6813C5.19353 13.5814 5.1449 13.4667 5.12287 13.3456C5.10084 13.2246 5.10596 13.1002 5.13786 12.9813C5.33898 12.2303 5.51198 11.4722 5.70044 10.7183C5.73279 10.5889 5.76091 10.4581 5.79748 10.3301C5.80976 10.3001 5.81129 10.2668 5.80181 10.2358C5.79233 10.2048 5.77241 10.178 5.74544 10.16C5.09847 9.61143 4.45008 9.0615 3.81014 8.50313C3.68012 8.39059 3.56652 8.2604 3.4726 8.11635C3.10129 7.55376 3.46274 6.85053 4.14629 6.79427C4.82983 6.73801 5.49088 6.67331 6.16177 6.61284C6.42197 6.59033 6.68215 6.56501 6.94235 6.54532C6.96651 6.54576 6.99016 6.5383 7.0097 6.52409C7.02925 6.50988 7.04362 6.48968 7.05065 6.46656C7.41352 5.61565 7.77499 4.76614 8.14489 3.91804C8.19458 3.78487 8.27419 3.66488 8.37758 3.56734C8.48097 3.4698 8.60539 3.39731 8.74123 3.35545C8.90841 3.29839 9.08941 3.29599 9.25805 3.34857C9.42669 3.40116 9.57422 3.50603 9.67934 3.648C9.78607 3.79286 9.87485 3.95013 9.94375 4.11635C10.2771 4.89554 10.602 5.67613 10.9283 6.45812C10.9354 6.47873 10.949 6.49652 10.9669 6.50891C10.9849 6.5213 11.0063 6.52765 11.0282 6.52704L12.9353 6.70566C13.2532 6.7352 13.571 6.75911 13.8889 6.79708C14.0751 6.81679 14.2532 6.88358 14.4065 6.99118C14.5011 7.06133 14.5765 7.15411 14.6259 7.26101C14.6753 7.36791 14.6971 7.4855 14.6892 7.60299ZM6.05488 13.0798C6.10551 13.0531 6.13503 13.039 6.16316 13.0221C7.08299 12.4905 8.00284 11.9579 8.92267 11.4244C8.94993 11.4048 8.98263 11.3943 9.01619 11.3943C9.04975 11.3943 9.08247 11.4048 9.10973 11.4244C10.0164 11.956 10.9255 12.4853 11.8369 13.0123L11.917 13.0559C11.917 13.0151 11.917 12.994 11.9058 12.9729C11.8566 12.7169 11.8073 12.4609 11.7539 12.205C11.6001 11.4633 11.4449 10.7221 11.2883 9.98133C11.2811 9.96052 11.2808 9.93794 11.2874 9.91692C11.2939 9.8959 11.3071 9.87755 11.3249 9.86459C11.4388 9.76755 11.5485 9.66487 11.6597 9.56501L13.5612 7.85756C13.6118 7.81115 13.6568 7.75629 13.7187 7.6916C13.4543 7.66628 13.218 7.64237 12.9803 7.62127C12.1261 7.54251 11.2719 7.46469 10.4177 7.3878C10.3906 7.38775 10.3642 7.37897 10.3424 7.36277C10.3206 7.34656 10.3046 7.32378 10.2968 7.29779C9.89359 6.3292 9.48852 5.36108 9.08159 4.39343C9.05454 4.33792 9.02451 4.28392 8.99159 4.23168C8.97049 4.28091 8.95782 4.30904 8.94516 4.33576L7.66105 7.32732C7.65425 7.34938 7.64067 7.36873 7.62224 7.38261C7.6038 7.3965 7.58146 7.40422 7.55838 7.40468C7.20114 7.43421 6.84531 7.46937 6.48806 7.50172L4.56401 7.67331C4.47118 7.68175 4.37976 7.693 4.28271 7.70426L4.26865 7.72817C4.30944 7.76473 4.34882 7.8013 4.39101 7.83646C5.17864 8.51157 5.96721 9.18667 6.7567 9.86178C6.77775 9.87446 6.794 9.89377 6.80291 9.91668C6.81181 9.93958 6.81288 9.96479 6.80593 9.98836C6.59777 10.8322 6.39101 11.6724 6.18567 12.5088L6.05488 13.0798Z" fill="black"/>
</svg>
