<svg width="22" height="15" viewBox="0 0 22 15" fill="none" xmlns="http://www.w3.org/2000/svg">
<path d="M21.9999 4.06963C22.0036 4.71629 21.8893 5.35856 21.6622 5.96722C21.4419 6.55565 21.124 7.10586 20.7208 7.59646C20.3194 8.08242 19.8342 8.49835 19.2863 8.82606C18.7255 9.16125 18.1087 9.40055 17.4632 9.53334C17.1687 9.50966 16.8826 9.42649 16.6238 9.28926C16.3649 9.15203 16.139 8.96382 15.9609 8.73693C15.5863 8.27116 15.3994 7.67824 15.4 6.95818C15.4041 6.51258 15.4711 6.06958 15.5993 5.64137C15.7337 5.18048 15.9222 4.7358 16.1611 4.31593C16.4044 3.88479 16.6918 3.47802 17.0189 3.10167C17.3346 2.73373 17.6948 2.40331 18.0918 2.11741C18.6955 1.68327 19.2633 1.46667 19.7913 1.46667C20.1433 1.64621 20.4897 2.0219 20.8304 2.59373C20.8803 2.59385 20.9302 2.59129 20.9798 2.58606C21.0287 2.58 21.078 2.57712 21.1273 2.57744C21.709 2.57744 21.9999 3.07483 21.9999 4.06963Z" fill="#1E1E1E"/>
<path d="M18.3993 5.42791C18.4421 5.39191 18.482 5.3531 18.5188 5.31177C18.8284 4.91526 19.133 4.51602 19.4455 4.12223C19.5192 4.03114 19.6051 3.94912 19.7012 3.87815C19.7437 3.84081 19.799 3.81838 19.8575 3.81474C19.916 3.81109 19.974 3.82646 20.0216 3.85819C20.0722 3.88582 20.1108 3.92893 20.1309 3.9801C20.1509 4.03127 20.151 4.0873 20.1313 4.13856C20.0863 4.26481 20.0223 4.38455 19.9412 4.49424C19.6473 4.87624 19.3397 5.24916 19.04 5.62662C18.9841 5.69649 18.9351 5.77089 18.8852 5.84439C18.8745 5.86475 18.866 5.88602 18.8597 5.9079L18.8862 5.92605C18.9469 5.86707 19.0116 5.81172 19.0674 5.74458C19.329 5.44878 19.5866 5.15117 19.8511 4.85537C19.9054 4.79405 19.9657 4.73755 20.0313 4.6866C20.1665 4.58316 20.2939 4.57772 20.4124 4.66301C20.4714 4.70516 20.5121 4.76556 20.5271 4.83319C20.542 4.90083 20.5302 4.97118 20.4937 5.0314C20.4405 5.12476 20.3768 5.21266 20.3037 5.29362C19.9814 5.64205 19.6532 5.98593 19.3241 6.33345C19.2934 6.37072 19.265 6.40949 19.2388 6.44959L19.2604 6.46774C19.2857 6.45389 19.3099 6.43843 19.3329 6.42146C19.5288 6.24907 19.7149 6.07395 19.9109 5.90518C19.9938 5.83138 20.0855 5.76654 20.1842 5.71191C20.2253 5.68659 20.2754 5.67716 20.3239 5.68563C20.3725 5.69411 20.4155 5.71983 20.4438 5.75728C20.4855 5.78784 20.5144 5.83102 20.5253 5.87927C20.5362 5.92752 20.5285 5.97779 20.5035 6.02132C20.4077 6.15794 20.3006 6.28748 20.1832 6.40876C19.9314 6.66282 19.665 6.90418 19.4112 7.15642C19.2819 7.28527 19.1683 7.42863 19.0449 7.5611C18.8659 7.76806 18.6285 7.92508 18.3591 8.01478C18.072 8.09901 17.7611 8.08022 17.4882 7.96215C17.2627 7.88087 17.0583 7.75642 16.8883 7.59693C16.7183 7.43745 16.5866 7.24653 16.5017 7.03665C16.444 6.86262 16.4273 6.67912 16.4528 6.49859C16.4714 6.24634 16.4959 5.99501 16.5105 5.74276C16.5127 5.53269 16.4443 5.32719 16.3146 5.1548C16.2686 5.08493 16.2167 5.01779 16.1745 4.94611C16.151 4.91332 16.1371 4.87548 16.134 4.83624C16.1309 4.797 16.1388 4.75769 16.157 4.72211C16.1751 4.68653 16.2028 4.65588 16.2375 4.63313C16.2721 4.61038 16.3125 4.59629 16.3548 4.59224C16.4773 4.57606 16.6022 4.59317 16.7143 4.6415C16.8265 4.68982 16.9211 4.76727 16.9867 4.86444C17.0719 4.98233 17.1228 5.11859 17.1346 5.26005C17.1383 5.29969 17.1495 5.3384 17.1679 5.37438C17.2433 5.53044 17.404 5.56311 17.5284 5.43608C17.6563 5.30608 17.7732 5.16714 17.8781 5.02051C18.1211 4.67662 18.3493 4.32275 18.5923 3.97796C18.6582 3.88775 18.7384 3.80729 18.8303 3.73932C18.8512 3.71775 18.8766 3.70023 18.9048 3.6878C18.9331 3.67537 18.9638 3.66828 18.995 3.66692C19.0263 3.66557 19.0576 3.67 19.087 3.67993C19.1164 3.68987 19.1434 3.70512 19.1663 3.72481C19.2137 3.75837 19.2474 3.80571 19.2622 3.8592C19.2769 3.91269 19.2718 3.96923 19.2476 4.0197C19.1994 4.13512 19.1394 4.24601 19.0684 4.35088C18.8617 4.6612 18.6461 4.96698 18.4355 5.27457C18.4103 5.31579 18.3874 5.35819 18.367 5.4016L18.3993 5.42791Z" fill="white"/>
<path d="M18.3333 2.95077C18.3218 2.97322 18.3089 2.99434 18.2948 3.0139C18.0003 3.36613 17.7796 3.81348 17.6541 4.31243C17.6451 4.34835 17.6459 4.42128 17.6 4.39407C17.7299 3.82742 17.9778 3.32104 18.3153 2.93335L18.3333 2.95077Z" fill="white"/>
<path d="M0.362613 14.1052C0.21548 14.0627 0.131944 13.9013 0.11106 13.6221C0.0645502 13.4599 0.035274 13.293 0.0237312 13.1244C0.00854323 12.9312 0 12.7128 0 12.4664C0.00979045 12.156 0.046959 11.8472 0.11106 11.5435C0.184469 11.1532 0.286672 10.7119 0.417669 10.2197C0.548665 9.72753 0.709088 9.19541 0.898938 8.62336C1.08879 8.0513 1.29889 7.47152 1.52924 6.884C1.81338 6.14574 2.0605 5.50668 2.2706 4.96684C2.4807 4.42699 2.65663 3.95898 2.79838 3.56279C2.94014 3.16725 3.05563 2.84095 3.14486 2.58392C3.23409 2.32688 3.30528 2.10849 3.35749 1.92586C3.4121 1.7674 3.47548 1.61222 3.54734 1.46106C3.63487 1.27142 3.73215 1.0866 3.83876 0.907367C3.94887 0.719902 4.06183 0.543389 4.17764 0.377828C4.26883 0.240557 4.37451 0.113859 4.49279 0C4.85147 0.0513867 5.20232 0.148792 5.53696 0.289893C5.86224 0.429042 6.0619 0.563037 6.13594 0.691879C5.94373 0.887682 5.77457 1.1056 5.63189 1.34124C5.44204 1.63113 5.25883 1.95678 5.07942 2.30755C4.90002 2.65832 4.7377 3.01102 4.59151 3.37049C4.46056 3.68492 4.3499 4.00771 4.26023 4.3368C4.38245 4.12907 4.51951 3.93077 4.6703 3.74349C4.838 3.52897 5.09525 3.23457 5.44204 2.86028C5.77044 2.50559 6.13802 2.19073 6.53747 1.92199C6.8792 1.70232 7.17631 1.59248 7.42881 1.59248C7.78644 1.57836 8.13672 1.69836 8.41319 1.92972C8.53833 2.03521 8.63818 2.16838 8.70513 2.31909C8.77208 2.4698 8.80437 2.63407 8.79953 2.7994C8.79748 3.57758 8.66919 4.35008 8.41983 5.08569C8.17485 5.82592 7.80689 6.51785 7.33199 7.13137C7.14416 7.37732 6.93305 7.60388 6.70169 7.80779C6.46386 8.01781 6.20992 8.20814 5.94229 8.37695C5.6982 8.53384 5.43936 8.66559 5.1696 8.77024C4.95396 8.85924 4.72444 8.90833 4.49184 8.91518C4.3189 8.91907 4.1479 8.87747 3.99538 8.7944C3.86893 8.7307 3.76654 8.62647 3.70396 8.49774C4.15274 8.21613 4.55697 7.86686 4.90286 7.46185C5.31156 6.99451 5.67314 6.48658 5.98216 5.94571C6.32244 5.3532 6.61238 4.73218 6.84882 4.08943C7.09414 3.43387 7.28157 2.75735 7.40888 2.06791C7.02886 2.26899 6.66677 2.5034 6.32674 2.76848C5.97205 3.05679 5.65328 3.38811 5.37749 3.75508C4.99779 4.22536 4.69814 4.60512 4.47855 4.89437C4.25896 5.18361 4.07702 5.43067 3.93273 5.63553C3.8042 5.81702 3.68842 6.00754 3.58626 6.20565C3.49703 6.38152 3.39989 6.59797 3.29484 6.85501C3.14802 7.19708 2.97716 7.64803 2.78225 8.20784C2.58733 8.76766 2.38768 9.39609 2.18327 10.0931C1.97823 10.7889 1.77351 11.5297 1.56911 12.3156C1.3647 13.1016 1.16757 13.8852 0.977724 14.6667C0.912083 14.6493 0.851091 14.6171 0.799196 14.5727C0.747301 14.5282 0.705812 14.4725 0.677761 14.4096L0.496455 14.2009C0.46026 14.1583 0.414286 14.1254 0.362613 14.1052Z" fill="#1E1E1E"/>
<path d="M8.79999 8.67796C8.85358 8.37489 8.94544 7.97552 9.07846 7.47891C9.21147 6.9823 9.36554 6.45453 9.54736 5.8956C9.72917 5.33667 9.91769 4.77397 10.1215 4.21032C10.3253 3.64668 10.5186 3.13873 10.7091 2.68933C10.8157 2.42911 10.9377 2.17533 11.0746 1.9293C11.1698 1.76054 11.2873 1.60498 11.4239 1.46667C11.5807 1.48956 11.735 1.52621 11.8852 1.57619C12.0432 1.62852 12.1973 1.69161 12.3464 1.76502C12.4836 1.83245 12.6162 1.90845 12.7435 1.99256C12.8421 2.05814 12.9319 2.13587 13.0105 2.22387C12.7136 2.57434 12.4602 2.95848 12.2555 3.36816C11.9962 3.90046 11.7758 4.4504 11.5962 5.01378C12.1703 4.51024 12.6762 4.02968 13.1139 3.57209C13.5689 3.09478 13.9824 2.58062 14.3502 2.03504C14.4497 1.97317 14.5672 1.9456 14.6842 1.95668C14.8301 1.95639 14.975 1.98032 15.1129 2.02749C15.2285 2.05865 15.3299 2.12796 15.4 2.22387C15.2136 2.6989 15.1163 3.2034 15.1129 3.71276C15.1129 4.17287 15.1818 4.51905 15.3196 4.75131C15.2704 4.88314 15.1979 5.00527 15.1053 5.11197C14.9721 5.28968 14.8259 5.45756 14.6679 5.61425C14.3752 5.46411 14.1151 5.25882 13.9024 5.01C13.6855 4.76403 13.5183 4.47947 13.4096 4.17161C12.961 4.47692 12.5362 4.81491 12.1387 5.18278C11.7918 5.50808 11.4897 5.87693 11.2402 6.27986C10.9756 6.71717 10.7625 7.1828 10.6048 7.66774C10.4054 8.28067 10.2384 8.90337 10.1043 9.53334C9.9859 9.51637 9.87074 9.482 9.76267 9.43138C9.62445 9.36786 9.49137 9.294 9.36458 9.21045C9.23831 9.13121 9.11864 9.04218 9.00669 8.9442C8.91782 8.87244 8.84707 8.7813 8.79999 8.67796Z" fill="#1E1E1E"/>
</svg>
