<svg width="22" height="15" viewBox="0 0 22 15" fill="none" xmlns="http://www.w3.org/2000/svg">
<g clip-path="url(#clip0_47_1865)">
<path d="M1.09002 0.132058C1.40479 0.0704779 1.72333 0.0289568 2.04371 0.00776672H19.9563C20.2741 0.028017 20.5901 0.0695482 20.902 0.132058L20.6135 0.435021L11.6853 9.11963C11.6138 9.23378 11.5133 9.32815 11.3932 9.39365C11.2732 9.45915 11.1378 9.49357 11 9.49357C10.8623 9.49357 10.7269 9.45915 10.6068 9.39365C10.4868 9.32815 10.3862 9.23378 10.3148 9.11963L1.38655 0.435021L1.09002 0.132058Z" fill="#1E1E1E"/>
<path d="M1.12201 14.899L7.82218 8.45934C8.35916 8.98757 8.95227 9.57018 9.55336 10.145C9.8484 10.4372 10.2305 10.6325 10.6459 10.7036C11.0613 10.7746 11.4892 10.7178 11.8696 10.5412C12.1089 10.4151 12.3277 10.2554 12.5188 10.0673C13.0959 9.53133 13.6569 8.97202 14.1938 8.45157L20.8299 14.8291C20.6885 14.8908 20.5407 14.9376 20.3891 14.9689C20.1847 14.9976 19.9784 15.0106 19.7719 15.0078H2.2521C1.8674 14.9689 1.52274 14.9689 1.12201 14.899Z" fill="#1E1E1E"/>
<path d="M0.144229 1.10306L6.79636 7.49613L0.152251 13.8736C0.0780824 13.6464 0.0296659 13.412 0.00794601 13.1745C0.00794601 9.39928 0.00794601 5.62402 0.00794601 1.84878C0.0306632 1.59681 0.0762908 1.34727 0.144229 1.10306Z" fill="#1E1E1E"/>
<path d="M15.2117 7.48058L21.8477 1.09531C21.918 1.34989 21.9663 1.60973 21.992 1.87211C21.992 5.64217 21.992 9.40705 21.992 13.1668C21.9707 13.4113 21.925 13.6532 21.8557 13.8892L15.2117 7.48058Z" fill="#1E1E1E"/>
</g>
<defs>
<clipPath id="clip0_47_1865">
<rect width="22" height="15" fill="white"/>
</clipPath>
</defs>
</svg>
