<svg width="26" height="27" viewBox="0 0 26 27" fill="none" xmlns="http://www.w3.org/2000/svg">
<g filter="url(#filter0_d_112_1096)">
<path fill-rule="evenodd" clip-rule="evenodd" d="M11.0865 13.8685C10.2787 13.8698 9.48849 13.6089 8.81433 13.1184L7.23032 13.6778L7.7455 11.9827C7.23245 11.2155 6.95617 10.2871 6.95732 9.33405C6.95778 9.19242 6.9655 9.05094 6.98041 8.91027C7.08844 7.78503 7.57286 6.74449 8.33919 5.9916C9.10551 5.2387 10.0988 4.82745 11.1253 4.83803C12.1518 4.84862 13.1379 5.28029 13.8913 6.04885C14.6447 6.81741 15.1114 7.86776 15.2003 8.99503C15.2061 9.11219 15.2061 9.2296 15.2003 9.34676C15.1952 10.549 14.7576 11.7 13.9834 12.5469C13.2093 13.3939 12.1619 13.8677 11.0711 13.8643L11.0865 13.8685ZM15.9962 9.20692C15.9474 7.81619 15.4149 6.49951 14.5089 5.53005C13.603 4.56059 12.3932 4.01276 11.1306 4.00022C9.86801 3.98768 8.64945 4.5114 7.7278 5.46271C6.80616 6.41402 6.25214 7.7199 6.18069 9.10944C6.18069 9.18572 6.18069 9.26625 6.18069 9.34253C6.17937 10.3215 6.42283 11.2819 6.88429 12.1183L6 15L8.71821 14.0465C9.44549 14.4854 10.2612 14.7157 11.0903 14.7161C11.7329 14.7189 12.3696 14.5821 12.9642 14.3135C13.5588 14.0449 14.0994 13.6498 14.5554 13.1507C15.0113 12.6517 15.3736 12.0585 15.6215 11.4051C15.8694 10.7516 15.998 10.0508 16 9.34253V9.20692H15.9962Z" fill="white"/>
</g>
<defs>
<filter id="filter0_d_112_1096" x="0" y="0" width="26" height="27" filterUnits="userSpaceOnUse" color-interpolation-filters="sRGB">
<feFlood flood-opacity="0" result="BackgroundImageFix"/>
<feColorMatrix in="SourceAlpha" type="matrix" values="0 0 0 0 0 0 0 0 0 0 0 0 0 0 0 0 0 0 127 0" result="hardAlpha"/>
<feOffset dx="2" dy="4"/>
<feGaussianBlur stdDeviation="4"/>
<feComposite in2="hardAlpha" operator="out"/>
<feColorMatrix type="matrix" values="0 0 0 0 0 0 0 0 0 0 0 0 0 0 0 0 0 0 0.1 0"/>
<feBlend mode="normal" in2="BackgroundImageFix" result="effect1_dropShadow_112_1096"/>
<feBlend mode="normal" in="SourceGraphic" in2="effect1_dropShadow_112_1096" result="shape"/>
</filter>
</defs>
</svg>
