<svg width="19" height="20" viewBox="0 0 19 20" fill="none" xmlns="http://www.w3.org/2000/svg">
<g clip-path="url(#clip0_7_580)">
<path d="M15.9969 2.58575L13.1666 5.44437C11.6002 4.07987 9.88081 3.84109 7.89534 4.40053C5.83338 4.98044 4.85228 6.51549 4.03415 8.66798C3.98436 9.40091 3.99324 10.1368 4.06074 10.8682C4.17382 11.6392 4.51306 12.3726 4.8024 13.2766C5.65711 14.0919 6.44199 15.2653 7.8122 15.7293C8.80992 15.7293 9.79102 15.76 10.7821 15.7293C12.3452 15.6679 14.4038 14.085 14.6732 12.4408C14.6735 12.2917 14.6579 12.143 14.6267 11.9974H9.71119V8.28252H18.5677C18.8246 8.82792 18.971 9.42115 18.9979 10.0263C19.0247 10.6314 18.9315 11.2358 18.724 11.8029C18.3648 12.8945 18.3382 14.085 17.7529 15.1459C16.4924 17.4349 14.5369 18.8335 12.0991 19.5294C10.8449 19.8798 9.53312 19.9576 8.24787 19.7579C6.83079 19.5078 5.47507 18.9759 4.25697 18.1922C2.38125 17.046 1.47996 15.1835 0.512171 13.3277C0.252763 12.8297 0.695095 12.1577 0.0632029 11.8131C-0.0931074 9.1592 0.176264 6.63488 1.66953 4.30842C3.02311 2.20027 4.94207 1.06434 7.20691 0.371855C8.73225 -0.0869675 10.3488 -0.123848 11.8925 0.264963C13.4362 0.653774 14.8522 1.45444 15.9969 2.58575Z" fill="#1E1E1E"/>
</g>
<defs>
<clipPath id="clip0_7_580">
<rect width="18.6667" height="19.5152" fill="white" transform="scale(1.01786)"/>
</clipPath>
</defs>
</svg>
