<svg width="148" height="149" viewBox="0 0 148 149" fill="none" xmlns="http://www.w3.org/2000/svg">
<path d="M12 90.0046V97H19V90.0046V83H12V90.0046Z" fill="#263238"/>
<path d="M19 50H12V57H19V50Z" fill="#263238"/>
<path d="M60 123H53V130H60V123Z" fill="#263238"/>
<path d="M18.6017 63.6017V70.2034H12V76.7966H18.6017V83.3983H25.2034H31.8051V90H38.3983V83.3983H45V76.7966V70.2034H38.3983V76.7966H31.8051H25.2034V70.2034V63.6017V57H18.6017V63.6017Z" fill="#263238"/>
<path d="M32.5042 50H26V57H32.5042H39V50H32.5042Z" fill="#263238"/>
<path d="M61.9952 103H66V97H61.9952H58V103H61.9952Z" fill="#263238"/>
<path d="M45 57H39V64H45V57Z" fill="#263238"/>
<path d="M92 83H85V90H92V83Z" fill="#263238"/>
<path d="M98 11H92V17H98V11Z" fill="#263238"/>
<path d="M58.3304 63.5V56.9972H65V50.4944H58.3304V44H51.6696V50.4944H45V56.9972H51.6696V63.5V70.0028V76.4972V83H58.3304V76.4972V70.0028H65V63.5H58.3304Z" fill="#263238"/>
<path d="M91.5 130H98V123H91.5H85V130H91.5Z" fill="#263238"/>
<path d="M85 11H79V17H85V11Z" fill="#263238"/>
<path d="M84 63.3333V56.6667H77.3304V50H70.6609V56.6667V63.3333H64V70H70.6609H77.3304V63.3333H84Z" fill="#263238"/>
<path d="M121 50H114V57H121V50Z" fill="#263238"/>
<path d="M52 83H46V90H52V83Z" fill="#263238"/>
<path d="M78.1949 44V37.2478H84.7966V30.4956H91.3983H98V23.7522H91.3983V17H84.7966V23.7522H78.1949V30.4956H71.6017V37.2478H65V44H71.6017H78.1949Z" fill="#263238"/>
<path d="M78.3304 90V83.5H85V77H78.3304H71.6696V83.5H65V90H71.6696H78.3304Z" fill="#263238"/>
<path d="M98 116.33V109.661H91.4986H84.9972V103H78.4958V109.661H72.0028V116.33H65.5014H59V123H65.5014H72.0028H78.4958V116.33H84.9972V123H91.4986V116.33H98Z" fill="#263238"/>
<path d="M72 17.5V11H65.3304H58.6609V17.5H52V24H58.6609H65.3304V17.5H72Z" fill="#263238"/>
<path d="M72 24H65V30H72V24Z" fill="#263238"/>
<path d="M88.6696 50.1949H82V56.7966V63.3983V70H88.6696H95.3391V63.3983H88.6696V56.7966H95.3391V50.1949H102V43.6017H95.3391V37H88.6696V43.6017V50.1949Z" fill="#263238"/>
<path d="M65 30H59V37H65V30Z" fill="#263238"/>
<path d="M85 96.4958V103H91.7522H98.5044V96.4958H105.248H112V90H105.248H98.5044H91.7522V96.4958H85Z" fill="#263238"/>
<path d="M121 70H114V77H121V70Z" fill="#263238"/>
<path d="M98 77H92V83H98V77Z" fill="#263238"/>
<path d="M115 57H108.5H102V63.5H108.5V70H115V63.5V57Z" fill="#263238"/>
<path d="M112 77H105V83H112V77Z" fill="#263238"/>
<path d="M39.2103 116.415H59V90H32.4938V96.5739H26.0257V103.148H32.4938V109.722H26.0257V116.287H32.4938V116.415H32.588V122.861H26V136H32.588V129.435H39.1846V116.415H39.2103ZM53.9198 95.0713V111.506H37.4369V95.0542L53.9198 95.0713Z" fill="#263238"/>
<path d="M125.33 90H132V83H125.33H118.67H112V90H118.67H125.33Z" fill="#263238"/>
<path d="M125 64H132V57V50H125V57V64Z" fill="#263238"/>
<path d="M72 97H66V103.5V110H72V103.5V97Z" fill="#263238"/>
<path d="M138 90H132V97H138V90Z" fill="#263238"/>
<path d="M138 76.4958V70H132V76.4958V83H138V76.4958Z" fill="#263238"/>
<path d="M19 123H12V129.5V136H19V129.5V123Z" fill="#263238"/>
<path d="M138 43.9914V11H105V44L138 43.9914ZM109.947 39.0358V15.947H133.044V39.0358H109.947Z" fill="#263238"/>
<path d="M128 21H115V34H128V21Z" fill="#263238"/>
<path d="M138 103H105V136H138V103ZM109.947 131.052V107.948H133.044V131.052H109.947Z" fill="#263238"/>
<path d="M128 113H115V126H128V113Z" fill="#263238"/>
<path d="M12 11V44H45V11H12ZM40.0517 15.9556V39.0358H16.9483V15.947L40.0517 15.9556Z" fill="#263238"/>
<path d="M35 21H22V34H35V21Z" fill="#263238"/>
<path d="M2.54088 33.2778V10.0561C2.38327 7.91248 3.06303 5.78975 4.44552 4.10833C5.27162 3.22562 6.28985 2.53147 7.42672 2.07596C8.56359 1.62046 9.79075 1.41497 11.0196 1.47432H36.2452C36.4454 1.47432 36.6374 1.39733 36.7789 1.26029C36.9205 1.12326 37 0.937397 37 0.743598C37 0.549798 36.9205 0.363938 36.7789 0.226901C36.6374 0.0898639 36.4454 0.0128739 36.2452 0.0128739H11.2917C9.18089 -0.0896789 7.08675 0.42231 5.27936 1.48281C3.97747 2.32219 2.90896 3.45882 2.1681 4.79244C1.42724 6.12607 1.0368 7.61569 1.03121 9.12992C0.96099 12.945 1.03121 16.777 1.03121 20.6006V33.2693C1.03121 33.4631 1.11074 33.6489 1.2523 33.786C1.39386 33.923 1.58585 34 1.78604 34C1.98624 34 2.17824 33.923 2.3198 33.786C2.46136 33.6489 2.54088 33.4631 2.54088 33.2693V33.2778Z" fill="#3371A5"/>
<path d="M33.2778 147.502H10.0561C7.91246 147.655 5.78974 146.994 4.10832 145.65C3.22514 144.847 2.53066 143.858 2.07512 142.752C1.61958 141.647 1.41437 140.454 1.47432 139.259V114.734C1.47432 114.539 1.39733 114.353 1.26029 114.215C1.12326 114.077 0.937397 114 0.743598 114C0.549798 114 0.363925 114.077 0.226888 114.215C0.089851 114.353 0.0128739 114.539 0.0128739 114.734V138.994C-0.0896789 141.046 0.42231 143.082 1.48281 144.839C2.3211 146.106 3.4575 147.146 4.79137 147.866C6.12523 148.587 7.61541 148.966 9.12992 148.97C12.945 149.038 16.777 148.97 20.6006 148.97H33.2693C33.4631 148.97 33.6489 148.892 33.786 148.755C33.923 148.617 34 148.43 34 148.236C34 148.041 33.923 147.854 33.786 147.717C33.6489 147.579 33.4631 147.502 33.2693 147.502H33.2778Z" fill="#3371A5"/>
<path d="M146.498 114.73V137.945C146.655 140.087 145.996 142.21 144.65 143.891C143.845 144.774 142.853 145.469 141.745 145.926C140.637 146.383 139.441 146.59 138.243 146.533H113.656C113.476 146.553 113.309 146.637 113.188 146.771C113.067 146.905 113 147.079 113 147.259C113 147.44 113.067 147.613 113.188 147.747C113.309 147.881 113.476 147.966 113.656 147.986H137.969C140.027 148.095 142.07 147.582 143.829 146.516C145.1 145.679 146.143 144.543 146.866 143.21C147.588 141.876 147.967 140.386 147.97 138.871C148.038 135.049 147.97 131.226 147.97 127.404V114.73C147.97 114.537 147.892 114.351 147.754 114.214C147.616 114.077 147.429 114 147.234 114C147.039 114 146.852 114.077 146.714 114.214C146.576 114.351 146.498 114.537 146.498 114.73Z" fill="#3371A5"/>
<path d="M114.73 1.49808H137.943C140.084 1.33991 142.206 1.99799 143.886 3.34128C144.768 4.14439 145.463 5.1341 145.919 6.23924C146.376 7.34439 146.583 8.53751 146.526 9.73277V34.2661C146.526 34.4608 146.603 34.6474 146.74 34.7851C146.877 34.9227 147.063 35 147.256 35C147.45 35 147.636 34.9227 147.773 34.7851C147.91 34.6474 147.987 34.4608 147.987 34.2661V10.0058C148.092 7.95338 147.58 5.91664 146.518 4.16048C145.68 2.89422 144.544 1.855 143.211 1.13465C141.878 0.414308 140.39 0.0350281 138.876 0.0303408C135.056 -0.037926 131.235 0.0303408 127.415 0.0303408H114.73C114.536 0.0303408 114.351 0.107662 114.214 0.245289C114.077 0.382916 114 0.569575 114 0.764209C114 0.958843 114.077 1.1455 114.214 1.28313C114.351 1.42076 114.536 1.49808 114.73 1.49808Z" fill="#3371A5"/>
</svg>
