<svg width="127" height="139" viewBox="0 0 127 139" fill="none" xmlns="http://www.w3.org/2000/svg">
<path d="M123.953 105.505L53.09 4.83954C51.6484 2.79125 49.5686 1.27414 47.1732 0.523545C44.7778 -0.227048 42.2007 -0.169169 39.8417 0.688201L4.61473 13.4901C0.325503 15.0496 -1.35073 20.2099 1.20989 23.9759L75.9488 133.913C77.6104 136.357 80.1463 138.077 83.0383 138.721C85.9303 139.365 88.9599 138.884 91.508 137.377L124.068 118.122C127.408 116.147 127.953 111.534 123.953 105.505ZM121.858 117.008L88.9666 135.402C87.0202 136.49 84.7347 136.81 82.5626 136.299C80.3906 135.788 78.4904 134.483 77.2382 132.642L3.04064 23.5288C2.57665 22.8466 2.27458 22.0681 2.1573 21.2523C2.04002 20.4365 2.11062 19.6048 2.36374 18.8202C2.61686 18.0356 3.04587 17.3187 3.61828 16.7237C4.19069 16.1288 4.8915 15.6714 5.66762 15.3862L41.2587 2.30942C45.2415 0.845626 49.7498 2.56078 52.1769 6.03198L122.094 105.752C124.921 109.876 126.469 113.832 121.863 117.008H121.858Z" fill="#1E1E1E"/>
</svg>
