<svg width="20" height="20" viewBox="0 0 20 20" fill="none" xmlns="http://www.w3.org/2000/svg">
<g clip-path="url(#clip0_14_102)">
<path d="M15.278 19.9993C14.0273 19.8669 12.811 19.5097 11.6877 18.9448C6.78257 16.4881 3.10357 12.8155 0.827966 7.80997C0.426179 6.92609 0.256027 5.93441 0.0186722 4.98199C-0.0244387 4.73946 0.0228639 4.48955 0.151648 4.27946C1.06651 2.81481 2.18484 1.48719 3.47319 0.336294C4.01367 -0.142056 4.31894 -0.118493 4.74289 0.46338C5.71662 1.80133 6.60169 3.19782 7.28945 4.70569C7.57542 5.32826 7.53038 5.47391 7.01349 5.94369C6.58453 6.33565 6.12913 6.70405 5.71161 7.11029C5.61152 7.2081 5.54146 7.43871 5.58364 7.5658C6.72395 10.9742 8.99526 13.2589 12.414 14.4012C12.6099 14.4662 12.7486 14.439 12.8852 14.2805C13.2805 13.8215 13.6809 13.3645 14.0905 12.9176C14.5002 12.4707 14.6746 12.4178 15.2151 12.662C16.7629 13.3553 18.1935 14.2534 19.5561 15.2551C20.1188 15.6692 20.1374 15.969 19.6655 16.4981C18.5034 17.7924 17.1651 18.9174 15.6898 19.8401C15.5461 19.9315 15.3667 19.97 15.278 19.9993Z" fill="white"/>
<path d="M19.9714 9.26928H18.5737C18.5165 7.11314 17.773 5.24686 16.2431 3.72685C14.7239 2.21684 12.8679 1.47433 10.7174 1.42506V0.0549855C15.1378 -0.196326 20.0322 3.75398 19.9714 9.26928Z" fill="white"/>
<path d="M10.7174 4.99125V3.62688C13.2783 3.39913 16.4497 5.7973 16.4004 9.26212H15.0005C14.9534 8.1048 14.5609 7.08885 13.7337 6.26352C12.9065 5.43818 11.8928 5.03694 10.7174 4.99125Z" fill="white"/>
</g>
<defs>
<clipPath id="clip0_14_102">
<rect width="20" height="20" fill="white"/>
</clipPath>
</defs>
</svg>
