<svg width="19" height="21" viewBox="0 0 19 21" fill="none" xmlns="http://www.w3.org/2000/svg">
<path d="M0.590496 21L0.428812 20.929C0.306295 20.8863 0.199658 20.807 0.123206 20.7018C0.0467533 20.5966 0.0041253 20.4704 0.000996252 20.3402C-0.0259523 18.1542 0.489454 16.1543 2.07942 14.5572C3.06948 13.6021 4.295 12.9293 5.62987 12.6081C8.04363 12.0219 10.5601 12.008 12.9801 12.5675C14.2716 12.8667 15.47 13.4802 16.47 14.3541C17.5565 15.3391 18.2883 16.6573 18.5517 18.1034C18.6763 18.7328 18.6966 19.3825 18.7673 20.0255C18.817 20.2337 18.7825 20.4532 18.6714 20.6358C18.5603 20.8185 18.3815 20.9495 18.1744 21H0.590496Z" fill="white"/>
<path d="M9.66982 0C10.039 0.0525556 10.4053 0.125175 10.7674 0.217589C11.5055 0.409078 12.1866 0.792781 12.7485 1.33373C13.3105 1.87468 13.7355 2.55569 13.9849 3.31473C14.3583 4.30928 14.4617 5.39429 14.2836 6.44764C14.1054 7.50098 13.6527 8.48083 12.9764 9.2769C12.5611 9.80405 12.0465 10.2338 11.4652 10.5387C10.884 10.8436 10.2489 11.017 9.60073 11.0477C8.95252 11.0784 8.30542 10.9658 7.7007 10.7171C7.09598 10.4684 6.54697 10.0891 6.08878 9.60329C5.45098 8.95917 4.97237 8.15945 4.69489 7.27425C4.41741 6.38905 4.34952 5.4454 4.49722 4.52602C4.59162 3.55852 4.95274 2.64164 5.53571 1.88924C6.11867 1.13683 6.89781 0.582046 7.7764 0.293756C8.14161 0.182059 8.51426 0.0996139 8.89118 0.0471368L9.145 0.0036191L9.66982 0Z" fill="white"/>
</svg>
