<svg width="116" height="238" viewBox="0 0 116 238" fill="none" xmlns="http://www.w3.org/2000/svg">
<g clip-path="url(#clip0_151_1578)" filter="url(#filter0_d_151_1578)">
<path d="M114.261 228.951C113.874 230.104 113.371 231.214 112.759 232.266C111.888 233.681 110.665 234.847 109.21 235.651C108.951 235.808 108.667 235.958 108.423 236.107C108.014 237.034 106.992 236.806 106.315 237.238C105.318 237.304 104.327 237.441 103.349 237.647C100.745 237.741 98.1405 237.874 95.5285 237.874C68.5898 237.874 41.6537 237.874 14.7202 237.874C13.964 237.846 13.2067 237.872 12.4543 237.953C11.3371 238.228 10.4088 237.403 9.30729 237.403C9.19081 237.43 9.06977 237.43 8.95329 237.403C8.57426 237.288 8.18789 237.199 7.79677 237.136C7.49322 237.136 7.19738 237.04 6.95152 236.863C6.70566 236.685 6.52237 236.434 6.42782 236.146C4.92758 235.366 3.61282 234.273 2.57267 232.941C2.35187 232.72 2.18497 232.451 2.08488 232.156C2.08738 231.887 2.03653 231.62 1.93535 231.37C1.06991 229.964 0.944092 228.346 0.62152 226.79C0.558411 226.235 0.614709 225.673 0.786709 225.141C0.84965 224.858 1.0385 224.63 1.40041 224.803C1.61283 225.416 1.48696 226.076 1.70725 226.681C1.70866 228.58 2.25469 230.439 3.28078 232.038C2.23847 230.411 1.69182 228.517 1.70725 226.586C1.62545 226.296 1.56749 225.999 1.53409 225.699C1.32167 223.86 1.53413 222.007 1.2745 220.2C1.28554 219.606 1.33552 219.012 1.42403 218.425C1.42403 217.961 1.42403 217.49 1.42403 217.019C1.14867 214.898 1.50271 212.777 1.42403 210.656C1.36896 207.184 1.36109 203.704 1.42403 200.232C1.55778 199.855 1.7466 199.509 2.21079 199.635C2.67498 199.76 2.65136 200.106 2.68283 200.514C3.22569 208.173 3.13122 215.848 3.01321 223.515C2.8833 225.09 2.96805 226.676 3.26502 228.228C3.43024 227.89 3.55613 227.56 3.95738 227.592C4.3901 227.749 4.59465 228.149 4.83855 228.479C5.85927 229.87 7.32939 230.866 9.00054 231.299C10.4451 231.705 11.9373 231.916 13.4378 231.928C20.6602 231.928 27.8827 231.928 35.1052 231.928C36.2728 232.026 37.4465 232.026 38.6141 231.928C40.0546 232.104 41.5081 232.152 42.9571 232.069C47.4809 232.164 52.0127 232.069 56.5444 232.069C56.9507 232.026 57.3615 232.058 57.7561 232.164C58.118 232.517 58.5429 232.87 58.2675 233.452C58.1425 233.673 57.9549 233.853 57.7283 233.969C57.5017 234.085 57.246 234.132 56.9929 234.104C55.4194 234.174 53.9245 234.332 52.3824 234.332C44.2316 234.332 36.0808 234.332 27.93 234.434C22.7059 234.497 17.4818 234.284 12.2499 234.434C11.2962 234.424 10.3454 234.326 9.40958 234.143C10.2647 234.332 11.138 234.427 12.0138 234.426C16.7737 234.426 21.5257 234.63 26.2857 234.52C32.6584 234.379 39.0232 234.52 45.396 234.434C48.9286 234.363 52.4769 234.512 55.9937 234.324C61.4381 234.033 66.8825 234.363 72.319 234.135C77.7555 233.907 83.0111 234.135 88.3532 233.939C92.0038 233.782 95.6464 233.884 99.297 233.774C100.773 233.746 102.246 233.612 103.703 233.373C105.233 233.141 106.693 232.578 107.983 231.724C109.808 230.938 110.634 229.179 111.814 227.757C112.154 227.35 112.358 226.847 112.397 226.319C112.397 226.217 112.397 226.123 112.397 226.029C112.546 225.494 112.507 224.929 112.633 224.387C112.68 224.289 112.757 224.21 112.853 224.159C112.93 224.13 113.014 224.123 113.096 224.136C113.177 224.15 113.253 224.185 113.317 224.238C113.64 224.74 113.451 225.298 113.498 225.809C113.498 226.123 113.388 226.421 113.364 226.736C113.263 228.56 112.686 230.325 111.688 231.857C111.375 232.387 110.976 232.862 110.508 233.263C110.965 232.896 111.375 232.474 111.728 232.006C112.277 231.081 112.736 230.105 113.097 229.092C113.671 229.014 113.608 229.359 113.561 229.548C113.506 228.841 113.876 227.977 113.836 227.113C113.862 226.985 113.921 226.866 114.008 226.77C114.096 226.673 114.207 226.601 114.332 226.563C114.56 226.563 114.804 226.563 114.702 226.932V227.246C114.521 227.505 114.702 227.827 114.537 228.102V228.142V228.181C114.222 228.385 114.45 228.715 114.261 228.951Z" fill="#0C0C0C"/>
<path d="M1.32965 224.772C1.04672 225.526 1.00275 226.348 1.20374 227.128C1.3374 227.577 1.40108 228.043 1.39255 228.511C1.43594 229.388 1.68382 230.244 2.11641 231.009C2.29736 231.394 2.48618 231.755 2.11641 232.109C1.19025 230.761 0.606941 229.208 0.416976 227.584C0.138728 225.931 0.0018473 224.257 0.00784489 222.58V159.29C0.00784489 111.598 0.00784489 63.9081 0.00784489 16.2212C-0.0657742 14.0248 0.0659227 11.8262 0.401225 9.6542C0.628357 8.09966 1.18924 6.6125 2.04553 5.29451C2.32345 5.17911 2.55948 4.98178 2.72213 4.72891C3.72184 3.4067 5.0288 2.34719 6.53012 1.64178C7.12019 1.35899 7.51358 1.43755 7.71814 2.0974C7.77544 2.2412 7.79817 2.39642 7.7845 2.55057C7.77084 2.70473 7.72109 2.85354 7.63938 2.98505C7.40336 3.61348 7.63942 3.91198 8.26883 3.77058C9.81493 3.59031 11.3699 3.49591 12.9265 3.4878C14.5739 3.46228 16.2208 3.56732 17.8516 3.80199C18.8665 3.9041 19.1025 4.32045 18.8428 5.09027C18.3336 5.24565 17.7961 5.28592 17.2693 5.20812C15.8033 5.24986 14.343 5.4101 12.9029 5.68728C12.4387 5.68728 11.9666 5.68726 11.5024 5.76581C8.78808 5.97005 6.42777 6.88912 4.78344 9.19858C4.58675 9.46566 4.42945 9.79558 4.05181 9.88198C3.02902 9.55206 2.68283 8.64871 3.15489 7.48613C3.43812 6.79486 3.94162 6.2057 4.20912 5.50657C4.31927 5.24735 4.60248 5.03526 4.48447 4.72104C3.52164 5.3462 2.82617 6.30664 2.53332 7.41545C1.85057 9.54021 1.54958 11.7687 1.64427 13.9982C1.64427 37.6898 1.64427 61.3814 1.64427 85.073C1.64427 122.7 1.64427 160.327 1.64427 197.954C1.64427 203.416 1.61807 208.875 1.56562 214.332C1.56562 217.474 1.56562 220.616 1.56562 223.719C1.51841 224.057 1.62075 224.45 1.32965 224.772Z" fill="#171717"/>
<path d="M113.301 225.903V224.214C112.9 223.79 113.026 223.263 113.026 222.776C113.026 211.617 113.026 200.457 113.026 189.297C113.026 187.938 113.026 186.571 112.932 185.212C112.981 184.806 113.007 184.397 113.01 183.987C113.01 177.396 113.168 170.806 113.01 164.215C112.766 155.967 112.648 147.719 112.947 139.463C113.427 125.976 113.073 112.488 113.254 99.0004C113.144 97.4077 113.144 95.8093 113.254 94.2165C113.263 94.0112 113.308 93.8091 113.388 93.6195C113.797 93.3053 113.608 92.834 113.608 92.4805C113.608 70.7527 113.608 49.0197 113.608 27.2815C113.608 26.9673 113.608 26.6609 113.608 26.4959C113.608 48.3494 113.608 70.3364 113.608 92.3312C113.65 92.7039 113.629 93.0811 113.545 93.4467C112.869 93.3603 113.065 92.8104 113.057 92.4334C113.057 90.0768 113.057 87.7202 113.057 85.3636C113.057 83.007 113.057 80.7133 113.057 78.3959C112.648 56.3618 112.987 34.3355 112.876 12.3014C112.876 11.5787 112.798 10.8639 112.735 10.1491C113.293 8.41304 112.428 7.00693 111.618 5.6244C111.429 5.30233 111.193 5.01169 111.287 4.60322C111.468 4.35185 111.618 4.0219 112.035 4.13187C112.874 4.91937 113.511 5.89755 113.891 6.98335C114.213 7.62403 114.411 8.31969 114.474 9.03362C114.419 9.82499 114.488 10.62 114.678 11.3902C114.843 13.6133 114.812 15.8442 114.828 18.0672C114.898 25.9697 114.788 33.8799 114.875 41.7902C114.969 51.1694 114.875 60.5565 114.961 69.9358C114.961 71.279 115.347 72.6459 115.087 73.9655C114.662 76.1493 114.922 78.3409 114.796 80.5247C114.643 82.808 114.643 85.0991 114.796 87.3824C115.04 90.5245 114.961 93.6667 114.93 96.8088C114.529 138.646 114.883 180.491 114.757 222.337C114.757 223.452 114.757 224.567 114.67 225.683C114.679 225.87 114.651 226.056 114.586 226.232C114.521 226.407 114.421 226.568 114.293 226.704V227.49C113.404 227.16 113.828 226.327 113.876 225.919C114.167 223.295 113.954 220.663 113.986 218.063C114.041 213.594 113.986 209.124 113.986 204.654C114.034 204.21 113.907 203.765 113.632 203.413C113.604 203.039 113.604 202.664 113.632 202.29C113.632 182.835 113.632 163.377 113.632 143.917C113.651 143.593 113.651 143.267 113.632 142.943C113.632 142.857 113.821 142.943 113.695 142.943C113.569 142.943 113.695 142.943 113.655 143.006C113.655 143.249 113.655 143.501 113.655 143.791C113.655 163.375 113.608 182.958 113.695 202.541C113.695 205.345 113.695 208.173 113.868 210.986C113.939 212.235 114.025 213.484 114.025 214.74C114.025 218.087 114.088 221.433 114.025 224.78C114.043 225.955 113.959 227.13 113.773 228.291C113.695 228.699 113.624 229.076 113.215 229.288C112.95 230.362 112.503 231.382 111.893 232.305C111.712 232.352 111.649 232.305 111.696 232.109C112.345 230.925 112.811 229.652 113.081 228.33C113.173 227.838 113.217 227.338 113.215 226.838C113.301 226.445 113.097 226.115 113.301 225.903Z" fill="#171717"/>
<path d="M114.253 226.657C114.407 225.826 114.47 224.98 114.442 224.135V85.3243C114.442 83.8868 114.442 82.4414 114.442 81.0039C114.836 67.5163 114.513 54.0209 114.6 40.5255C114.647 33.1808 114.67 25.8439 114.6 18.5306C114.6 16.174 114.49 13.896 114.419 11.5787C114.357 10.827 114.252 10.0795 114.104 9.33991C114.104 9.0964 114.104 8.85292 114.442 9.08072C114.457 9.0999 114.465 9.12333 114.465 9.14746C114.465 9.1716 114.457 9.19508 114.442 9.21425C114.6 9.46562 114.442 9.77983 114.608 9.99978C114.623 10.0202 114.631 10.045 114.631 10.0705C114.631 10.0959 114.623 10.1208 114.608 10.1412C114.82 10.5732 114.537 11.0759 114.781 11.508V11.7986C114.882 12.1614 114.908 12.5408 114.859 12.9141C114.859 23.3512 114.859 33.7909 114.859 44.2332C114.859 44.571 114.749 44.9244 114.969 45.2387C115.085 45.363 115.174 45.5102 115.229 45.6707C115.229 45.7807 115.3 45.8907 115.339 45.9928C115.475 46.2656 115.54 46.5681 115.528 46.8726C115.323 54.178 115.449 61.4913 115.441 68.8046C115.441 70.4699 116.016 72.1038 115.811 73.8005C115.827 74.1113 115.803 74.4227 115.74 74.7275C115.599 75.0731 115.3 75.0417 115.009 75.0338C114.804 75.1595 114.867 75.3638 114.867 75.5444C114.867 79.2102 114.867 82.8761 114.867 86.5419C114.867 86.7225 114.82 86.9268 115.001 87.0603C115.182 87.1938 115.426 87.0132 115.552 87.2488L115.504 87.3038C115.504 87.3038 115.504 87.3038 115.504 87.241C116 87.4609 115.89 87.9244 115.89 88.3093C115.89 90.5009 115.89 92.7004 115.89 94.8999C115.89 96.1253 115.89 97.3429 115.89 98.5683C115.89 99.0946 115.851 99.5974 115.182 99.7074C114.985 99.7074 114.938 99.8723 114.938 100.045C114.938 100.351 114.938 100.666 114.938 100.98C114.938 141.346 114.938 181.709 114.938 222.069C114.95 223.452 114.887 224.834 114.749 226.209C114.755 226.459 114.701 226.707 114.592 226.932L114.253 226.657Z" fill="#141414"/>
<path d="M7.0022 2.08163C7.0022 1.97951 7.20675 1.84598 7.0022 1.79099C6.79764 1.736 6.59307 1.90097 6.39637 1.99524C4.94968 2.67689 3.7093 3.72839 2.80092 5.0431C2.59636 5.35731 2.39967 5.64012 2.01416 5.25521C2.81818 3.91772 3.91836 2.78189 5.23035 1.93492C6.54234 1.08796 8.03126 0.552343 9.58279 0.369183C9.99191 0.29063 10.3695 0.157078 10.7865 0.455579C10.7962 0.526745 10.7812 0.599084 10.744 0.660544C10.7068 0.722004 10.6495 0.76887 10.5819 0.793352C10.1649 0.942603 9.63786 0.793363 9.37823 1.2961C9.37823 1.2961 9.37823 1.37468 9.37823 1.36682C9.63258 1.4748 9.83737 1.67367 9.95255 1.92452C10.1598 2.09289 10.3992 2.21736 10.6562 2.29029C10.9132 2.36322 11.1825 2.38311 11.4474 2.34873C13.8942 2.41158 16.3489 2.49013 18.7957 2.49799C24.1693 2.49799 29.5429 2.71791 34.9165 2.76504C41.8557 2.82788 48.8028 2.82789 55.7499 2.96929C71.4851 3.2835 87.2203 2.96929 102.955 3.11854H103.522C103.927 3.18811 104.338 3.22228 104.749 3.22066C105.417 3.2829 106.073 3.43347 106.7 3.66842C106.921 3.71555 107.149 3.73913 107.259 3.4799C107.369 3.22067 107.188 3.14209 107.07 3.00069C106.221 2.00307 106.228 1.9795 107.566 1.62601C107.66 1.61818 107.755 1.61818 107.849 1.62601C108.416 1.85382 109.029 2.03449 109.179 2.75718C109.164 2.83652 109.132 2.91164 109.084 2.97715C109.054 3.01717 109.033 3.06308 109.023 3.11183C109.012 3.16057 109.011 3.21103 109.021 3.25993C109.33 3.69605 109.593 4.16184 109.808 4.65033C109.902 4.83613 109.931 5.04736 109.893 5.25166C109.855 5.45596 109.75 5.64208 109.596 5.7815C109.44 5.91689 109.24 5.99145 109.033 5.99145C108.826 5.99145 108.627 5.91689 108.471 5.7815C105.796 3.94336 102.727 4.12403 99.7219 4.16331C97.7078 4.16331 95.7015 4.3597 93.6874 4.42255C87.75 4.62155 81.8074 4.721 75.8595 4.721C71.7605 4.721 67.6536 4.81531 63.5546 4.46968C61.1943 4.27329 58.7711 4.4068 56.3951 4.19471C53.13 3.90407 49.857 4.12401 46.592 3.89621C44.1687 3.73124 41.7298 3.84124 39.2987 3.72341C34.6332 3.49561 29.952 3.53487 25.2786 3.41704C22.3834 3.34635 19.4959 3.41704 16.6243 3.26779C14.248 3.11853 11.8647 3.11853 9.48839 3.26779C9.11761 3.35324 8.72836 3.30166 8.39276 3.12257C8.05716 2.94348 7.7979 2.64902 7.66305 2.29374C7.54503 2.12878 7.22249 2.24659 7.0022 2.08163Z" fill="#313131"/>
<path d="M10.7707 0.549866C10.3986 0.412286 10.0025 0.350858 9.6062 0.369209C10.5084 0.0969039 11.4494 -0.0251952 12.3914 0.00784769C35.926 0.00784769 59.4554 0.00784769 82.9795 0.00784769C88.5498 0.00784769 94.1122 0.00784577 99.6824 0.0549776C99.9498 0.0197165 100.222 0.0577429 100.469 0.164963C100.084 0.644137 99.5409 0.463469 99.061 0.463469C89.174 0.463469 79.2843 0.463469 69.3921 0.463469C68.5773 0.405407 67.7586 0.482412 66.9689 0.691303L66.6385 0.816967C66.3337 0.992241 65.9729 1.04291 65.6315 0.958357C62.7555 0.681865 59.8655 0.579547 56.9771 0.651988C55.6947 0.651988 54.4438 1.09192 53.1535 0.934816C52.9961 0.934816 52.8387 0.934816 52.6814 0.934816C51.5203 0.875875 50.3571 0.875875 49.1961 0.934816C48.8873 1.00658 48.5633 0.973364 48.2755 0.840508L47.9373 0.761974C47.286 0.644337 46.6239 0.596939 45.9625 0.620584H13.8784C13.1865 0.611555 12.4949 0.653543 11.8092 0.746248C11.4945 0.856222 11.0697 0.958341 10.7707 0.549866Z" fill="#4D4D4D"/>
<path d="M115.788 74.6961C115.788 73.7535 115.788 72.8108 115.788 71.8682C115.821 71.6673 115.803 71.4614 115.735 71.2693C115.668 71.0771 115.553 70.905 115.402 70.7684C115.286 70.6622 115.197 70.5298 115.142 70.3822C115.087 70.2347 115.069 70.0763 115.087 69.92C115.087 69.3545 115.04 68.7889 115.04 68.2233C115.04 62.7246 114.993 57.1788 115.04 51.6643C114.944 50.0072 114.971 48.3453 115.119 46.692C115.13 46.3775 115.098 46.0631 115.024 45.7572C115.19 45.6786 115.308 45.5294 115.473 45.4508H115.575C116.15 45.6708 115.984 46.1814 115.984 46.582C115.984 48.8679 115.984 51.1537 115.984 53.4396C115.984 60.1166 115.984 66.791 115.984 73.4628C115.984 73.8556 116.102 74.3112 115.788 74.6961Z" fill="#171717"/>
<path d="M103.074 0.212097C106.118 0.29065 108.911 1.05263 111.177 3.22069C111.173 3.2874 111.149 3.35138 111.108 3.40451C111.068 3.45765 111.012 3.49757 110.949 3.5192C110.351 3.5192 109.997 2.89861 109.376 2.85933C108.974 2.44664 108.481 2.13444 107.936 1.94814C107.426 1.77457 106.872 1.77457 106.362 1.94814C106.253 1.93554 106.145 1.91451 106.04 1.88528C104.061 1.4466 102.04 1.23054 100.013 1.24114C89.182 1.24114 78.3457 1.24114 67.5042 1.24114C67.1884 1.3009 66.8616 1.24517 66.5836 1.08407C66.5199 1.02359 66.4782 0.943525 66.4654 0.856669C66.4526 0.769813 66.4693 0.681143 66.5128 0.604862C67.3996 0.419527 68.3078 0.358731 69.2114 0.424206C79.5022 0.612733 89.793 0.424202 100.076 0.518465C101.453 0.518465 102.822 0.707006 104.01 0.777704C103.341 0.41636 102.358 0.974073 101.492 0.518465C102.004 1.54674e-05 102.633 0.502743 103.074 0.212097Z" fill="#505050"/>
<path d="M103.074 0.212047C102.578 0.486982 102.027 0.329884 101.5 0.416292C101.163 0.588816 100.778 0.644118 100.406 0.573408H70.6591C69.5351 0.50272 68.4078 0.50272 67.2838 0.573408C67.0072 0.61092 66.7265 0.54367 66.4971 0.384888C66.9397 0.212891 67.419 0.156107 67.8897 0.21991H98.9273C99.4623 0.21991 99.9973 0.21991 100.501 0.21991C101.358 0.167253 102.217 0.164622 103.074 0.212047Z" fill="#424242"/>
<path d="M115.024 45.2308C114.85 44.9289 114.779 44.5791 114.82 44.2332C114.82 33.4191 114.82 22.6049 114.82 11.7908C114.987 12.3936 115.046 13.0214 114.993 13.6447C114.993 22.5788 114.993 31.5102 114.993 40.4391C115.017 42.0337 115.024 43.6362 115.024 45.2308Z" fill="#171717"/>
<path d="M115.048 87.0368C114.845 86.7172 114.764 86.3351 114.82 85.9606C114.82 82.6666 114.82 79.3726 114.82 76.0786C114.766 75.7032 114.85 75.321 115.056 75.0024C115.056 77.359 115.056 79.7156 115.056 82.0722C115.017 83.7218 115.032 85.3793 115.048 87.0368Z" fill="#171717"/>
<path d="M111.02 3.41706L111.209 3.18927C111.571 3.39676 111.85 3.72478 111.995 4.11619C111.799 4.35185 112.035 4.56395 111.995 4.81532C111.712 4.81532 111.602 4.55607 111.382 4.49323C111.319 4.50238 111.255 4.49646 111.194 4.47597C111.134 4.45548 111.08 4.421 111.036 4.37538C110.958 4.27367 110.917 4.1495 110.917 4.02193C110.941 3.84911 110.878 3.63701 111.02 3.41706Z" fill="#3F3F3F"/>
<path d="M114.82 11.5002C114.627 11.072 114.567 10.596 114.647 10.1334C114.805 10.5706 114.864 11.0374 114.82 11.5002Z" fill="#171717"/>
<path d="M115.017 45.6314V45.2073C115.205 45.278 115.449 45.2072 115.567 45.4193C115.426 45.5686 115.268 45.7179 115.017 45.6314Z" fill="#171717"/>
<path d="M114.623 9.99195C114.484 9.75497 114.426 9.47923 114.458 9.20642C114.6 9.44209 114.659 9.71899 114.623 9.99195Z" fill="#171717"/>
<path d="M114.458 228.079C114.421 227.783 114.479 227.483 114.623 227.223C114.676 227.519 114.617 227.824 114.458 228.079Z" fill="#141414"/>
<path d="M114.261 228.951C114.23 228.675 114.297 228.397 114.45 228.165C114.482 228.441 114.415 228.719 114.261 228.951Z" fill="#141414"/>
<path d="M5.51513 3.21283C5.60974 3.37622 5.65218 3.56454 5.63671 3.75264C5.62125 3.94074 5.54863 4.11967 5.42859 4.26546C4.87786 5.24737 4.3429 6.23715 3.79217 7.21906C3.52727 7.57698 3.40331 8.01957 3.44392 8.46276C3.48454 8.90594 3.68683 9.31881 4.01239 9.62278C4.45297 9.96842 4.01242 10.4083 4.14617 10.8011C3.3122 13.6526 3.5246 16.5826 3.5246 19.489V150.06C3.55354 150.969 3.52729 151.88 3.44594 152.786C3.55609 161.804 3.50887 170.853 3.53247 179.839C3.53753 180.247 3.56642 180.653 3.619 181.057C3.3072 182.56 3.28587 184.109 3.5561 185.621C3.41819 188.762 3.4418 191.908 3.62688 195.047C3.33369 196.6 3.2517 198.186 3.38303 199.76C3.65053 201.928 3.38298 204.104 3.619 206.265C3.85503 207.836 3.23351 209.312 3.34366 210.868C3.61902 214.795 3.46955 218.668 3.54822 222.564C3.54914 223.727 3.72963 224.882 4.08326 225.989C4.17595 226.252 4.21464 226.531 4.19707 226.809C4.1795 227.087 4.10601 227.358 3.98098 227.607C3.65054 228.204 3.98095 228.77 4.05176 229.351C4.05176 229.524 4.19341 229.744 3.98098 229.854C3.76855 229.964 3.63474 229.752 3.5246 229.611C3.38311 229.441 3.26416 229.253 3.17059 229.053C2.57033 227.797 2.35937 226.391 2.56477 225.015C2.76531 223.814 2.85745 222.596 2.84012 221.378C2.90306 216.602 2.84012 211.834 2.84012 207.058C2.83749 206.305 2.77169 205.553 2.64343 204.811C2.4875 203.566 2.42965 202.311 2.47036 201.057C2.49226 200.795 2.49226 200.532 2.47036 200.271C2.39169 199.839 2.28938 199.815 1.75439 200.059C1.42395 199.643 1.56557 199.156 1.56557 198.7C1.56557 183.513 1.56557 168.326 1.56557 153.139V12.922C1.45531 10.7734 1.82342 8.62721 2.64343 6.63773C3.17622 5.19948 4.1908 3.98947 5.51513 3.21283Z" fill="#101010"/>
<path d="M113.12 9.80343C113.307 11.204 113.367 12.6183 113.301 14.0296C113.301 39.9835 113.301 65.9374 113.301 91.8913C113.216 92.4224 113.282 92.9666 113.49 93.4624C113.545 93.4624 113.561 93.5488 113.545 93.5881C113.53 93.6273 113.545 93.6509 113.49 93.6509C113.49 106.743 113.49 119.835 113.49 132.927C113.509 133.715 113.464 134.503 113.356 135.284C113.239 135.965 113.239 136.661 113.356 137.342C113.421 137.617 113.44 137.901 113.412 138.183C113.261 139.27 113.216 140.37 113.278 141.466C113.278 156.061 113.278 170.656 113.278 185.252C112.955 185.424 112.806 185.252 112.751 184.961C112.719 184.648 112.719 184.332 112.751 184.018C112.672 177.805 112.877 171.591 112.837 165.378C112.837 184.717 112.837 204.049 112.837 223.389C112.79 224.175 112.711 224.96 112.735 225.746C112.49 226.549 112.428 227.397 112.554 228.228C112.452 228.385 112.349 228.597 112.161 228.605C111.374 228.66 111.122 229.241 110.784 229.76C110.39 230.398 109.917 230.984 109.376 231.504C109.162 231.735 108.89 231.906 108.589 231.999C108.258 231.472 108.699 231.213 108.966 230.883C109.689 230.187 110.148 229.263 110.265 228.267C110.853 227.177 111.273 226.004 111.508 224.787C111.497 224.435 111.518 224.083 111.571 223.735C111.571 223.46 111.626 223.185 111.571 222.91C111.405 221.339 111.87 219.807 111.87 218.244C111.87 150.735 111.87 83.2322 111.87 15.7342C112.003 13.9854 111.963 12.2278 111.752 10.4868C111.677 10.0344 111.709 9.57087 111.846 9.13311C111.983 8.69536 112.22 8.29544 112.538 7.96527C113.301 8.35018 113.16 9.09646 113.12 9.80343Z" fill="#111111"/>
<path d="M110.634 228.299C110.423 229.488 109.852 230.585 108.998 231.441C108.849 231.598 108.712 231.766 108.589 231.944C106.937 233.031 105.049 233.71 103.081 233.923C102.039 234.078 100.988 234.165 99.9343 234.182C93.3019 234.088 86.6695 234.504 80.0371 234.394C78.8098 234.394 77.5825 234.332 76.3551 234.394C70.3915 234.724 64.4121 234.394 58.4406 234.591C46.0884 234.952 33.7284 234.638 21.3684 234.756C18.363 234.418 15.3418 234.661 12.3285 234.552C11.1972 234.524 10.0705 234.398 8.96119 234.174C8.46847 234.091 7.996 233.915 7.5686 233.656C7.69449 233.405 7.85973 233.499 7.98561 233.53C9.65618 233.976 11.3782 234.201 13.1074 234.198C16.9154 234.198 20.7233 234.308 24.5233 234.198C31.4704 233.939 38.4254 234.198 45.3646 233.994C48.3543 233.9 51.3361 233.931 54.318 233.837C55.2621 233.837 56.1904 233.656 57.1345 233.632C58.0786 233.609 58.2282 233.31 57.8663 232.368C58.1125 232.172 58.3985 232.033 58.7043 231.96C59.0101 231.887 59.3283 231.881 59.6365 231.944C61.6369 232.084 63.6433 232.118 65.6473 232.046C72.5446 232.046 79.4418 232.046 86.3391 232.046C90.6899 232.046 94.9935 232.085 99.3836 232.046C100.389 232.011 101.387 231.861 102.358 231.598C102.641 231.598 102.916 231.598 103.192 231.598C103.486 231.559 103.783 231.536 104.081 231.527C105.306 231.46 106.505 231.14 107.6 230.587C108.696 230.034 109.665 229.26 110.445 228.314C110.506 228.294 110.571 228.288 110.634 228.299Z" fill="#141414"/>
<path d="M3.94156 227.6L3.61108 226.288C4.20902 226.029 4.46871 226.476 4.75194 226.845C5.23787 227.617 5.83728 228.31 6.53003 228.904C8.45 230.246 10.7675 230.902 13.1073 230.765C13.485 230.765 13.8547 230.702 14.2324 230.718C17.8751 230.875 21.5178 230.765 25.1605 230.82C28.5463 231.005 31.9397 231.005 35.3255 230.82C35.7679 230.804 36.2105 230.852 36.6394 230.962C37.4116 231.127 38.2153 231.064 38.9524 230.781C39.2726 230.645 39.6202 230.586 39.9674 230.608C42.721 230.86 45.4747 230.702 48.2362 231.15C48.5473 231.186 48.8613 231.186 49.1724 231.15C51.934 231.048 54.6798 231.025 57.4649 231.15C58.4562 231.189 58.6136 231.362 58.5664 232.179C57.6944 232.281 56.8148 232.305 55.9385 232.25C53.0747 232.25 50.2188 232.25 47.3628 232.25C44.8373 232.25 42.304 232.25 39.7785 232.069C39.3472 232.069 38.9197 232.151 38.5197 232.313H29.9362H14.5628C12.7374 232.368 10.9125 232.186 9.13416 231.771C7.4101 231.342 5.88884 230.329 4.8306 228.904C4.5159 228.487 4.03597 228.173 3.94156 227.6Z" fill="#C3C3C3"/>
<path d="M1.70731 153.178C1.70731 168.816 1.70731 184.453 1.70731 200.09C1.70731 205.746 1.70731 211.399 1.70731 217.05C1.55801 217.477 1.55801 217.942 1.70731 218.37C1.70731 220.883 1.70731 223.389 1.70731 225.903C1.87253 226.123 1.77024 226.382 1.79384 226.618C1.81744 226.853 1.71518 226.9 1.51849 226.845C1.34311 226.169 1.27671 225.469 1.3218 224.772C1.3218 181.934 1.3218 139.102 1.3218 96.2746V84.9787C1.34768 84.9618 1.37759 84.9523 1.40843 84.9509C1.43928 84.9495 1.46988 84.9563 1.49717 84.9708C1.52446 84.9852 1.54744 85.0066 1.56363 85.0329C1.57982 85.0591 1.58866 85.0892 1.58928 85.1201C1.58928 94.9706 1.58928 104.829 1.58928 114.687C1.58928 127.146 1.58928 139.607 1.58928 152.071C1.5372 152.444 1.57774 152.824 1.70731 153.178Z" fill="#242424"/>
<path d="M112.57 223.491C112.57 222.989 112.57 222.486 112.57 221.983C112.57 206.225 112.522 190.475 112.617 174.718C112.617 171.151 112.727 167.577 112.774 163.862C112.951 164.179 113.013 164.549 112.947 164.906C112.947 171.246 112.947 177.593 112.947 183.932C112.947 184.38 112.79 184.898 113.309 185.204V224.214H112.916C112.578 223.648 112.861 223.043 112.853 222.47C112.853 211.038 112.853 199.611 112.853 188.189C112.853 187.891 112.853 187.585 112.853 187.467C112.853 187.569 112.853 187.852 112.853 188.135C112.853 199.598 112.853 211.059 112.853 222.517C112.821 222.831 113.081 223.279 112.57 223.491Z" fill="#141414"/>
<path d="M38.5591 232.281C38.8225 232.028 39.16 231.866 39.5223 231.818C39.8846 231.77 40.2528 231.839 40.5732 232.014C40.7443 232.099 40.9328 232.144 41.1239 232.144C41.3151 232.144 41.5035 232.099 41.6746 232.014C42.5401 231.59 43.4055 231.865 44.2631 232.014C44.7262 232.093 45.1941 232.14 45.6636 232.156C47.7406 232.156 49.8176 232.203 51.8868 232.156C54.1212 232.085 56.3477 232.234 58.5742 232.156C59.2096 231.634 60.0101 231.356 60.8323 231.37C61.9899 231.286 63.1534 231.352 64.294 231.567C64.6331 231.639 64.9781 231.681 65.3247 231.692C68.2672 231.692 71.2096 231.739 74.1521 231.826C77.463 231.995 80.7808 231.971 84.0889 231.755C86.8032 231.527 89.5097 232.03 92.1847 231.645C94.8597 231.26 97.6921 231.574 100.461 231.339C100.916 231.297 101.373 231.334 101.815 231.449C102.2 231.543 102.601 231.606 102.601 232.164C100.501 232.313 98.4001 232.305 96.3073 232.305C83.7192 232.305 71.1546 232.321 58.6136 232.352C58.3618 232.352 58.1101 232.352 57.8268 232.352C56.4421 232.352 55.0653 232.352 53.6806 232.352H39.4245L38.5591 232.281Z" fill="#C1C1C1"/>
<path d="M113.12 229.108C113.52 227.593 113.713 226.032 113.695 224.465C113.695 221.174 113.695 217.883 113.695 214.591C113.584 214.298 113.554 213.981 113.608 213.672C113.608 210.53 113.608 207.388 113.608 204.246C113.553 203.937 113.585 203.618 113.703 203.327C113.781 203.333 113.858 203.354 113.928 203.39C113.998 203.425 114.061 203.474 114.112 203.534C114.163 203.594 114.202 203.664 114.226 203.739C114.251 203.813 114.26 203.892 114.253 203.971C114.253 204.191 114.253 204.411 114.253 204.631C114.253 211.135 114.253 217.642 114.253 224.151C114.258 224.619 114.192 225.085 114.057 225.534C113.905 226.174 113.974 226.846 114.253 227.442C114.049 228.228 113.86 228.959 113.647 229.705C113.609 230.023 113.465 230.318 113.238 230.545C113.002 230.043 113.663 229.516 113.12 229.108Z" fill="#141414"/>
<path d="M112.57 223.491C112.709 223.039 112.754 222.563 112.704 222.093C112.704 210.577 112.656 199.061 112.759 187.53C112.737 187.212 112.783 186.894 112.892 186.595V187.663C112.971 199.682 112.971 211.7 112.892 223.719C112.892 223.876 112.892 224.033 112.892 224.19C112.881 224.242 112.881 224.296 112.892 224.347C112.656 224.905 112.979 225.526 112.711 226.084C112.7 226.122 112.7 226.163 112.711 226.201C112.641 226.201 112.57 226.296 112.507 226.201C112.467 226.16 112.445 226.105 112.445 226.048C112.445 225.991 112.467 225.936 112.507 225.895C112.554 225.102 112.562 224.293 112.57 223.491Z" fill="#737373"/>
<path d="M1.52637 226.845L1.70731 226.657C1.77549 226.531 1.83843 226.531 1.89612 226.657C1.93804 229.331 2.98558 231.891 4.83072 233.829C3.81728 232.964 2.99888 231.894 2.42934 230.691C1.85979 229.487 1.55205 228.176 1.52637 226.845Z" fill="#171717"/>
<path d="M111.602 231.928L111.799 232.124C111.24 232.867 110.536 233.49 109.729 233.955L111.602 231.928Z" fill="#141414"/>
<path d="M112.554 225.903L112.719 226.217C112.798 226.877 112.515 227.505 112.546 228.165C112.467 228.079 112.318 227.977 112.326 227.898C112.275 227.225 112.353 226.548 112.554 225.903Z" fill="#141414"/>
<path d="M112.735 226.099C112.673 225.514 112.734 224.923 112.916 224.363C113.006 224.948 112.944 225.546 112.735 226.099Z" fill="#141414"/>
<path d="M1.70736 218.37C1.58736 218.17 1.52393 217.942 1.52393 217.71C1.52393 217.477 1.58736 217.249 1.70736 217.05V218.37Z" fill="#171717"/>
<path d="M1.89609 226.657H1.70728V225.871C1.85453 226.106 1.92085 226.382 1.89609 226.657Z" fill="#101010"/>
<path d="M113.301 225.903C113.328 226.177 113.265 226.453 113.12 226.688C113.093 226.414 113.157 226.138 113.301 225.903Z" fill="#141414"/>
<path d="M112.727 231.535H112.672L112.751 231.425L112.806 231.464L112.727 231.535Z" fill="#141414"/>
<path d="M111.043 9.80342C110.658 9.15898 110.224 8.5445 109.745 7.96526C108.175 6.33802 106.035 5.38089 103.774 5.29449C102.2 5.16357 100.627 5.0981 99.0532 5.0981H69.6992C68.9443 5.0917 68.1899 5.1363 67.4412 5.23163C66.6715 5.3118 65.9341 5.58218 65.2953 6.01831C64.6566 6.45444 64.1368 7.04258 63.7828 7.72961C63.5074 8.2245 63.2793 8.74295 62.996 9.25354C62.6079 10.0796 62.075 10.8298 61.4225 11.4687C60.81 12.0627 60.0709 12.5107 59.2606 12.7793C58.4502 13.0479 57.5895 13.1302 56.7429 13.0199C55.8962 12.9096 55.0855 12.6096 54.3713 12.1424C53.6572 11.6752 53.058 11.0528 52.6186 10.3219C52.2239 9.71692 51.8892 9.07498 51.6194 8.40516C51.2291 7.38213 50.5218 6.51034 49.6005 5.91686C48.6791 5.32338 47.592 5.03929 46.4976 5.10597C42.6582 5.10597 38.8188 5.10597 34.9794 5.10597H14.681C14.1224 5.10597 13.5559 5.10593 12.9895 5.16091C12.8479 5.22375 12.7141 5.24736 12.6119 5.0981C12.9936 4.94582 13.4069 4.88917 13.8156 4.93313H18.8115C18.9379 4.77223 19.1056 4.64857 19.2968 4.57526C19.488 4.50195 19.6955 4.48176 19.8973 4.51682C26.1363 4.51682 32.3752 4.44612 38.6142 4.51682C39.2023 4.48165 39.7926 4.50266 40.3767 4.57963C36.3957 4.47751 32.3674 4.13975 28.3313 4.01407C24.0356 3.88053 19.732 3.96692 15.452 3.55058C13.2106 3.38297 10.9582 3.42772 8.7252 3.68416C7.42705 3.80984 7.34837 3.68412 7.73388 2.46655C7.76906 2.34599 7.76906 2.21793 7.73388 2.09737C7.87279 2.02673 8.02122 1.97646 8.17451 1.94812C8.52855 1.94812 8.8669 1.94813 8.60727 2.45087C8.34764 2.95361 8.60721 3.00071 8.93765 3.00857C9.50329 3.0518 10.0714 3.0518 10.6371 3.00857C12.5423 2.78472 14.4673 2.78472 16.3726 3.00857C16.6844 3.02831 16.997 3.02831 17.3088 3.00857C18.8823 3.00857 20.5266 2.93787 22.1238 3.00857C26.0576 3.22066 29.9914 3.00858 33.9252 3.22068C37.2453 3.36993 40.5733 3.36994 43.9013 3.38565C47.2293 3.40136 50.6832 3.56631 54.0741 3.61344C55.7683 3.52732 57.4669 3.62211 59.1409 3.89622C59.4505 3.94487 59.7645 3.95803 60.0771 3.93549C62.623 3.89346 65.1692 4.00889 67.7009 4.28112C68.2957 4.31258 68.8919 4.31258 69.4868 4.28112C71.8471 4.28112 74.2074 4.28112 76.5677 4.28112C80.4385 4.35968 84.3015 4.06903 88.1645 4.03761C90.926 4.03761 93.6718 3.94335 96.4569 3.7941C97.7078 3.7234 98.9588 3.6213 100.21 3.56631C101.523 3.54693 102.836 3.60202 104.144 3.73129C105.079 3.82345 106.002 4.01299 106.897 4.29685C107.451 4.44179 107.965 4.71038 108.4 5.08238C108.543 5.20307 108.699 5.3084 108.864 5.39661C108.954 5.46355 109.063 5.49969 109.175 5.49969C109.287 5.49969 109.396 5.46355 109.486 5.39661C109.581 5.31412 109.647 5.20243 109.673 5.07888C109.698 4.95532 109.682 4.8268 109.627 4.7132C109.492 4.35792 109.271 4.04194 108.982 3.7941L107.629 2.40374C107.904 2.16808 108.062 2.3409 108.227 2.40374C108.439 2.68135 108.707 2.91147 109.014 3.07929C109.879 3.73112 110.572 4.58262 111.035 5.56082C111.499 6.53902 111.717 7.61472 111.673 8.6958C111.634 9.21425 111.571 9.64632 111.043 9.80342Z" fill="#292929"/>
<path d="M7.74964 2.08167C8.10369 2.1288 8.27678 2.23878 8.04862 2.63155C7.67884 3.26783 7.78119 3.48777 8.51288 3.41708C10.0392 3.18142 11.5891 3.33066 13.1154 3.11857C13.5827 3.05577 14.0563 3.05577 14.5236 3.11857C16.2747 3.29656 18.0364 3.34907 19.795 3.27569C20.5188 3.27569 21.2269 3.38565 21.9507 3.40921C23.3669 3.40921 24.7831 3.33067 26.1914 3.47207C28.3235 3.69202 30.4714 3.51922 32.5956 3.68418C34.7199 3.84914 36.8598 3.88055 38.9841 4.16334C39.9199 4.24707 40.8498 4.38607 41.7692 4.57965C41.9187 4.57965 42.0839 4.57965 42.1783 4.77603C42.0996 5.0274 41.8715 4.95673 41.7063 4.95673H18.8902C18.7756 4.76774 18.6171 4.60907 18.4282 4.49421C18.2392 4.37935 18.0252 4.31166 17.8045 4.29687C14.4922 3.84911 11.1799 3.51134 7.86768 4.29687C7.71461 4.33395 7.55968 4.36278 7.40352 4.38326C7.18322 4.38326 6.94719 4.38327 6.80557 4.19474C6.66395 4.00622 6.80558 3.72343 6.91573 3.51134C7.02587 3.29924 7.12809 3.19711 7.24611 3.05572C7.58441 2.64724 7.42714 2.37233 7.03376 2.15238L7.74964 2.08167Z" fill="#232323"/>
<path d="M1.51848 84.9787H1.33745C1.33745 60.8158 1.33745 36.6555 1.33745 12.4978C1.28426 10.4496 1.66221 8.41314 2.44681 6.51995C3.04365 5.271 3.90228 4.16463 4.9645 3.2757C5.03088 3.20765 5.1185 3.1643 5.21295 3.15287C5.30741 3.14144 5.40294 3.1626 5.48369 3.21285C4.50362 3.97431 3.6837 4.92134 3.07078 5.9997C2.45785 7.07805 2.06403 8.26653 1.91186 9.49709C1.73267 10.5343 1.66147 11.5873 1.69942 12.6392C1.58463 12.9967 1.55501 13.3759 1.61289 13.7468C1.61289 37.1242 1.61289 60.5016 1.61289 83.879C1.67486 84.2476 1.64239 84.626 1.51848 84.9787Z" fill="#262626"/>
<path d="M12.6591 5.06668L13.0368 5.12953C12.4682 5.29797 11.8705 5.34613 11.2822 5.27092C11.7261 5.12482 12.1918 5.05573 12.6591 5.06668Z" fill="#DEDEDE"/>
<path d="M114.183 79.8335V159.243C113.876 159.133 113.907 158.921 113.892 158.748C113.892 158.402 113.892 158.057 113.892 157.711C113.892 132.165 113.892 106.617 113.892 81.0667C113.825 80.6451 113.862 80.2135 114.002 79.8099L114.183 79.8335Z" fill="#141414"/>
<path d="M113.687 203.295C113.687 207.055 113.687 210.821 113.687 214.591C113.494 214.124 113.432 213.614 113.506 213.114V160.649C113.506 154.815 113.506 148.976 113.506 143.131C113.451 142.783 113.514 142.426 113.687 142.118V203.295Z" fill="#313131"/>
<path d="M113.498 93.6431V25.3019C113.667 25.5767 113.731 25.9029 113.679 26.221V92.2527C113.747 92.724 113.684 93.2047 113.498 93.6431Z" fill="#353535"/>
<path d="M113.12 9.80343L112.743 7.926C112.482 7.86904 112.242 7.74248 112.048 7.55984C111.854 7.3772 111.714 7.14536 111.641 6.88909C111.218 5.57302 110.436 4.40064 109.383 3.50346C109.194 3.30707 108.848 3.22069 108.958 2.84364H109.171C110.351 2.68653 110.744 3.62916 111.224 4.35971L111.413 4.54036C111.532 4.8952 111.71 5.22726 111.94 5.52228C112.614 6.53569 113.07 7.67796 113.278 8.87651C113.301 9.18286 113.474 9.53635 113.12 9.80343Z" fill="#292929"/>
<path d="M114.159 160.806C114.159 160.877 114.159 160.924 114.073 160.924C114.059 160.921 114.047 160.915 114.036 160.907C114.025 160.899 114.016 160.889 114.01 160.877C114.004 160.863 114.003 160.848 114.004 160.834C114.006 160.819 114.012 160.806 114.02 160.794C114.029 160.782 114.04 160.773 114.054 160.767C114.067 160.76 114.082 160.758 114.096 160.759C114.096 160.759 114.135 160.79 114.159 160.806Z" fill="#141414"/>
<path d="M115.583 87.2174C115.583 87.4609 115.677 87.7516 115.331 87.8223C115.205 87.8223 115.08 87.7201 115.08 87.5944C115.08 87.2095 115.363 87.2567 115.599 87.2253L115.583 87.2174Z" fill="#737373"/>
<path d="M115.017 45.6315L115.583 45.4037C115.583 45.8279 115.418 45.9771 115.017 45.7572C115.024 45.7157 115.024 45.673 115.017 45.6315Z" fill="#B3B3B3"/>
<path d="M108.959 2.84364C110.105 3.58341 111.055 4.58857 111.728 5.77365C112.066 6.48849 112.381 7.20331 112.711 7.926C112.176 9.33277 112.026 10.8569 112.279 12.3407C112.349 12.7118 112.349 13.0929 112.279 13.464C112.115 14.6479 112.065 15.8448 112.129 17.0382C112.129 85.2222 112.129 153.409 112.129 221.598C112.204 222.098 112.142 222.608 111.948 223.075C111.358 222.564 111.634 221.904 111.626 221.284C111.586 219.077 111.846 216.861 111.382 214.678C111.472 213.649 111.504 212.615 111.476 211.583C111.437 210.579 111.492 209.575 111.641 208.582C111.838 207.631 111.272 206.736 111.374 205.785C111.374 203.947 111.925 202.117 111.429 200.287C111.673 193.657 111.689 187.027 111.665 180.397C111.665 179.667 111.232 179.007 111.382 178.268C111.46 177.551 111.492 176.829 111.476 176.108C111.476 169.038 111.421 162.047 111.476 155.024C111.523 150.146 111.61 145.276 111.539 140.406C111.382 129.628 111.539 118.851 111.468 108.065C111.468 103.721 111.468 99.3775 111.547 95.0335C111.681 90.4538 111.759 85.8821 111.838 81.3024C111.822 81.1479 111.852 80.9921 111.925 80.8547C111.925 78.4981 111.925 76.0865 111.925 73.6984C111.925 57.4641 111.938 41.2299 111.964 24.9956C111.964 22.7699 111.964 20.5416 111.964 18.3107C111.964 15.4357 111.964 12.5449 110.957 9.7877C111.164 8.65169 111.085 7.48196 110.725 6.38457C110.365 5.28717 109.736 4.29684 108.896 3.50346C108.597 3.18925 108.219 2.93002 108.109 2.46655L108.959 2.84364Z" fill="#171717"/>
<path d="M103.86 3.41707C88.6129 3.41707 73.3655 3.49564 58.1181 3.37781C52.3983 3.33067 46.6785 3.37781 40.9745 3.18142C36.8834 3.03217 32.8001 3.23639 28.7247 3.00858C25.1685 2.80434 21.6438 3.00858 18.0798 2.8122C15.5307 2.65509 12.9895 2.72579 10.4483 2.66295C9.59856 2.66295 9.59856 2.66295 9.6615 1.72816C9.74018 1.46108 9.98402 1.39825 10.1964 1.29613C10.2986 1.28846 10.4012 1.28846 10.5033 1.29613C10.6437 1.27484 10.7871 1.28496 10.9232 1.32571C11.0592 1.36647 11.1845 1.43682 11.2901 1.53178C11.3796 1.6588 11.4971 1.76376 11.6334 1.83863C11.7697 1.9135 11.9214 1.95634 12.0768 1.96386C13.785 2.15747 15.5032 2.24926 17.2223 2.23878C23.2961 2.18379 29.362 2.35661 35.4279 2.48229C40.7464 2.59226 46.0649 2.48228 51.3756 2.61582C66.7253 3.00858 82.0592 2.68651 97.4325 2.80434C99.2219 2.99932 101.024 3.05712 102.822 2.97718C103.145 2.95708 103.469 2.9889 103.782 3.07144C103.873 3.12442 103.943 3.20786 103.978 3.30709L103.86 3.41707Z" fill="#3F3F3F"/>
<path d="M8.97705 1.359H9.26027C9.48843 1.01337 9.84245 0.981952 10.2201 0.91911C11.8342 0.704482 13.4619 0.607348 15.0902 0.628467C23.3748 0.628467 31.6672 0.557769 39.9597 0.628467C42.5009 0.628467 45.0421 0.628473 47.5834 0.68346C47.8988 0.660917 48.2155 0.706449 48.5118 0.816987C48.5957 0.856718 48.6697 0.914757 48.7282 0.986808C48.7868 1.05886 48.8284 1.14306 48.85 1.23329C48.85 1.83815 48.4095 1.89315 47.9296 1.8853C43.0674 1.8853 38.2052 1.57107 33.343 1.62606C32.0527 1.62606 30.786 2.08169 29.48 1.89316C26.2621 1.66536 23.0444 1.36685 19.8186 1.89316C19.2165 1.94421 18.6111 1.94421 18.009 1.89316C16.0474 1.72034 14.0858 1.63655 12.1241 1.64178C11.4711 1.64178 10.8574 1.24903 10.1965 1.50826C9.77949 1.5711 9.33109 1.84603 8.97705 1.359Z" fill="#D7D7D7"/>
<path d="M48.5275 0.966245C46.0492 0.966245 43.563 0.966264 41.0847 0.887711C32.4303 0.714895 23.8547 0.746279 15.2475 0.801267C13.2384 0.742105 11.2292 0.916113 9.26026 1.31974L8.74097 0.997649C9.27457 0.751027 9.85266 0.614745 10.4404 0.597021C11.2272 0.871957 12.0139 0.47922 12.8007 0.47922H47.9059C48.1248 0.444857 48.349 0.47487 48.551 0.565617L48.6298 0.628473C48.6586 0.687267 48.664 0.75477 48.6451 0.817424C48.6261 0.880078 48.5841 0.933237 48.5275 0.966245Z" fill="#5C5C5C"/>
<path d="M48.5197 0.565571H14.4529C13.5433 0.527707 12.6322 0.572391 11.7307 0.699097C11.3019 0.824129 10.8418 0.78495 10.4404 0.58916L10.7709 0.54203C23.0208 0.15712 35.2864 0.479185 47.5362 0.392777C47.8667 0.392777 48.2364 0.274924 48.5197 0.565571Z" fill="#D8D8D8"/>
<path d="M107.629 1.90102L106.913 2.22307C107.086 2.67082 107.566 2.7808 107.818 3.11072C108.07 3.44064 108.243 3.54276 108.038 3.84912C107.959 4.00346 107.824 4.12228 107.66 4.18195C107.497 4.24162 107.317 4.23779 107.157 4.17121C106.464 3.89171 105.74 3.69649 105.001 3.58988C104.971 3.55795 104.948 3.51916 104.936 3.47678C104.924 3.43439 104.922 3.38965 104.93 3.34637C104.985 3.23639 105.048 3.11075 105.182 3.09504C105.772 3.00078 106.11 2.77297 105.812 2.10527C105.756 1.99529 105.812 1.86958 105.953 1.78317C106.291 1.63392 106.685 1.90103 107.015 1.66537C107.275 1.60253 107.448 1.75962 107.629 1.90102Z" fill="#505050"/>
<path d="M111.224 4.34399C110.532 3.84125 110.044 3.08715 109.171 2.82793C108.841 2.35661 108.227 2.28591 107.833 1.89314C107.896 1.81459 107.959 1.81459 108.022 1.89314C108.564 2.10151 109.09 2.34827 109.596 2.63154C110.43 2.74152 110.768 3.41706 111.256 3.9905L111.224 4.34399Z" fill="#171717"/>
<path d="M8.97687 1.35895C9.35452 1.64174 9.76358 1.41394 10.2042 1.51606C10.0368 1.63184 9.84094 1.69975 9.63772 1.71245H8.44971C8.54412 1.37467 8.78018 1.41393 8.97687 1.35895Z" fill="#585858"/>
<path d="M108.022 1.88525H107.629L107.039 1.71246C106.921 1.79101 106.803 1.80673 106.708 1.67319C107.204 1.40611 107.613 1.6653 108.022 1.88525Z" fill="#292929"/>
<path d="M104.993 3.41706C104.997 3.47984 104.997 3.5428 104.993 3.60558C104.605 3.65205 104.212 3.58664 103.86 3.41706C103.972 3.29761 104.117 3.21376 104.277 3.17604C104.436 3.13832 104.603 3.14837 104.757 3.20495C104.855 3.25058 104.937 3.32445 104.993 3.41706Z" fill="#3F3F3F"/>
<path d="M66.4734 0.369202H97.9439H101.524C102.578 0.58915 103.664 0.447749 104.671 0.706974C105.034 0.78084 105.392 0.8806 105.741 1.00548C105.212 1.02289 104.684 0.975408 104.167 0.86409C102.861 0.715979 101.546 0.668713 100.233 0.7227H77.3308L67.2523 0.683433C67.032 0.683433 66.8118 0.68342 66.5915 0.620577C66.5608 0.629007 66.5283 0.627467 66.4986 0.616166C66.4689 0.604865 66.4435 0.584378 66.4263 0.557721L66.4734 0.369202Z" fill="#C5C5C5"/>
<path d="M66.4735 0.57341C66.5307 0.588093 66.5861 0.609187 66.6386 0.636266V0.926909C66.6228 1.13875 66.537 1.33934 66.3946 1.49717C66.2522 1.655 66.0613 1.76111 65.8519 1.79884C62.1174 1.79884 58.3803 1.79884 54.6405 1.79884C53.8357 1.67984 53.0194 1.65872 52.2095 1.73598C51.4227 1.73598 50.636 1.83024 49.7863 1.73598C49.5694 1.75094 49.353 1.69956 49.1661 1.58869C48.9791 1.47783 48.8305 1.31277 48.7398 1.11543L48.551 0.926909L48.6219 0.589136C48.795 0.589136 48.9759 0.699112 49.1332 0.542006C50.3141 0.396642 51.5085 0.396642 52.6894 0.542006H53.1143C53.4128 0.441354 53.7314 0.414373 54.0427 0.463425H65.018C65.3248 0.463425 65.6474 0.369165 65.9306 0.565547C66.2139 0.76193 66.2925 0.659819 66.4735 0.57341Z" fill="#0E0E0E"/>
<path d="M65.9069 0.589201H58.4248C56.6468 0.589201 54.8687 0.589201 53.0906 0.589201C53.2479 0.384963 53.4761 0.408496 53.6964 0.408496C57.4886 0.408496 61.2886 0.408496 65.0808 0.408496C65.3562 0.392786 65.7102 0.220002 65.9069 0.589201Z" fill="white"/>
<path d="M52.6658 0.557752H49.1096C49.8177 0.149276 50.5966 0.416379 51.3361 0.384958C51.7688 0.392813 52.2645 0.188552 52.6658 0.557752Z" fill="white"/>
<path d="M106.708 1.68888L107.039 1.72815C106.708 1.97952 106.315 1.86957 105.945 1.90099C105.851 2.76507 105.434 2.9693 104.529 2.9693C101.744 2.9693 98.9588 2.85935 96.1816 2.8515C82.6571 2.8515 69.1406 2.92219 55.624 2.7965C50.0616 2.74937 44.4993 2.67867 38.9447 2.64725C38.692 2.67953 38.4353 2.63862 38.2052 2.5294C38.162 2.48535 38.1377 2.42611 38.1377 2.36442C38.1377 2.30274 38.162 2.24354 38.2052 2.19949C39.3501 1.9195 40.5284 1.80051 41.7063 1.84599C44.5543 1.75173 47.4024 1.90884 50.2426 1.84599C50.6818 1.84747 51.1206 1.82125 51.5565 1.76746C53.0278 2.16808 54.5069 1.84599 55.986 1.83813C64.5617 1.83813 73.1373 2.19161 81.7209 2.02665C87.7553 1.90882 93.7898 1.7753 99.8164 1.85386C100.469 1.82663 101.104 1.63765 101.665 1.30398C103.277 1.25363 104.889 1.40137 106.465 1.74387L106.708 1.68888Z" fill="#898989"/>
<path d="M106.465 1.70457C104.911 1.55666 103.351 1.4911 101.791 1.50819C98.7542 2.07377 95.6858 1.75954 92.6332 1.78311C85.2927 1.83024 77.9444 1.78311 70.6039 1.78311C69.4395 1.78311 68.2909 1.91666 67.1265 1.94022C66.6702 1.94022 66.0801 2.05805 65.9385 1.35108C66.2453 1.35108 66.4262 1.07615 66.6622 0.919043H71.0996H99.0375C100.233 0.919043 101.437 0.856201 102.625 0.919043C103.943 0.936175 105.246 1.20273 106.465 1.70457Z" fill="#DBDBDB"/>
<path d="M111.232 3.98258C110.728 3.4727 110.172 3.01722 109.572 2.62362C109.785 2.4351 109.966 2.55294 110.131 2.68648C110.438 2.93785 110.721 3.19707 111.02 3.47201L111.232 3.98258Z" fill="white"/>
<path d="M1.51849 84.9787C1.51849 61.4128 1.51849 37.8206 1.51849 14.2023C1.44006 13.6719 1.50245 13.1301 1.69943 12.6313V153.178C1.50655 152.714 1.44401 152.206 1.51849 151.709C1.51849 140.916 1.51849 130.123 1.51849 119.33V84.9787Z" fill="#171717"/>
<path d="M112.625 76.2436C112.994 77.0291 113.002 134.334 112.766 135.158C112.719 135.041 112.766 135.221 112.68 135.158C112.593 135.096 112.617 135.103 112.617 135.08C112.483 115.654 112.578 96.2196 112.562 76.7934C112.572 76.609 112.593 76.4254 112.625 76.2436Z" fill="#383838"/>
<path d="M111.806 224.772C111.759 224.421 111.814 224.064 111.964 223.743C112.019 224.094 111.964 224.453 111.806 224.772Z" fill="#141414"/>
<path d="M103.302 232.093C103.545 231.971 103.819 231.924 104.089 231.959C103.851 232.098 103.572 232.146 103.302 232.093Z" fill="#C1C1C1"/>
<path d="M9.14992 68.0741C9.14992 68.1212 9.14995 68.2076 9.07914 68.2233C9.05823 68.2334 9.03523 68.2385 9.01201 68.2382C8.98879 68.2378 8.96597 68.2321 8.94536 68.2214C8.92474 68.2107 8.90686 68.1954 8.89321 68.1767C8.87955 68.1579 8.8705 68.1362 8.8667 68.1134C8.86708 68.0572 8.88968 68.0036 8.92961 67.9641C9.03188 67.9248 9.10272 67.972 9.14992 68.0741Z" fill="#DEDEDE"/>
<path d="M57.5436 5.43589C57.8263 5.42736 58.1078 5.47613 58.3712 5.57929C58.6345 5.68246 58.8742 5.83788 59.0757 6.03611C59.2772 6.23435 59.4364 6.47133 59.5435 6.73271C59.6507 6.99408 59.7037 7.27443 59.6993 7.55683C59.7047 7.84746 59.6511 8.13613 59.5417 8.40551C59.4323 8.67488 59.2695 8.91935 59.0629 9.12415C58.8563 9.32896 58.6103 9.48989 58.3397 9.59718C58.0691 9.70447 57.7796 9.75592 57.4886 9.74844C56.9181 9.72809 56.3777 9.48742 55.9814 9.07712C55.5851 8.66682 55.3639 8.11895 55.3643 7.54897C55.3673 7.26703 55.4262 6.98849 55.5376 6.7294C55.649 6.47031 55.8107 6.2358 56.0133 6.03937C56.2159 5.84295 56.4554 5.68848 56.718 5.5849C56.9807 5.48133 57.2613 5.43069 57.5436 5.43589Z" fill="#C7C7C7"/>
<path d="M38.1579 2.45873C42.1547 2.45873 46.1435 2.40374 50.1403 2.45873C66.5206 2.81222 82.901 2.55297 99.2892 2.63152C99.729 2.63428 100.168 2.66841 100.603 2.73364C100.91 2.80279 101.226 2.82137 101.539 2.78864C102.598 2.64737 103.666 2.59218 104.734 2.62366C105.08 2.62366 105.434 2.62368 105.418 2.10523C105.418 1.79887 105.741 1.89311 105.945 1.8774C106.181 2.30944 106.685 2.45871 106.968 2.83577C107.149 3.07143 107.094 3.29921 106.771 3.25994C106.166 3.17353 105.591 3.42492 104.993 3.37778H104.804C104.521 3.14998 104.144 3.37775 103.86 3.19708H102.916C101.555 3.09109 100.189 3.05963 98.8251 3.10282C98.3619 3.15294 97.8936 3.12373 97.4403 3.01642C83.4753 3.01642 69.5103 3.11853 55.5532 2.95357C49.3299 2.88287 43.0988 3.01643 36.8834 2.77291C32.8552 2.61581 28.8349 2.82006 24.8145 2.59225C21.1089 2.38802 17.4032 2.5294 13.6976 2.43514C12.9108 2.43514 12.1241 2.30161 11.3373 2.25448C10.818 2.25448 11.1642 1.72029 10.936 1.53176C12.408 1.31187 13.9073 1.35177 15.3655 1.64961C16.664 1.87339 17.9836 1.94979 19.2993 1.8774C21.9979 1.8774 24.6886 1.97954 27.3794 2.10523C30.5264 2.26234 33.7127 2.15233 36.8834 2.16804C37.3397 2.18375 37.7724 2.08953 38.1579 2.45873Z" fill="#585858"/>
<path d="M38.1579 2.45873C34.5389 2.45873 30.9197 2.59227 27.3085 2.45873C23.6973 2.32519 19.9601 2.39587 16.2938 2.29375C15.6644 2.29375 15.043 2.16808 14.4136 2.10523C14.3664 1.86172 14.6574 1.94812 14.6732 1.80673C14.6889 1.66533 14.4843 1.57889 14.3427 1.57889C13.2176 1.57889 12.0847 1.57889 10.9518 1.57889L10.165 1.53176C10.484 1.40235 10.8287 1.34861 11.172 1.3747H17.9225C20.0153 1.55537 22.1238 1.37468 24.2166 1.45323C24.7516 1.45323 25.2866 1.45323 25.7901 1.45323C26.034 1.45323 26.4431 1.30399 26.4273 1.7596C26.4116 2.21521 26.0575 2.00311 25.8294 2.00311C25.2944 2.00311 24.7594 2.00311 24.2559 2.00311C28.7297 1.77924 33.2121 1.77924 37.6859 2.00311C37.7726 2.01222 37.8563 2.04013 37.931 2.08491C38.0058 2.12968 38.0697 2.19026 38.1186 2.26235C38.15 2.33305 38.1579 2.39589 38.1579 2.45873Z" fill="#6E6E6E"/>
<path d="M97.4402 3.03214H101.83C102.203 2.99213 102.579 3.05745 102.916 3.22066H98.6282C98.2225 3.26131 97.8132 3.19637 97.4402 3.03214Z" fill="#505050"/>
<path d="M103.86 3.22067C104.186 3.17722 104.518 3.24061 104.804 3.40133H103.86C103.86 3.33849 103.86 3.27566 103.86 3.22067Z" fill="#505050"/>
<path d="M38.15 2.27016H37.7724C37.2216 2.01879 36.6001 2.34088 35.892 1.99525C36.6787 1.48465 37.4655 1.83026 38.3545 1.62602C35.7165 1.87896 33.065 1.96293 30.4162 1.8774C30.007 1.8774 29.4956 2.03451 29.4641 1.34324H45.9861C46.643 1.31337 47.3013 1.34227 47.953 1.42964C48.2441 1.48463 48.5273 1.4925 48.669 1.15472C49.3326 1.31673 50.0182 1.3698 50.6989 1.31184H52.0914C52.4855 1.38509 52.8869 1.41144 53.2872 1.39037C53.4761 1.39037 53.7672 1.28828 53.7829 1.61035C53.7986 1.93241 53.5627 1.97955 53.3424 2.01097C52.7283 2.02556 52.117 2.0992 51.517 2.2309L38.15 2.27016Z" fill="#9C9C9C"/>
<path d="M29.472 1.34326C29.853 1.49853 30.2664 1.5579 30.6758 1.5161H38.7873C39.1791 1.45849 39.5787 1.53606 39.9202 1.73603C39.3368 1.88088 38.7338 1.93128 38.1343 1.88528C37.6087 1.8818 37.0834 1.90805 36.5608 1.96386C36.9699 2.12097 37.442 2.00314 37.8196 2.26237C34.83 2.26237 31.8481 2.34878 28.8663 2.26237C27.0253 2.18381 25.1764 2.1445 23.359 1.92455H26.3407C26.2525 1.77158 26.1152 1.65276 25.9511 1.58721C25.787 1.52165 25.6055 1.51321 25.4359 1.56323H19.2127C18.8065 1.61268 18.3944 1.55582 18.0168 1.39825L29.472 1.34326Z" fill="#898989"/>
<path d="M51.5642 2.27019C52.1464 1.89313 52.886 2.00313 53.6491 1.6575C53.0512 1.42969 52.5476 1.65749 52.1385 1.35113H60.1163C62.0517 1.35113 63.9872 1.35113 65.9305 1.35113C66.4975 1.54529 67.107 1.58061 67.6928 1.45325C68.3787 1.36314 69.0703 1.32374 69.762 1.3354H100.312C100.811 1.26804 101.319 1.32472 101.791 1.50038C101.217 2.28591 101.217 2.28591 100.217 2.28591C96.5984 2.28591 92.9792 2.19165 89.3759 2.28591C82.5861 2.52943 75.7964 2.52155 69.0145 2.41158C63.1846 2.32517 57.3784 2.29375 51.5642 2.27019Z" fill="#A8A8A8"/>
<path d="M58.5429 7.66677C58.556 7.94794 58.4591 8.22322 58.2726 8.43432C58.0862 8.64543 57.8247 8.77581 57.5437 8.79794C57.2605 8.78187 56.9943 8.65816 56.7997 8.45216C56.605 8.24616 56.4969 7.97354 56.4973 7.69036C56.4963 7.4247 56.5951 7.16833 56.7743 6.97195C56.9535 6.77558 57.2 6.65353 57.465 6.62991C57.6058 6.61993 57.7471 6.63955 57.8797 6.68759C58.0124 6.73563 58.1334 6.81099 58.2351 6.90876C58.3367 7.00653 58.4167 7.12453 58.4697 7.25512C58.5227 7.3857 58.5476 7.52594 58.5429 7.66677Z" fill="#8E8E8E"/>
<path d="M112.09 14.3595C112.074 14.6395 112.074 14.9201 112.09 15.2001V80.3991L112.043 81.5931C112.046 81.6375 112.046 81.6822 112.043 81.7266C112.043 82.6143 112.043 83.5019 112.043 84.3817C112.043 110.639 112.043 136.9 112.043 163.163C112.043 167.876 112.043 172.589 112.043 177.302C112.043 177.616 112.043 177.931 112.043 178.245C112.043 179.816 112.043 181.426 112.043 183.021C112.043 188.499 112.043 193.974 112.043 199.446C112.043 199.721 112.043 200.004 111.995 200.287C112.066 202.101 112.074 203.924 111.995 205.785C112.058 208.739 112.058 211.693 111.995 214.646C111.555 217.003 111.759 219.359 111.634 221.677C111.618 223.138 111.507 224.597 111.303 226.044C111.154 226.83 110.87 227.403 109.958 227.537L110.162 228.456C110.269 228.418 110.38 228.397 110.493 228.393C109.961 229.397 109.138 230.219 108.133 230.75C106.931 231.497 105.558 231.924 104.144 231.991C103.884 232.116 103.585 231.991 103.357 232.124H102.57C102.344 231.946 102.07 231.837 101.783 231.81C100.312 231.81 98.833 231.551 97.3853 231.975C97.0189 232.069 96.6345 232.069 96.2681 231.975C95.1764 231.651 94.0109 231.673 92.9322 232.038C92.6263 232.114 92.3099 232.137 91.996 232.109H88.1251C87.6229 232.149 87.1184 232.068 86.6539 231.873C86.4939 231.803 86.3211 231.767 86.1464 231.767C85.9718 231.767 85.799 231.803 85.639 231.873C85.1014 232.05 84.5366 232.13 83.971 232.109H71.9021C71.4327 232.142 70.9611 232.092 70.5096 231.959C70.204 231.869 69.8789 231.869 69.5734 231.959C67.9889 232.214 66.377 232.254 64.7819 232.077C63.8929 232.022 62.9803 231.944 62.0913 231.818C61.41 231.67 60.7 231.731 60.0535 231.991C59.5729 232.14 59.0667 232.188 58.5666 232.132C58.4795 231.945 58.3347 231.791 58.1535 231.692C57.9723 231.593 57.7642 231.555 57.5595 231.582C54.6746 231.476 51.7861 231.516 48.9051 231.7C48.783 231.723 48.6576 231.723 48.5354 231.7C47.1271 231.292 45.6558 231.457 44.2317 231.244C43.8242 231.2 43.4144 231.179 43.0044 231.182C42.0131 231.182 41.006 231.394 40.0147 231.056C39.8595 231.023 39.6993 231.023 39.5438 231.054C39.3883 231.085 39.2406 231.147 39.1099 231.237C38.4273 231.575 37.646 231.659 36.907 231.472C36.1942 231.361 35.4725 231.316 34.7513 231.339C32.7423 231.458 30.727 231.416 28.7247 231.213C28.3813 231.171 28.0333 231.184 27.694 231.252C26.5713 231.388 25.4375 231.407 24.311 231.307C22.1542 231.119 19.9849 231.119 17.8281 231.307C17.5146 231.347 17.1974 231.347 16.8839 231.307C15.5803 231.108 14.2538 231.108 12.9501 231.307C12.0396 231.378 11.1242 231.263 10.2595 230.97C8.83854 230.734 7.49189 230.172 6.32566 229.328C5.69472 228.765 5.14168 228.12 4.68126 227.411C4.42698 226.976 4.09037 226.594 3.69003 226.288C3.33526 225.213 3.15721 224.088 3.16287 222.957C3.02125 217.411 3.06845 211.865 3.16287 206.312L4.53182 204.953C4.37639 204.781 4.26082 204.577 4.19347 204.356C3.83524 203.023 3.61384 201.657 3.53262 200.279C3.35166 198.527 3.53264 196.752 3.16287 195.008C3.09992 191.866 3.09992 188.724 3.16287 185.582C3.09992 184.073 3.09992 182.565 3.16287 181.057C3.16287 180.782 3.12349 180.499 3.12349 180.216V153.642C3.12349 153.359 3.12353 153.076 3.16287 152.794C3.16287 152.008 3.12349 151.222 3.12349 150.437V77.257C3.12349 58.7446 3.12349 40.2297 3.12349 21.7121C3.12349 19.544 3.12349 17.376 3.12349 15.2158C3.08303 13.6091 3.35006 12.0094 3.91025 10.5026C3.98106 10.1962 4.04401 9.88985 4.11481 9.58349C4.62621 8.95507 4.97244 8.22455 5.54677 7.64326C6.76944 6.43979 8.34706 5.66046 10.047 5.42019C10.4955 5.34949 10.9282 5.06671 11.4081 5.23167C11.9982 5.03529 12.6512 5.2945 13.2177 4.97243C19.5983 4.87817 25.971 4.69749 32.3517 4.76819C35.4358 4.76819 38.5199 4.86245 41.5961 4.76819C43.1696 4.69749 44.7982 4.62681 46.3953 4.64253C49.0388 4.64253 51.116 5.63232 52.1781 8.201C52.6335 9.34393 53.3376 10.3715 54.2394 11.2095C54.76 11.6801 55.3711 12.0397 56.0355 12.2666C56.7 12.4935 57.4037 12.5829 58.1039 12.5292C58.804 12.4756 59.486 12.28 60.1079 11.9545C60.7299 11.629 61.2788 11.1805 61.7214 10.6361C62.2336 10.001 62.6547 9.29779 62.9724 8.54664C63.4005 7.34577 64.2126 6.31896 65.2833 5.62473C66.354 4.93049 67.6239 4.60743 68.8968 4.70538C73.1689 4.77608 77.4409 4.79964 81.713 4.70538C88.0071 4.56399 94.2461 4.65824 100.517 4.65039C102.279 4.61662 104.039 4.77998 105.764 5.13741C106.867 5.34307 107.91 5.78996 108.818 6.44597C109.727 7.10199 110.479 7.95086 111.02 8.93154C111.177 9.22218 111.508 9.4107 111.61 9.75634C112.051 11.2484 112.214 12.8087 112.09 14.3595Z" fill="url(#paint0_linear_151_1578)"/>
<path d="M4.09122 204.356C4.15857 204.577 4.27414 204.781 4.42957 204.953L3.06062 206.312C3.06062 203.421 3.04747 200.525 3.02124 197.624C3.02124 196.752 3.02128 195.88 3.06062 195.008C3.41466 196.752 3.24942 198.527 3.43037 200.279C3.51159 201.657 3.733 203.023 4.09122 204.356Z" fill="#D3D3D3"/>
<path d="M111.972 223.743C111.807 224.065 111.972 224.45 111.807 224.772C111.537 225.983 111.147 227.165 110.642 228.299L110.477 228.354C110.364 228.358 110.253 228.379 110.146 228.417L109.942 227.497C110.855 227.364 111.138 226.822 111.287 226.005C111.491 224.558 111.602 223.099 111.618 221.637C111.744 219.281 111.539 216.924 111.98 214.607C111.98 217.183 111.98 219.76 111.98 222.337C111.98 222.58 111.98 222.831 111.98 223.075C111.914 223.292 111.911 223.524 111.972 223.743Z" fill="#D3D3D3"/>
<path d="M21.1353 115.516V119.676H25.2974V115.516V111.351H21.1353V115.516Z" fill="#1DADCC"/>
<path d="M25.2974 91.7297H21.1353V95.8918H25.2974V91.7297Z" fill="#1DADCC"/>
<path d="M49.6758 135.135H45.5137V139.297H49.6758V135.135Z" fill="#1DADCC"/>
<path d="M25.0606 99.8172V103.743H21.1353V107.663H25.0606V111.588H28.9859H32.9113V115.513H36.8315V111.588H40.7569V107.663V103.743H36.8315V107.663H32.9113H28.9859V103.743V99.8172V95.8918H25.0606V99.8172Z" fill="#1DADCC"/>
<path d="M33.3268 91.7297H29.4595V95.8918H33.3268H37.1892V91.7297H33.3268Z" fill="#1DADCC"/>
<path d="M50.8618 123.243H53.2431V119.676H50.8618H48.4863V123.243H50.8618Z" fill="#1DADCC"/>
<path d="M40.7568 95.8918H37.1892V100.054H40.7568V95.8918Z" fill="#1DADCC"/>
<path d="M68.7027 111.351H64.5405V115.513H68.7027V111.351Z" fill="#1DADCC"/>
<path d="M72.2704 68.5405H68.7029V72.1081H72.2704V68.5405Z" fill="#1DADCC"/>
<path d="M48.6828 99.7568V95.8902H52.6485V92.0237H48.6828V88.1622H44.7223V92.0237H40.7566V95.8902H44.7223V99.7568V103.623V107.485V111.351H48.6828V107.485V103.623H52.6485V99.7568H48.6828Z" fill="#1DADCC"/>
<path d="M68.4054 139.297H72.2703V135.135H68.4054H64.5405V139.297H68.4054Z" fill="#1DADCC"/>
<path d="M64.5407 68.5405H60.9731V72.1081H64.5407V68.5405Z" fill="#1DADCC"/>
<path d="M63.9461 99.6576V95.6936H59.9804V91.7297H56.0147V95.6936V99.6576H52.0542V103.622H56.0147H59.9804V99.6576H63.9461Z" fill="#1DADCC"/>
<path d="M85.9459 91.7297H81.7837V95.8918H85.9459V91.7297Z" fill="#1DADCC"/>
<path d="M44.9189 111.351H41.3513V115.513H44.9189V111.351Z" fill="#1DADCC"/>
<path d="M60.4943 88.1621V84.1473H64.4196V80.1325H68.3449H72.2703V76.1229H68.3449V72.1081H64.4196V76.1229H60.4943V80.1325H56.574V84.1473H52.6487V88.1621H56.574H60.4943Z" fill="#1DADCC"/>
<path d="M60.5749 115.513V111.649H64.5406V107.784H60.5749H56.6144V111.649H52.6487V115.513H56.6144H60.5749Z" fill="#1DADCC"/>
<path d="M72.2702 131.169V127.204H68.4045H64.5388V123.243H60.6731V127.204H56.8125V131.169H52.9468H49.0811V135.135H52.9468H56.8125H60.6731V131.169H64.5388V135.135H68.4045V131.169H72.2702Z" fill="#1DADCC"/>
<path d="M56.8108 72.4054V68.5405H52.8452H48.8795V72.4054H44.9189V76.2703H48.8795H52.8452V72.4054H56.8108Z" fill="#1DADCC"/>
<path d="M56.8108 76.2702H52.6487V79.8378H56.8108V76.2702Z" fill="#1DADCC"/>
<path d="M66.7223 91.8456H62.7566V95.7709V99.6963V103.622H66.7223H70.6879V99.6963H66.7223V95.7709H70.6879V91.8456H74.6485V87.9253H70.6879V84H66.7223V87.9253V91.8456Z" fill="#1DADCC"/>
<path d="M52.6486 79.8378H49.0811V84H52.6486V79.8378Z" fill="#1DADCC"/>
<path d="M64.5405 119.376V123.243H68.5553H72.5702V119.376H76.5798H80.5946V115.513H76.5798H72.5702H68.5553V119.376H64.5405Z" fill="#1DADCC"/>
<path d="M85.9459 103.622H81.7837V107.784H85.9459V103.622Z" fill="#1DADCC"/>
<path d="M72.2704 107.784H68.7029V111.351H72.2704V107.784Z" fill="#1DADCC"/>
<path d="M82.3784 95.8918H78.5135H74.6487V99.7567H78.5135V103.622H82.3784V99.7567V95.8918Z" fill="#1DADCC"/>
<path d="M80.5943 107.784H76.4321V111.351H80.5943V107.784Z" fill="#1DADCC"/>
<path d="M37.3142 131.22H49.0811V115.513H33.3206V119.422H29.4748V123.331H33.3206V127.24H29.4748V131.144H33.3206V131.22H33.3767V135.052H29.4595V142.865H33.3767V138.961H37.2989V131.22H37.3142ZM46.0604 118.529V128.301H36.2598V118.519L46.0604 118.529Z" fill="#1DADCC"/>
<path d="M88.5207 115.513H92.4864V111.351H88.5207H84.5602H80.5945V115.513H84.5602H88.5207Z" fill="#1DADCC"/>
<path d="M88.3245 100.054H92.4866V95.8918V91.7297H88.3245V95.8918V100.054Z" fill="#1DADCC"/>
<path d="M56.811 119.676H53.2434V123.54V127.405H56.811V123.54V119.676Z" fill="#1DADCC"/>
<path d="M96.0539 115.513H92.4863V119.676H96.0539V115.513Z" fill="#1DADCC"/>
<path d="M96.0539 107.484V103.622H92.4863V107.484V111.351H96.0539V107.484Z" fill="#1DADCC"/>
<path d="M25.2974 135.135H21.1353V139V142.865H25.2974V139V135.135Z" fill="#1DADCC"/>
<path d="M96.0537 88.157V68.5405H76.4321V88.1621L96.0537 88.157ZM79.3736 85.2105V71.482H93.1072V85.2105H79.3736Z" fill="#1DADCC"/>
<path d="M90.1081 74.4865H82.3784V82.2162H90.1081V74.4865Z" fill="#1DADCC"/>
<path d="M96.0537 123.243H76.4321V142.865H96.0537V123.243ZM79.3736 139.923V126.185H93.1072V139.923H79.3736Z" fill="#1DADCC"/>
<path d="M90.1081 129.189H82.3784V136.919H90.1081V129.189Z" fill="#1DADCC"/>
<path d="M21.1353 68.5405V88.1621H40.7569V68.5405H21.1353ZM37.8146 71.4871V85.2105H24.0775V71.482L37.8146 71.4871Z" fill="#1DADCC"/>
<path d="M34.8108 74.4865H27.0811V82.2162H34.8108V74.4865Z" fill="#1DADCC"/>
<path d="M15.5107 81.7868V67.9793C15.417 66.7047 15.8211 65.4426 16.6432 64.4428C17.1344 63.9179 17.7398 63.5052 18.4158 63.2344C19.0917 62.9635 19.8214 62.8413 20.5521 62.8766H35.5511C35.6701 62.8766 35.7842 62.8308 35.8684 62.7494C35.9526 62.6679 35.9999 62.5574 35.9999 62.4421C35.9999 62.3269 35.9526 62.2164 35.8684 62.1349C35.7842 62.0534 35.6701 62.0077 35.5511 62.0077H20.7139C19.4588 61.9467 18.2136 62.2511 17.139 62.8817C16.3649 63.3808 15.7295 64.0566 15.289 64.8496C14.8485 65.6425 14.6164 66.5282 14.613 67.4286C14.5713 69.697 14.613 71.9755 14.613 74.249V81.7817C14.613 81.8969 14.6603 82.0075 14.7445 82.0889C14.8287 82.1704 14.9428 82.2162 15.0619 82.2162C15.1809 82.2162 15.2951 82.1704 15.3792 82.0889C15.4634 82.0075 15.5107 81.8969 15.5107 81.7817V81.7868Z" fill="#1E1E1E"/>
<path d="M33.7868 149.704H19.9793C18.7047 149.795 17.4425 149.402 16.4428 148.603C15.9176 148.125 15.5047 147.537 15.2339 146.88C14.963 146.222 14.841 145.513 14.8766 144.802V130.22C14.8766 130.104 14.8308 129.993 14.7494 129.911C14.6679 129.83 14.5574 129.784 14.4421 129.784C14.3269 129.784 14.2164 129.83 14.1349 129.911C14.0534 129.993 14.0077 130.104 14.0077 130.22V144.645C13.9467 145.865 14.2511 147.076 14.8817 148.121C15.3801 148.874 16.0558 149.492 16.8489 149.92C17.642 150.349 18.5281 150.574 19.4286 150.576C21.697 150.617 23.9755 150.576 26.249 150.576H33.7817C33.8969 150.576 34.0075 150.53 34.0889 150.449C34.1704 150.367 34.2162 150.256 34.2162 150.14C34.2162 150.024 34.1704 149.913 34.0889 149.832C34.0075 149.75 33.8969 149.704 33.7817 149.704H33.7868Z" fill="#1E1E1E"/>
<path d="M101.107 130.218V144.021C101.2 145.295 100.808 146.557 100.008 147.557C99.5296 148.082 98.9397 148.495 98.2809 148.767C97.6221 149.038 96.9109 149.162 96.1985 149.128H81.5796C81.4723 149.139 81.3731 149.19 81.3011 149.269C81.2291 149.349 81.1892 149.452 81.1892 149.56C81.1892 149.667 81.2291 149.77 81.3011 149.85C81.3731 149.929 81.4723 149.98 81.5796 149.991H96.0357C97.2593 150.056 98.4741 149.751 99.52 149.118C100.276 148.62 100.896 147.945 101.325 147.152C101.755 146.359 101.98 145.472 101.982 144.572C102.023 142.299 101.982 140.026 101.982 137.754V130.218C101.982 130.103 101.936 129.992 101.854 129.911C101.772 129.829 101.66 129.784 101.544 129.784C101.428 129.784 101.317 129.829 101.235 129.911C101.153 129.992 101.107 130.103 101.107 130.218Z" fill="#1E1E1E"/>
<path d="M82.2178 62.8907H96.0198C97.2929 62.7967 98.5545 63.188 99.5536 63.9867C100.078 64.4642 100.491 65.0527 100.763 65.7098C101.034 66.3669 101.158 67.0764 101.124 67.787V82.3745C101.124 82.4902 101.169 82.6012 101.251 82.683C101.332 82.7648 101.443 82.8108 101.558 82.8108C101.673 82.8108 101.783 82.7648 101.865 82.683C101.946 82.6012 101.992 82.4902 101.992 82.3745V67.9494C102.054 66.729 101.75 65.518 101.119 64.4738C100.62 63.7209 99.9449 63.103 99.1525 62.6747C98.36 62.2463 97.4748 62.0208 96.5751 62.018C94.3034 61.9774 92.0317 62.018 89.7599 62.018H82.2178C82.1027 62.018 81.9923 62.064 81.9109 62.1458C81.8294 62.2277 81.7837 62.3387 81.7837 62.4544C81.7837 62.5701 81.8294 62.6811 81.9109 62.7629C81.9923 62.8448 82.1027 62.8907 82.2178 62.8907Z" fill="#1E1E1E"/>
</g>
<defs>
<filter id="filter0_d_151_1578" x="-4" y="0" width="124" height="246" filterUnits="userSpaceOnUse" color-interpolation-filters="sRGB">
<feFlood flood-opacity="0" result="BackgroundImageFix"/>
<feColorMatrix in="SourceAlpha" type="matrix" values="0 0 0 0 0 0 0 0 0 0 0 0 0 0 0 0 0 0 127 0" result="hardAlpha"/>
<feOffset dy="4"/>
<feGaussianBlur stdDeviation="2"/>
<feComposite in2="hardAlpha" operator="out"/>
<feColorMatrix type="matrix" values="0 0 0 0 0 0 0 0 0 0 0 0 0 0 0 0 0 0 0.25 0"/>
<feBlend mode="normal" in2="BackgroundImageFix" result="effect1_dropShadow_151_1578"/>
<feBlend mode="normal" in="SourceGraphic" in2="effect1_dropShadow_151_1578" result="shape"/>
</filter>
<linearGradient id="paint0_linear_151_1578" x1="57.6018" y1="4.62683" x2="58" y2="319.5" gradientUnits="userSpaceOnUse">
<stop stop-color="#D9D9D9" stop-opacity="0.29"/>
<stop offset="1" stop-color="#676767" stop-opacity="0.05"/>
</linearGradient>
<clipPath id="clip0_151_1578">
<rect width="116" height="238" fill="white"/>
</clipPath>
</defs>
</svg>
