<svg width="23" height="12" viewBox="0 0 23 12" fill="none" xmlns="http://www.w3.org/2000/svg">
<path d="M6.8687 11.7094L21.401 6.30686C21.7497 6.17716 22.064 5.9698 22.32 5.70061C22.5759 5.43142 22.7668 5.10752 22.8779 4.75365C22.989 4.39977 23.0175 4.02527 22.9612 3.65875C22.9049 3.29223 22.7653 2.94337 22.553 2.63882L20.7955 0.119304C20.7602 0.0687766 20.7091 0.0313409 20.6501 0.0128511C20.5911 -0.00563868 20.5277 -0.0041405 20.4697 0.0171123L0.181241 7.56028C0.141633 7.57491 0.105885 7.59834 0.0767355 7.6288C0.0475859 7.65926 0.0257984 7.69594 0.0130195 7.73605C0.000240645 7.77616 -0.00319251 7.81864 0.0029912 7.86027C0.0091749 7.9019 0.0248084 7.94158 0.0487005 7.97628L1.44121 9.99931C2.02452 10.847 2.87572 11.4758 3.85928 11.7857C4.84285 12.0956 5.90222 12.0688 6.8687 11.7094Z" fill="#1E1E1E"/>
</svg>
