<svg width="26" height="25" viewBox="0 0 26 25" fill="none" xmlns="http://www.w3.org/2000/svg">
<g clip-path="url(#clip0_165_1704)">
<path d="M24.6742 15.5834C23.3826 20.0517 20.6016 23.1847 16.1159 24.4705C8.43905 26.6755 1.86178 21.8233 0.369464 15.4787C0.314193 15.2431 0.258905 15.0075 0.206543 14.7718C0.517807 13.6693 1.18398 12.8199 1.99559 12.0228C5.02968 9.04109 7.99977 5.99536 11.0397 3.0049C12.4185 1.65221 12.6484 1.64348 13.9923 2.96417C17.2679 6.18444 20.4911 9.45998 23.7521 12.6948C24.1521 13.0483 24.449 13.5034 24.6113 14.012C24.7737 14.5205 24.7954 15.0635 24.6742 15.5834Z" fill="#448E4E"/>
<path d="M24.6742 15.5836C24.6871 15.2938 24.6356 15.0047 24.5235 14.7371C24.4113 14.4695 24.2412 14.2301 24.0255 14.0361C20.4222 10.4541 16.8344 6.85954 13.2622 3.25237C12.6454 2.62693 12.2906 2.77529 11.7553 3.31928C8.31686 6.79263 4.86193 10.2505 1.39052 13.6928C1.01526 14.0651 0.610905 14.4113 0.226916 14.772C-0.4567 10.6587 0.543992 6.95845 3.34827 3.93017C5.46021 1.64951 8.14231 0.209554 11.3829 0.177555C12.3429 0.177555 13.2709 -0.0988047 14.26 0.0640997C18.5129 0.762261 21.7099 3.00801 23.6909 6.75481C24.4269 8.14823 24.9942 9.74818 24.9447 11.4616C24.8836 12.8346 25.3578 14.2368 24.6742 15.5836Z" fill="#BBDAB9"/>
<path d="M11.7582 12.2266C11.7582 12.852 11.7582 13.4803 11.7582 14.1058C11.7582 14.7312 11.4673 14.9785 10.868 14.9785C10.2688 14.9785 9.70445 14.9785 9.12264 14.9785C7.75541 14.9581 7.68849 14.8825 7.72922 13.4629C7.78158 11.7 9.12845 9.78299 10.6382 9.32628C11.4586 9.07901 11.7029 9.21865 11.7524 10.0652C11.7931 10.7866 11.7524 11.5197 11.7524 12.2382L11.7582 12.2266Z" fill="#F9F5B4"/>
<path d="M15.2694 14.9698C15.0279 14.9698 14.7865 14.9698 14.545 14.9698C13.3814 14.9262 13.3291 14.9029 13.3058 13.7335C13.2854 12.4797 13.2738 11.2259 13.3058 9.97506C13.332 9.23617 13.649 9.06745 14.3501 9.28853C16.1304 9.85579 17.6286 12.407 17.3173 14.2804C17.3158 14.3763 17.2944 14.4708 17.2544 14.5579C17.2144 14.6451 17.1568 14.723 17.0852 14.7867C17.0135 14.8505 16.9294 14.8986 16.8381 14.9281C16.7469 14.9576 16.6506 14.9679 16.5552 14.9582C16.1217 14.9582 15.6824 14.9582 15.2548 14.9582L15.2694 14.9698Z" fill="#F9F5B4"/>
<path d="M15.2635 20.6162C15.0715 20.6366 14.833 20.6744 14.5916 20.6861C13.46 20.7442 13.3 20.6366 13.3058 19.5225C13.3058 16.3022 12.9073 16.7589 16.0519 16.7502C17.3028 16.7502 17.3027 16.7851 17.3318 18.0883C17.3318 18.2338 17.3318 18.3792 17.3318 18.5247C17.3173 20.6162 17.5122 20.6337 15.2635 20.6162Z" fill="#F9F5B4"/>
<path d="M9.71025 20.5899C9.46881 20.5899 9.22445 20.5899 8.98591 20.5899C7.82231 20.5405 7.73794 20.491 7.73503 19.3333C7.73503 16.2933 7.5023 16.782 10.2368 16.7297C11.7407 16.7006 11.7524 16.7297 11.7786 18.2656V18.5565C11.7873 20.6016 11.7873 20.6016 9.71025 20.5899Z" fill="#F9F5B4"/>
</g>
<defs>
<clipPath id="clip0_165_1704">
<rect width="25.0465" height="25" fill="white"/>
</clipPath>
</defs>
</svg>
