<svg width="9" height="9" viewBox="0 0 9 9" fill="none" xmlns="http://www.w3.org/2000/svg">
<g clip-path="url(#clip0_153_2210)">
<path d="M8.76095 1.55379C8.64999 1.25283 8.47301 0.980562 8.24303 0.756973C8.01817 0.527574 7.74635 0.349531 7.44622 0.23506C7.0969 0.103948 6.72765 0.0338694 6.35459 0.0278883C5.87252 0.00398394 5.72111 0 4.498 0C3.27489 0 3.12351 -1.21703e-07 2.64144 0.0278883C2.26837 0.0338694 1.89912 0.103948 1.54981 0.23506C1.24967 0.349531 0.977851 0.527574 0.752994 0.756973C0.523008 0.980562 0.346012 1.25283 0.235046 1.55379C0.103478 1.90312 0.0320939 2.27222 0.0239034 2.64542C0.00398309 3.12351 0 3.27888 0 4.49801C0 5.71713 -9.72138e-07 5.87649 0.0239034 6.35458C0.0329265 6.72769 0.104284 7.09666 0.235046 7.44622C0.350726 7.7452 0.527354 8.01685 0.753699 8.24388C0.980044 8.47091 1.25117 8.64836 1.54981 8.76494C1.89966 8.89413 2.26858 8.96414 2.64144 8.97211C3.12351 8.99203 3.27489 9 4.498 9C5.72111 9 5.87252 9 6.35459 8.97211C6.72744 8.96414 7.09636 8.89413 7.44622 8.76494C7.74485 8.64836 8.01595 8.47091 8.2423 8.24388C8.46864 8.01685 8.64527 7.7452 8.76095 7.44622C8.89172 7.09666 8.9631 6.72769 8.97212 6.35458C8.99204 5.87649 8.99999 5.72112 8.99999 4.49801C8.99999 3.2749 9.00001 3.12351 8.97212 2.64542C8.96393 2.27222 8.89252 1.90312 8.76095 1.55379ZM8.15936 6.33466C8.15608 6.61876 8.10489 6.90026 8.00796 7.16733C7.93205 7.36151 7.81677 7.53786 7.66935 7.68528C7.52193 7.8327 7.34558 7.948 7.1514 8.0239C6.88331 8.12264 6.6004 8.17518 6.31473 8.17928C5.84063 8.17928 5.70119 8.20319 4.498 8.20319C3.29481 8.20319 3.15537 8.20319 2.68127 8.17928C2.39565 8.17472 2.11284 8.1222 1.84462 8.0239C1.64904 7.95076 1.47214 7.83509 1.3267 7.68526C1.17714 7.54037 1.06266 7.36322 0.992028 7.16733C0.891081 6.90124 0.838456 6.61926 0.836644 6.33466C0.812739 5.86056 0.808752 5.71713 0.808752 4.51395C0.808752 3.31076 0.808755 3.17131 0.836644 2.69721C0.839159 2.41139 0.891753 2.12822 0.992028 1.86056C1.06471 1.66569 1.17891 1.48897 1.3267 1.34263C1.47229 1.19393 1.64923 1.07959 1.84462 1.00797C2.11229 0.907694 2.39545 0.855105 2.68127 0.852589C3.15537 0.832669 3.29481 0.828686 4.498 0.828686C5.70119 0.828686 5.84063 0.828685 6.31473 0.852589C6.6006 0.854607 6.88387 0.907212 7.1514 1.00797C7.34729 1.07861 7.52443 1.19307 7.66932 1.34263C7.81835 1.48874 7.93388 1.66545 8.00796 1.86056C8.10439 2.12914 8.15555 2.41187 8.15936 2.69721C8.18326 3.17131 8.18725 3.31474 8.18725 4.51395C8.18725 5.71315 8.18326 5.84462 8.16334 6.31873L8.15936 6.33466Z" fill="#1E1E1E"/>
<path d="M4.498 2.18726C4.04098 2.18726 3.59423 2.32278 3.21422 2.57669C2.83422 2.8306 2.53806 3.19149 2.36316 3.61372C2.18826 4.03596 2.14249 4.50058 2.23165 4.94882C2.32082 5.39706 2.5409 5.8088 2.86406 6.13196C3.18723 6.45513 3.59895 6.67521 4.0472 6.76437C4.49544 6.85353 4.96007 6.80777 5.38231 6.63287C5.80454 6.45798 6.16541 6.1618 6.41932 5.7818C6.67323 5.4018 6.80876 4.95504 6.80876 4.49801C6.80876 3.88516 6.56532 3.29741 6.13197 2.86406C5.69862 2.43071 5.11086 2.18726 4.498 2.18726ZM4.498 6.00001C4.20094 6.00001 3.91055 5.91191 3.66355 5.74687C3.41655 5.58183 3.22402 5.34725 3.11034 5.0728C2.99666 4.79835 2.96691 4.49635 3.02487 4.20499C3.08282 3.91363 3.22589 3.646 3.43594 3.43594C3.646 3.22589 3.91363 3.08284 4.20499 3.02488C4.49635 2.96693 4.79835 2.99667 5.0728 3.11035C5.34726 3.22404 5.58183 3.41655 5.74687 3.66355C5.91191 3.91055 6 4.20095 6 4.49801C6.00053 4.6954 5.96203 4.89095 5.88674 5.07342C5.81144 5.25589 5.70083 5.42168 5.56126 5.56125C5.42168 5.70083 5.25588 5.81145 5.07341 5.88674C4.89095 5.96204 4.6954 6.00053 4.498 6.00001Z" fill="#1E1E1E"/>
<path d="M6.9004 1.55775C6.79224 1.55703 6.68633 1.5887 6.59632 1.64868C6.50631 1.70866 6.43629 1.79421 6.39532 1.89432C6.35434 1.99442 6.34429 2.1045 6.36641 2.21038C6.38853 2.31626 6.44183 2.4131 6.51946 2.48842C6.59708 2.56375 6.69547 2.61412 6.80197 2.63305C6.90847 2.65197 7.01819 2.63859 7.11702 2.59462C7.21585 2.55066 7.29927 2.47812 7.35651 2.38634C7.41376 2.29457 7.44222 2.18776 7.43824 2.07966C7.43311 1.94013 7.37431 1.80796 7.2741 1.71072C7.1739 1.61348 7.04003 1.55868 6.9004 1.55775Z" fill="#1E1E1E"/>
</g>
<defs>
<clipPath id="clip0_153_2210">
<rect width="9" height="9" fill="white"/>
</clipPath>
</defs>
</svg>
