<svg width="26" height="24" viewBox="0 0 26 24" fill="none" xmlns="http://www.w3.org/2000/svg">
<g filter="url(#filter0_d_112_1083)">
<path d="M6.01187 11.0924C6.91205 11.6606 7.95365 11.974 9.0227 11.9985C10.0917 12.0229 11.147 11.7573 12.073 11.2308C12.999 10.7042 13.76 9.93706 14.2727 9.01324C14.7854 8.08941 15.03 7.04454 14.9798 5.99299C15.3806 5.70818 15.7261 5.35483 16 4.94977C15.6226 5.11284 15.2229 5.2204 14.8138 5.26897C15.2416 5.0161 15.5618 4.61922 15.7153 4.15178C15.3106 4.38466 14.8698 4.55036 14.4104 4.64225C14.1023 4.31645 13.6932 4.10021 13.2471 4.02726C12.801 3.95431 12.3429 4.02874 11.9443 4.23895C11.5457 4.44917 11.2289 4.78334 11.0434 5.18935C10.858 5.59537 10.8142 6.05039 10.919 6.48347C10.1035 6.4431 9.30582 6.2344 8.57762 5.87093C7.84941 5.50746 7.20697 4.99734 6.69197 4.37365C6.43121 4.81839 6.35193 5.34408 6.47013 5.84423C6.58833 6.34438 6.89518 6.78161 7.32858 7.06737C7.00283 7.05686 6.68431 6.97013 6.39937 6.81435C6.39356 7.28477 6.55468 7.74244 6.85497 8.10842C7.15527 8.47439 7.57591 8.72572 8.0443 8.81905C7.74251 8.8993 7.42616 8.91127 7.119 8.85409C7.24941 9.25515 7.50414 9.60597 7.84737 9.85729C8.1906 10.1086 8.60514 10.2478 9.03283 10.2554C8.17418 10.9184 7.0836 11.2194 6 11.0924H6.01187Z" fill="white"/>
</g>
<defs>
<filter id="filter0_d_112_1083" x="0" y="0" width="26" height="24" filterUnits="userSpaceOnUse" color-interpolation-filters="sRGB">
<feFlood flood-opacity="0" result="BackgroundImageFix"/>
<feColorMatrix in="SourceAlpha" type="matrix" values="0 0 0 0 0 0 0 0 0 0 0 0 0 0 0 0 0 0 127 0" result="hardAlpha"/>
<feOffset dx="2" dy="4"/>
<feGaussianBlur stdDeviation="4"/>
<feComposite in2="hardAlpha" operator="out"/>
<feColorMatrix type="matrix" values="0 0 0 0 0 0 0 0 0 0 0 0 0 0 0 0 0 0 0.1 0"/>
<feBlend mode="normal" in2="BackgroundImageFix" result="effect1_dropShadow_112_1083"/>
<feBlend mode="normal" in="SourceGraphic" in2="effect1_dropShadow_112_1083" result="shape"/>
</filter>
</defs>
</svg>
