<svg width="117" height="117" viewBox="0 0 117 117" fill="none" xmlns="http://www.w3.org/2000/svg">
<path d="M80.202 22.6163L27.9612 87.1322L64.7592 116.929L117 52.4129L80.202 22.6163Z" fill="#F8F8F9"/>
<mask id="mask0_86_1729" style="mask-type:luminance" maskUnits="userSpaceOnUse" x="27" y="22" width="90" height="95">
<path d="M80.202 22.6163L27.9612 87.1322L64.7592 116.929L117 52.4129L80.202 22.6163Z" fill="white"/>
</mask>
<g mask="url(#mask0_86_1729)">
<path d="M89.6577 27.9676L35.5591 94.7778L75.7891 127.353L129.888 60.5433L89.6577 27.9676Z" fill="url(#paint0_linear_86_1729)"/>
<g style="mix-blend-mode:overlay">
<path d="M54.7511 110.318L35.5591 94.7778L51.0893 75.5984L54.7511 110.318Z" fill="#E6E7E8"/>
<path d="M51.0893 75.5984L70.2813 91.1389L54.7511 110.318L51.0893 75.5984Z" fill="#A7A9AC"/>
<g style="mix-blend-mode:multiply">
<path d="M35.5591 94.7778L51.0893 75.5984L70.2813 91.1389L35.5591 94.7778Z" fill="#E6E7E8"/>
</g>
<g style="mix-blend-mode:multiply">
<path d="M70.2813 91.1389L54.7511 110.318L35.5591 94.7778L70.2813 91.1389Z" fill="#A7A9AC"/>
</g>
<path d="M70.2812 91.1389L51.0892 75.5984L66.6205 56.4177L70.2812 91.1389Z" fill="#E6E7E8"/>
<path d="M66.6205 56.4177L85.8125 71.9582L70.2812 91.1389L66.6205 56.4177Z" fill="#A7A9AC"/>
<g style="mix-blend-mode:multiply">
<path d="M51.0892 75.5984L66.6205 56.4177L85.8125 71.9582L51.0892 75.5984Z" fill="#E6E7E8"/>
</g>
<g style="mix-blend-mode:multiply">
<path d="M85.8125 71.9582L70.2812 91.1389L51.0892 75.5984L85.8125 71.9582Z" fill="#A7A9AC"/>
</g>
<path d="M85.8125 71.9582L66.6205 56.4178L82.1507 37.2384L85.8125 71.9582Z" fill="#E6E7E8"/>
<path d="M82.1507 37.2384L101.343 52.7789L85.8125 71.9582L82.1507 37.2384Z" fill="#A7A9AC"/>
<g style="mix-blend-mode:multiply">
<path d="M66.6205 56.4178L82.1507 37.2384L101.343 52.7789L66.6205 56.4178Z" fill="#E6E7E8"/>
</g>
<g style="mix-blend-mode:multiply">
<path d="M101.343 52.7789L85.8125 71.9582L66.6205 56.4178L101.343 52.7789Z" fill="#A7A9AC"/>
</g>
<path d="M89.6575 27.9676L82.1506 37.2384L101.343 52.7788L99.5726 35.9963L89.6575 27.9676Z" fill="#E6E7E8"/>
<path d="M99.5726 35.9963L101.343 52.7788L108.849 43.5081L99.5726 35.9963Z" fill="#A7A9AC"/>
<g style="mix-blend-mode:multiply">
<path d="M89.6575 27.9676L82.1506 37.2384L98.9344 35.4794L89.6575 27.9676Z" fill="#E6E7E8"/>
</g>
<g style="mix-blend-mode:multiply">
<path d="M98.9344 35.4794L82.1506 37.2384L101.343 52.7788L108.85 43.5081L98.9344 35.4794Z" fill="#A7A9AC"/>
</g>
<path d="M73.9443 125.86L54.751 110.318L70.2812 91.1389L73.9443 125.86Z" fill="#E6E7E8"/>
<path d="M70.2812 91.1389L89.4745 106.68L73.9443 125.86L70.2812 91.1389Z" fill="#A7A9AC"/>
<g style="mix-blend-mode:multiply">
<path d="M54.751 110.318L70.2812 91.1389L89.4745 106.68L54.751 110.318Z" fill="#E6E7E8"/>
</g>
<g style="mix-blend-mode:multiply">
<path d="M89.4745 106.68L73.9443 125.86L54.751 110.318L89.4745 106.68Z" fill="#A7A9AC"/>
</g>
<path d="M89.4745 106.68L70.2811 91.1389L85.8124 71.9582L89.4745 106.68Z" fill="#E6E7E8"/>
<path d="M85.8124 71.9582L105.006 87.4997L89.4745 106.68L85.8124 71.9582Z" fill="#A7A9AC"/>
<g style="mix-blend-mode:multiply">
<path d="M70.2811 91.1389L85.8124 71.9582L105.006 87.4997L70.2811 91.1389Z" fill="#E6E7E8"/>
</g>
<g style="mix-blend-mode:multiply">
<path d="M105.006 87.4997L89.4745 106.68L70.2811 91.1389L105.006 87.4997Z" fill="#A7A9AC"/>
</g>
<path d="M105.006 87.4998L85.8124 71.9582L101.343 52.7788L105.006 87.4998Z" fill="#E6E7E8"/>
<path d="M101.343 52.7788L120.536 68.3204L105.006 87.4998L101.343 52.7788Z" fill="#A7A9AC"/>
<g style="mix-blend-mode:multiply">
<path d="M85.8124 71.9582L101.343 52.7788L120.536 68.3204L85.8124 71.9582Z" fill="#E6E7E8"/>
</g>
<g style="mix-blend-mode:multiply">
<path d="M120.536 68.3204L105.006 87.4998L85.8124 71.9582L120.536 68.3204Z" fill="#A7A9AC"/>
</g>
<path d="M108.85 43.5081L101.343 52.7788L120.536 68.3204L118.765 51.5367L108.85 43.5081Z" fill="#E6E7E8"/>
<path d="M118.765 51.5367L120.536 68.3204L128.043 59.0497L118.765 51.5367Z" fill="#A7A9AC"/>
<g style="mix-blend-mode:multiply">
<path d="M108.85 43.5081L101.343 52.7788L118.128 51.021L108.85 43.5081Z" fill="#E6E7E8"/>
</g>
<g style="mix-blend-mode:multiply">
<path d="M118.128 51.021L101.343 52.7788L120.536 68.3204L128.043 59.0497L118.128 51.021Z" fill="#A7A9AC"/>
</g>
<path d="M89.8265 110.018L89.4745 106.68L73.9443 125.86L75.789 127.354L89.8265 110.018Z" fill="#E6E7E8"/>
<path d="M91.3192 108.174L89.4746 106.68L89.8265 110.018L91.3192 108.174Z" fill="#A7A9AC"/>
<g style="mix-blend-mode:multiply">
<path d="M91.3192 108.174L89.4745 106.68L73.9443 125.86L77.2817 125.51L91.3192 108.174Z" fill="#E6E7E8"/>
</g>
<path d="M105.357 90.8382L105.006 87.4997L89.4746 106.68L91.3192 108.174L105.357 90.8382Z" fill="#E6E7E8"/>
<path d="M106.85 88.9934L105.006 87.4997L105.357 90.8382L106.85 88.9934Z" fill="#A7A9AC"/>
<g style="mix-blend-mode:multiply">
<path d="M106.851 88.9934L105.006 87.4997L89.4746 106.68L92.813 106.329L106.851 88.9934Z" fill="#E6E7E8"/>
</g>
<g style="mix-blend-mode:multiply">
<path d="M92.813 106.329L89.4746 106.68L91.3192 108.174L92.813 106.329Z" fill="#A7A9AC"/>
</g>
<path d="M120.887 71.6589L120.536 68.3204L105.006 87.4998L106.85 88.9935L120.887 71.6589Z" fill="#E6E7E8"/>
<g style="mix-blend-mode:multiply">
<path d="M122.381 69.8141L120.536 68.3204L105.006 87.4998L108.343 87.15L122.381 69.8141Z" fill="#E6E7E8"/>
</g>
<g style="mix-blend-mode:multiply">
<path d="M108.343 87.15L105.006 87.4998L106.85 88.9935L108.343 87.15Z" fill="#A7A9AC"/>
</g>
</g>
</g>
<path d="M52.2207 -2.88695e-06L0 64.491L36.7838 94.2762L89.0045 29.7852L52.2207 -2.88695e-06Z" fill="#F8F8F9"/>
<mask id="mask1_86_1729" style="mask-type:luminance" maskUnits="userSpaceOnUse" x="0" y="0" width="90" height="95">
<path d="M52.2207 -2.88695e-06L0 64.491L36.7838 94.2762L89.0045 29.7852L52.2207 -2.88695e-06Z" fill="white"/>
</mask>
<g mask="url(#mask1_86_1729)">
<path d="M-0.596162 64.1222L52.0455 -0.888632L91.192 30.8097L38.5504 95.8206L-0.596162 64.1222Z" fill="url(#paint1_linear_86_1729)"/>
<g style="mix-blend-mode:overlay">
<path d="M17.8514 79.6926L36.5265 94.8145L51.6385 76.1517L17.8514 79.6926Z" fill="#E6E7E8"/>
<path d="M51.6385 76.1517L32.9633 61.0297L17.8514 79.6926L51.6385 76.1517Z" fill="#A7A9AC"/>
<g style="mix-blend-mode:multiply">
<path d="M36.5265 94.8145L51.6385 76.1517L32.9633 61.0297L36.5265 94.8145Z" fill="#E6E7E8"/>
</g>
<path d="M32.9633 61.0297L51.6385 76.1517L66.7515 57.4875L32.9633 61.0297Z" fill="#E6E7E8"/>
<path d="M66.7515 57.4875L48.0764 42.3656L32.9633 61.0297L66.7515 57.4875Z" fill="#A7A9AC"/>
<path d="M48.0764 42.3655L66.7516 57.4874L81.8635 38.8246L48.0764 42.3655Z" fill="#E6E7E8"/>
<path d="M81.8635 38.8246L63.1884 23.7027L48.0764 42.3655L81.8635 38.8246Z" fill="#A7A9AC"/>
<path d="M89.1682 29.8035L81.8635 38.8246L63.1884 23.7027L79.5201 21.9911L89.1682 29.8035Z" fill="#E6E7E8"/>
<path d="M79.5201 21.9911L63.1884 23.7027L70.493 14.6816L79.5201 21.9911Z" fill="#A7A9AC"/>
<g style="mix-blend-mode:multiply">
<path d="M89.1682 29.8035L81.8635 38.8246L80.1412 22.494L89.1682 29.8035Z" fill="#E6E7E8"/>
</g>
<path d="M-0.825211 64.5696L17.8513 79.6926L32.9632 61.0298L-0.825211 64.5696Z" fill="#E6E7E8"/>
<path d="M32.9632 61.0298L14.2867 45.9068L-0.825211 64.5696L32.9632 61.0298Z" fill="#A7A9AC"/>
<g style="mix-blend-mode:multiply">
<path d="M17.8513 79.6926L32.9632 61.0298L14.2867 45.9068L17.8513 79.6926Z" fill="#E6E7E8"/>
</g>
<g style="mix-blend-mode:multiply">
<path d="M14.2867 45.9068L-0.825211 64.5696L17.8513 79.6926L14.2867 45.9068Z" fill="#A7A9AC"/>
</g>
<path d="M14.2867 45.9067L32.9632 61.0297L48.0762 42.3656L14.2867 45.9067Z" fill="#E6E7E8"/>
<path d="M48.0762 42.3656L29.3998 27.2426L14.2867 45.9067L48.0762 42.3656Z" fill="#A7A9AC"/>
<g style="mix-blend-mode:multiply">
<path d="M32.9632 61.0297L48.0762 42.3656L29.3998 27.2426L32.9632 61.0297Z" fill="#E6E7E8"/>
</g>
<g style="mix-blend-mode:multiply">
<path d="M29.3998 27.2426L14.2867 45.9067L32.9632 61.0297L29.3998 27.2426Z" fill="#A7A9AC"/>
</g>
<path d="M29.4001 27.2425L48.0765 42.3655L63.1885 23.7027L29.4001 27.2425Z" fill="#E6E7E8"/>
<path d="M63.1885 23.7027L44.512 8.57972L29.4001 27.2425L63.1885 23.7027Z" fill="#A7A9AC"/>
<g style="mix-blend-mode:multiply">
<path d="M48.0765 42.3655L63.1885 23.7027L44.512 8.57972L48.0765 42.3655Z" fill="#E6E7E8"/>
</g>
<g style="mix-blend-mode:multiply">
<path d="M44.512 8.57972L29.4001 27.2425L48.0765 42.3655L44.512 8.57972Z" fill="#A7A9AC"/>
</g>
<path d="M70.4932 14.6816L63.1885 23.7027L44.512 8.57969L60.8451 6.86921L70.4932 14.6816Z" fill="#E6E7E8"/>
<path d="M60.8449 6.86921L44.5119 8.57969L51.8166 -0.441378L60.8449 6.86921Z" fill="#A7A9AC"/>
<g style="mix-blend-mode:multiply">
<path d="M70.4932 14.6816L63.1885 23.7027L61.4648 7.37103L70.4932 14.6816Z" fill="#E6E7E8"/>
</g>
<g style="mix-blend-mode:multiply">
<path d="M61.4648 7.37103L63.1885 23.7027L44.512 8.57969L51.8167 -0.441377L61.4648 7.37103Z" fill="#A7A9AC"/>
</g>
<path d="M11.0395 46.2471L14.2869 45.9067L-0.825008 64.5696L-2.61998 63.1161L11.0395 46.2471Z" fill="#E6E7E8"/>
<path d="M12.4919 44.4533L14.2868 45.9067L11.0394 46.247L12.4919 44.4533Z" fill="#A7A9AC"/>
<g style="mix-blend-mode:multiply">
<path d="M12.492 44.4533L14.2869 45.9067L-0.825008 64.5696L-1.16749 61.3223L12.492 44.4533Z" fill="#E6E7E8"/>
</g>
<g style="mix-blend-mode:multiply">
<path d="M-1.16749 61.3223L-0.825008 64.5696L-2.61998 63.1161L-1.16749 61.3223Z" fill="#A7A9AC"/>
</g>
<path d="M26.1513 27.5842L29.3999 27.2426L14.2868 45.9067L12.4919 44.4533L26.1513 27.5842Z" fill="#E6E7E8"/>
<path d="M27.6049 25.7891L29.3999 27.2425L26.1513 27.5842L27.6049 25.7891Z" fill="#A7A9AC"/>
<g style="mix-blend-mode:multiply">
<path d="M27.6049 25.7891L29.3999 27.2426L14.2868 45.9067L13.9454 42.6581L27.6049 25.7891Z" fill="#E6E7E8"/>
</g>
<g style="mix-blend-mode:multiply">
<path d="M13.9454 42.6581L14.2868 45.9067L12.4919 44.4533L13.9454 42.6581Z" fill="#A7A9AC"/>
</g>
<path d="M41.2634 8.92138L44.512 8.57971L29.4 27.2425L27.605 25.7891L41.2634 8.92138Z" fill="#E6E7E8"/>
<path d="M42.7167 7.12632L44.5117 8.57977L41.2632 8.92144L42.7167 7.12632Z" fill="#A7A9AC"/>
<g style="mix-blend-mode:multiply">
<path d="M42.717 7.12626L44.512 8.57971L29.4 27.2425L29.0575 23.9953L42.717 7.12626Z" fill="#E6E7E8"/>
</g>
<g style="mix-blend-mode:multiply">
<path d="M29.0575 23.9953L29.4 27.2425L27.605 25.7891L29.0575 23.9953Z" fill="#A7A9AC"/>
</g>
<path d="M51.8165 -0.441403L44.5119 8.57967L42.7169 7.12621L50.0216 -1.89485L51.8165 -0.441403Z" fill="#E6E7E8"/>
<g style="mix-blend-mode:multiply">
<path d="M51.8165 -0.441403L44.5119 8.57967L44.1694 5.33244L50.0216 -1.89485L51.8165 -0.441403Z" fill="#E6E7E8"/>
</g>
<g style="mix-blend-mode:multiply">
<path d="M44.1694 5.33244L44.5119 8.57967L42.7169 7.12621L44.1694 5.33244Z" fill="#A7A9AC"/>
</g>
<g style="mix-blend-mode:multiply">
<path d="M51.7727 76.5459L66.8847 57.883L48.2095 42.7611L51.7727 76.5459Z" fill="#E6E7E8"/>
</g>
<g style="mix-blend-mode:multiply">
<path d="M66.2941 57.6902L81.406 39.0274L62.7309 23.9055L66.2941 57.6902Z" fill="#E6E7E8"/>
</g>
<g style="mix-blend-mode:multiply">
<path d="M81.5404 39.4216L96.6523 20.7588L77.9772 5.63686L81.5404 39.4216Z" fill="#E6E7E8"/>
</g>
</g>
</g>
<path d="M45.4423 68.6548C45.3223 68.7886 45.2329 68.947 45.1803 69.1189C45.1277 69.2909 45.1132 69.4722 45.1379 69.6503C45.2116 70.0295 45.4274 70.3662 45.7411 70.5917C46.0259 70.8533 46.3967 71.0015 46.7834 71.0084C46.9601 70.997 47.132 70.9463 47.2866 70.8601C47.4412 70.7739 47.5747 70.6543 47.6772 70.51C47.8392 70.3146 47.9716 70.0965 48.0703 69.8626L48.2235 69.9867C48.1234 70.2409 47.9817 70.4765 47.8042 70.6841C47.6848 70.8467 47.5313 70.9812 47.3543 71.0781C47.1774 71.175 46.9813 71.2319 46.78 71.2449C46.3351 71.2459 45.9061 71.0795 45.5781 70.7788C45.342 70.5946 45.152 70.3579 45.0234 70.0875C44.9091 69.8425 44.8714 69.5687 44.9153 69.3021C44.9646 69.02 45.0878 68.756 45.2724 68.5372C45.4533 68.305 45.6834 68.1158 45.9462 67.9832L46.0475 68.182C45.8118 68.2905 45.6046 68.4524 45.4423 68.6548Z" fill="#C2C4C6"/>
<path d="M49.2003 66.3195C49.5575 66.5756 49.8069 66.9551 49.9 67.3846C49.9225 67.5822 49.9054 67.7823 49.8497 67.9732C49.794 68.1641 49.7009 68.342 49.5758 68.4965C49.4507 68.651 49.296 68.7791 49.1209 68.8733C48.9457 68.9674 48.7535 69.0258 48.5556 69.0449C48.1194 69.0188 47.7023 68.8569 47.3626 68.5819C47.023 68.3069 46.7779 67.9326 46.6616 67.5114C46.631 67.3135 46.6446 67.1114 46.7014 66.9195C46.7583 66.7276 46.8569 66.5507 46.9902 66.4015C47.1071 66.2391 47.2592 66.1053 47.4351 66.01C47.611 65.9147 47.8062 65.8603 48.0061 65.851C48.4483 65.8543 48.8737 66.0212 49.2003 66.3195ZM47.5285 68.3842C47.8106 68.6436 48.1742 68.797 48.5568 68.8181C48.7231 68.8017 48.8844 68.7524 49.0315 68.6732C49.1785 68.594 49.3084 68.4863 49.4135 68.3565C49.5186 68.2267 49.5969 68.0774 49.6438 67.9171C49.6907 67.7568 49.7053 67.5887 49.6867 67.4227C49.5868 67.0518 49.3604 66.7274 49.0468 66.5056C48.7662 66.2461 48.4034 66.0935 48.0218 66.0745C47.8556 66.0817 47.6932 66.1263 47.5467 66.2049C47.4001 66.2835 47.2732 66.3941 47.1753 66.5285C47.0618 66.6529 46.9782 66.8015 46.9308 66.9631C46.8835 67.1247 46.8736 67.295 46.902 67.461C46.9918 67.8348 47.2126 68.1642 47.5243 68.3894L47.5285 68.3842Z" fill="#C2C4C6"/>
<path d="M51.8298 65.6423L48.7522 64.7115L48.7411 64.7252C48.8823 64.8395 49.038 64.9429 49.1878 65.0642L51.0663 66.5852L50.9269 66.7573L48.4201 64.7274L48.6416 64.4538L51.573 65.3433L51.5814 65.333L50.1017 62.6506L50.3177 62.3839L52.8245 64.4138L52.6852 64.5859L50.7913 63.0523C50.6587 62.9449 50.521 62.8334 50.3965 62.6984L50.3854 62.7122L51.9245 65.5253L51.8298 65.6423Z" fill="#C2C4C6"/>
<path d="M52.8478 60.7237C52.9588 60.8033 53.0489 60.9085 53.1106 61.0303C53.1722 61.1521 53.2036 61.287 53.2019 61.4235C53.1761 61.7452 53.0435 62.0489 52.8253 62.2865L52.5076 62.6788L53.5407 63.5153L53.4013 63.6874L50.8945 61.6575L51.396 61.0381C51.8864 60.4419 52.3703 60.3371 52.8478 60.7237ZM52.3561 62.5561L52.6347 62.212C52.8262 62.0106 52.952 61.7559 52.9955 61.4814C52.9955 61.3712 52.9682 61.2627 52.9159 61.1656C52.8636 61.0686 52.788 60.986 52.6959 60.9255C52.6212 60.8537 52.5308 60.8004 52.4319 60.7697C52.333 60.7391 52.2283 60.732 52.1261 60.749C51.8863 60.8295 51.679 60.9854 51.5353 61.1935L51.1953 61.6133L52.3561 62.5561Z" fill="#C2C4C6"/>
<path d="M55.1857 59.6883L54.3498 60.7207L54.9561 61.7814L54.7973 61.9775L53.1035 58.9224L53.1955 58.8089L56.5193 59.8509L56.3591 60.0488L55.1857 59.6883ZM54.2488 60.525L54.9817 59.6199L53.7991 59.2321C53.705 59.2053 53.5789 59.1602 53.4211 59.097C53.4992 59.2075 53.5707 59.3225 53.6354 59.4414L54.2488 60.525Z" fill="#C2C4C6"/>
<path d="M58.297 57.6554L58.1577 57.8275L54.7197 57.5248L54.7085 57.5386C54.9848 57.7396 55.1901 57.8944 55.3244 58.0031L56.9497 59.3192L56.8104 59.4913L54.3035 57.4614L54.4429 57.2893L57.8778 57.5922L57.8875 57.5802C57.6711 57.425 57.4724 57.2726 57.2865 57.122L55.6508 55.7976L55.7901 55.6255L58.297 57.6554Z" fill="#C2C4C6"/>
<path d="M58.2144 55.4374L57.4361 53.5822L57.5907 53.3912L58.4473 55.4807L59.4149 56.2642L59.2672 56.4466L58.3116 55.6728L56.0766 55.2646L56.241 55.0616L58.2144 55.4374Z" fill="#C2C4C6"/>
<path d="M62.931 51.9325L62.3737 52.6208L59.5881 52.1884L59.5756 52.2039C59.9277 52.452 60.1754 52.6355 60.3183 52.7512L61.4977 53.7062L61.109 54.1862L58.6021 52.1563L59.1511 51.4784L61.9184 51.9017L61.9295 51.8879C61.5871 51.6419 61.3511 51.4651 61.2185 51.3578L60.0323 50.3972L60.4293 49.9068L62.931 51.9325Z" fill="#C2C4C6"/>
<path d="M64.6948 49.7544L63.9482 49.4547L63.2015 50.3769L63.6498 51.0448L63.1817 51.6229L61.389 48.69L61.9198 48.0344L65.1629 49.1762L64.6948 49.7544ZM63.4009 49.2223C62.721 48.9566 62.3393 48.8014 62.2506 48.7666C62.1619 48.7318 62.0956 48.7009 62.0422 48.6719C62.1562 48.8269 62.4285 49.2297 62.8622 49.8771L63.4009 49.2223Z" fill="#C2C4C6"/>
<path d="M66.2887 47.7859L63.8293 46.8029L63.8168 46.8184C64.2329 47.1212 64.5113 47.3266 64.6439 47.434L65.8095 48.3778L65.4208 48.8579L62.9139 46.828L63.506 46.0967L65.9072 47.0497L65.9155 47.0393L64.5133 44.8527L65.1054 44.1215L67.6123 46.1514L67.2069 46.6521L66.0206 45.6915C65.9655 45.6469 65.9001 45.5939 65.8278 45.5354C65.7554 45.4768 65.5592 45.3179 65.2622 45.0404L65.2497 45.0558L66.683 47.299L66.2887 47.7859Z" fill="#C2C4C6"/>
<path d="M69.3078 44.0573L68.1277 45.5147L65.6209 43.4848L66.8009 42.0274L67.2383 42.3815L66.4929 43.3021L67.0421 43.7468L67.7387 42.8865L68.1743 43.2392L67.4777 44.0995L68.1234 44.6223L68.8687 43.7018L69.3078 44.0573Z" fill="#C2C4C6"/>
<path d="M50.4517 71.8221C50.4905 71.8507 50.5218 71.8883 50.5428 71.9316C50.5638 71.9749 50.574 72.0227 50.5724 72.0708C50.5642 72.1849 50.5179 72.2929 50.441 72.3775C50.372 72.4701 50.2832 72.5461 50.181 72.6L50.0364 72.4829C50.0918 72.4556 50.1443 72.4226 50.193 72.3846C50.2407 72.3498 50.2841 72.3093 50.322 72.264C50.3635 72.2194 50.3895 72.1625 50.3962 72.1019C50.3951 72.0798 50.3894 72.0581 50.3794 72.0383C50.3694 72.0185 50.3553 72.0011 50.338 71.9871C50.3208 71.9732 50.3008 71.963 50.2794 71.9574C50.258 71.9517 50.2356 71.9506 50.2137 71.9542C50.1363 71.9735 50.0626 72.0051 49.9952 72.0479C49.9158 72.099 49.8247 72.1291 49.7305 72.1355C49.6559 72.1348 49.5839 72.1078 49.5272 72.0592C49.4907 72.0322 49.4612 71.997 49.441 71.9564C49.4208 71.9158 49.4106 71.871 49.4112 71.8257C49.4176 71.7231 49.4584 71.6256 49.5269 71.549C49.6025 71.456 49.697 71.3801 49.8042 71.3263L49.8877 71.4766C49.7985 71.5205 49.7192 71.5824 49.655 71.6584C49.619 71.696 49.5974 71.7451 49.594 71.7971C49.5944 71.818 49.5996 71.8386 49.6092 71.8573C49.6189 71.8759 49.6326 71.8921 49.6495 71.9046C49.67 71.9226 49.6953 71.9342 49.7222 71.9379C49.7527 71.9419 49.7836 71.9386 49.8126 71.9285C49.8698 71.9067 49.925 71.8799 49.9773 71.8482C50.0413 71.8112 50.1097 71.7823 50.1809 71.7623C50.2266 71.7506 50.2744 71.7494 50.3206 71.7587C50.3687 71.7692 50.4136 71.791 50.4517 71.8221Z" fill="#C2C4C6"/>
<path d="M50.8526 71.8447L49.9194 71.0891L50.0448 70.9342L50.8471 71.5839L51.1717 71.183L51.3026 71.2889L50.8526 71.8447Z" fill="#C2C4C6"/>
<path d="M51.6393 69.9153C51.7736 70.0116 51.8673 70.1545 51.902 70.316C51.9097 70.4711 51.8599 70.6235 51.7622 70.7441C51.6646 70.8648 51.5258 70.9451 51.3726 70.9699C51.2058 70.9696 51.0451 70.9066 50.9225 70.7934C50.7925 70.6986 50.7025 70.5587 50.6701 70.4011C50.6623 70.3236 50.6709 70.2453 50.6954 70.1714C50.7199 70.0974 50.7597 70.0295 50.8123 69.972C50.8571 69.9089 50.9151 69.8562 50.9822 69.8176C51.0494 69.7791 51.1241 69.7555 51.2013 69.7486C51.3629 69.7479 51.519 69.8073 51.6393 69.9153ZM51.0583 70.6328C51.1455 70.7142 51.2571 70.7645 51.3757 70.7759C51.4256 70.7716 51.4741 70.7573 51.5182 70.7338C51.5624 70.7104 51.6014 70.6783 51.6329 70.6394C51.6644 70.6005 51.6877 70.5557 51.7014 70.5076C51.7152 70.4595 51.7191 70.4091 51.7129 70.3595C51.6768 70.2451 51.6037 70.1459 51.5052 70.0774C51.4186 69.9964 51.3075 69.9465 51.1895 69.9356C51.1399 69.9401 51.0918 69.9545 51.0479 69.9779C51.004 70.0013 50.9652 70.0333 50.9339 70.072C50.9026 70.1106 50.8794 70.1552 50.8656 70.203C50.8518 70.2508 50.8478 70.3009 50.8537 70.3503C50.8873 70.4652 50.9595 70.5651 51.0583 70.6328Z" fill="#C2C4C6"/>
<path d="M52.0781 69.2961L52.3568 68.952L52.8251 69.3312C52.7967 69.4015 52.7634 69.4697 52.7254 69.5353C52.6864 69.5983 52.6434 69.6585 52.5964 69.7157C52.5511 69.7796 52.4928 69.833 52.4253 69.8727C52.3579 69.9123 52.2827 69.9372 52.2049 69.9457C52.0394 69.9461 51.8796 69.8849 51.7569 69.7738C51.6892 69.7251 51.6324 69.663 51.5898 69.5913C51.5473 69.5196 51.5201 69.4399 51.5098 69.3572C51.5056 69.2732 51.518 69.1891 51.5464 69.1099C51.5748 69.0308 51.6186 68.958 51.6753 68.8958C51.753 68.7995 51.8489 68.7194 51.9575 68.66L52.0403 68.8182C51.9483 68.8619 51.8673 68.9259 51.8034 69.0052C51.7654 69.0476 51.7369 69.0975 51.7195 69.1517C51.7022 69.2059 51.6965 69.2631 51.7027 69.3197C51.7253 69.4378 51.7921 69.5429 51.8896 69.6134C51.9777 69.6958 52.0931 69.7426 52.2136 69.7448C52.2674 69.7408 52.3197 69.7251 52.3667 69.6987C52.4137 69.6722 52.4543 69.6358 52.4857 69.5919C52.5285 69.5375 52.5656 69.4787 52.5963 69.4166L52.3553 69.2214L52.1978 69.4158L52.0781 69.2961Z" fill="#C2C4C6"/>
<path d="M53.5204 68.5497L53.1838 68.4339L52.8926 68.7935L53.0788 69.0952L52.9394 69.2672L52.2815 68.1647L52.4208 67.9926L53.636 68.4069L53.5204 68.5497ZM53.0209 68.3675L52.6954 68.252C52.6781 68.2381 52.6381 68.2313 52.5935 68.2123C52.549 68.1933 52.5145 68.1796 52.4948 68.1723C52.5425 68.2327 52.5865 68.2959 52.6266 68.3616L52.8011 68.6424L53.0209 68.3675Z" fill="#C2C4C6"/>
<path d="M54.3884 67.4779L54.2365 67.6654L53.1166 67.5278L53.1579 67.5612C53.2427 67.6185 53.3178 67.6736 53.3832 67.7265L53.8687 68.1197L53.7545 68.2608L52.8213 67.5052L52.9732 67.3176L54.0883 67.4543C54.078 67.4459 54.0418 67.4166 53.9798 67.3664C53.9178 67.3162 53.8714 67.2786 53.8369 67.2507L53.348 66.8548L53.4622 66.7137L54.3884 67.4779Z" fill="#C2C4C6"/>
<path d="M55.0765 65.6706C55.212 65.7663 55.3055 65.9104 55.3378 66.0731C55.3471 66.15 55.3396 66.228 55.3159 66.3017C55.2921 66.3754 55.2526 66.4431 55.2002 66.5001C55.1551 66.5636 55.097 66.6168 55.0298 66.6562C54.9625 66.6955 54.8876 66.7201 54.8101 66.7283C54.6433 66.7281 54.4826 66.6651 54.36 66.5519C54.2296 66.457 54.1399 66.3161 54.109 66.1578C54.1008 66.0802 54.1092 66.0019 54.1337 65.9279C54.1582 65.8539 54.1983 65.786 54.2512 65.7288C54.2958 65.6659 54.3536 65.6135 54.4206 65.5752C54.4875 65.5369 54.562 65.5137 54.6388 65.5071C54.8001 65.5045 54.9564 65.5629 55.0765 65.6706ZM54.4941 66.3898C54.5819 66.4709 54.694 66.5206 54.813 66.5312C54.8637 66.5305 54.9135 66.5179 54.9583 66.4943C55.0032 66.4708 55.0418 66.4369 55.0711 66.3955C55.1048 66.3585 55.1295 66.3141 55.1432 66.266C55.157 66.2179 55.1595 66.1672 55.1504 66.1179C55.115 66.0031 55.0424 65.9033 54.9441 65.8341C54.857 65.7533 54.7454 65.704 54.627 65.6941C54.5771 65.6945 54.5281 65.7068 54.484 65.7301C54.4398 65.7533 54.4019 65.7868 54.3734 65.8277C54.3387 65.8649 54.3132 65.9097 54.2989 65.9585C54.2847 66.0073 54.2821 66.0587 54.2913 66.1088C54.3256 66.2224 54.397 66.3214 54.4941 66.3898Z" fill="#C2C4C6"/>
<path d="M55.8318 65.6954L55.7078 65.8485L54.7747 65.0929L55.2052 64.5612L55.3343 64.6658L55.0278 65.0443L55.3188 65.2799L55.6058 64.9255L55.7349 65.0301L55.4479 65.3845L55.8318 65.6954Z" fill="#C2C4C6"/>
<path d="M56.8183 64.4771L56.6929 64.632L55.8906 63.9823L55.6663 64.2593L55.5354 64.1534L56.1094 63.4445L56.2403 63.5504L56.016 63.8275L56.8183 64.4771Z" fill="#C2C4C6"/>
<path d="M57.7601 63.3139L57.6347 63.4688L57.2146 63.1286L56.8636 63.5622L57.2836 63.9024L57.1583 64.0572L56.2251 63.3016L56.3505 63.1468L56.7327 63.4563L57.0838 63.0227L56.7016 62.7132L56.827 62.5583L57.7601 63.3139Z" fill="#C2C4C6"/>
<path d="M58.3925 62.5329L57.9606 63.0663L57.0275 62.3107L57.4594 61.7773L57.5885 61.8819L57.2806 62.2621L57.5337 62.467L57.8221 62.1109L57.9512 62.2155L57.6628 62.5716L57.9555 62.8086L58.2634 62.4284L58.3925 62.5329Z" fill="#C2C4C6"/>
<path d="M58.3445 60.927C58.3107 60.9651 58.2863 61.0106 58.2732 61.0598C58.26 61.109 58.2586 61.1606 58.2689 61.2105C58.2981 61.3252 58.3673 61.4257 58.4641 61.4939C58.5514 61.5749 58.6638 61.6237 58.7826 61.6322C58.8336 61.6298 58.8834 61.6159 58.9283 61.5916C58.9732 61.5673 59.012 61.5331 59.0418 61.4916C59.0727 61.4526 59.0999 61.4107 59.1231 61.3666L59.1868 61.2245L59.3177 61.3305C59.281 61.4343 59.2261 61.5306 59.1556 61.6151C59.1116 61.677 59.0547 61.7286 58.9888 61.7662C58.9229 61.8038 58.8495 61.8266 58.7739 61.833C58.6091 61.8311 58.4509 61.768 58.33 61.656C58.2416 61.5867 58.1698 61.4984 58.1201 61.3977C58.0746 61.3061 58.0587 61.2027 58.0747 61.1017C58.0947 60.9963 58.1419 60.898 58.2116 60.8165C58.2852 60.7232 58.3799 60.6486 58.4878 60.5987L58.5675 60.7572L58.4471 60.8249C58.4082 60.8539 58.3737 60.8883 58.3445 60.927Z" fill="#C2C4C6"/>
<path d="M59.7202 59.9357C59.8544 60.0327 59.9476 60.1762 59.9815 60.3382C59.9907 60.4151 59.9831 60.4931 59.9594 60.5667C59.9356 60.6404 59.8962 60.7081 59.8439 60.7652C59.7988 60.8287 59.7407 60.882 59.6735 60.9213C59.6062 60.9607 59.5313 60.9852 59.4538 60.9934C59.287 60.9932 59.1263 60.9302 59.0038 60.817C58.8733 60.7221 58.7836 60.5813 58.7527 60.4229C58.7444 60.3458 58.7527 60.2677 58.7769 60.194C58.8012 60.1203 58.8409 60.0527 58.8935 59.9956C58.9382 59.9324 58.9962 59.8796 59.0634 59.841C59.1305 59.8024 59.2053 59.779 59.2825 59.7722C59.4436 59.7707 59.5995 59.829 59.7202 59.9357ZM59.1378 60.655C59.2256 60.736 59.3377 60.7857 59.4567 60.7963C59.5063 60.7921 59.5547 60.778 59.5987 60.7547C59.6428 60.7313 59.6816 60.6994 59.713 60.6606C59.7444 60.6219 59.7676 60.5772 59.7812 60.5293C59.7949 60.4813 59.7987 60.4311 59.7924 60.3816C59.7497 60.2734 59.6796 60.178 59.5891 60.1047C59.4986 60.0314 59.3907 59.9827 59.2759 59.9634C59.2262 59.968 59.1779 59.9825 59.1338 60.006C59.0898 60.0295 59.0509 60.0617 59.0195 60.1005C58.9881 60.1393 58.9647 60.184 58.9509 60.2319C58.937 60.2799 58.9329 60.3302 58.9387 60.3798C58.9732 60.4908 59.0432 60.5874 59.1378 60.655Z" fill="#C2C4C6"/>
<path d="M60.6818 59.7059L59.6821 59.3493C59.7974 59.4427 59.9157 59.5185 60.0172 59.6007L60.4701 59.9674L60.3586 60.1051L59.4254 59.3494L59.601 59.1326L60.5562 59.4702L60.0315 58.601L60.2084 58.3825L61.1416 59.1381L61.0204 59.2878L60.559 58.9141C60.5131 58.877 60.4528 58.8282 60.3782 58.7677C60.3024 58.7064 60.2594 58.6715 60.2422 58.6576L60.7919 59.5699L60.6818 59.7059Z" fill="#C2C4C6"/>
<path d="M61.1915 57.7456C61.2356 57.7775 61.2717 57.8191 61.297 57.8673C61.3223 57.9155 61.3361 57.9688 61.3373 58.0232C61.3284 58.1491 61.2772 58.2683 61.1919 58.3612L61.1125 58.4593L61.4568 58.7381L61.3286 58.8964L60.3954 58.1408L60.6142 57.8707C60.6831 57.7709 60.7845 57.698 60.901 57.6642C60.9524 57.6536 61.0056 57.6554 61.0562 57.6695C61.1067 57.6837 61.1531 57.7098 61.1915 57.7456ZM60.9833 58.3547L61.0502 58.2721C61.1032 58.2153 61.1374 58.1436 61.1482 58.0666C61.148 58.0356 61.1404 58.005 61.126 57.9775C61.1115 57.9499 61.0908 57.9263 61.0653 57.9084C61.0446 57.8883 61.0192 57.8736 60.9915 57.8655C60.9637 57.8574 60.9345 57.8562 60.9062 57.8621C60.8387 57.8829 60.7804 57.9262 60.7412 57.9849L60.6548 58.0916L60.9833 58.3547Z" fill="#C2C4C6"/>
<path d="M62.4678 57.5L62.1312 57.3841L61.84 57.7437L62.0261 58.0455L61.8868 58.2175L61.2288 57.115L61.3682 56.9429L62.5834 57.3572L62.4678 57.5ZM61.9683 57.3178L61.6441 57.2006C61.6091 57.1897 61.5747 57.177 61.5409 57.1626C61.495 57.1454 61.4619 57.1299 61.4422 57.1225C61.4899 57.183 61.5339 57.2462 61.574 57.3119L61.7471 57.5945L61.9683 57.3178Z" fill="#C2C4C6"/>
<path d="M63.3358 56.4281L63.1839 56.6156L62.064 56.4779L62.1053 56.5114C62.1901 56.5686 62.2652 56.6238 62.3306 56.6767L62.8161 57.0699L62.7019 57.211L61.7687 56.4554L61.9206 56.2678L63.0343 56.4062C63.0239 56.3978 62.9878 56.3685 62.9258 56.3183C62.8655 56.2695 62.8173 56.2305 62.7829 56.2026L62.2939 55.8067L62.4082 55.6656L63.3358 56.4281Z" fill="#C2C4C6"/>
<path d="M63.2445 55.5024L63.0004 54.9344L63.1397 54.7623L63.4577 55.5383L63.8193 55.8311L63.6939 55.9859L63.3375 55.6974L62.5072 55.5435L62.6465 55.3714L63.2445 55.5024Z" fill="#C2C4C6"/>
<path d="M64.2519 54.2616L64.5306 53.9175L64.9989 54.2967C64.9721 54.3638 64.9412 54.4291 64.9061 54.4922C64.8672 54.5551 64.8241 54.6154 64.7771 54.6726C64.7319 54.7365 64.6735 54.79 64.6061 54.8296C64.5386 54.8692 64.4635 54.8941 64.3856 54.9026C64.2196 54.9057 64.0587 54.8447 63.9362 54.7324C63.869 54.6833 63.8124 54.6211 63.7699 54.5495C63.7274 54.4779 63.6999 54.3984 63.6892 54.3158C63.6851 54.2314 63.6978 54.1471 63.7264 54.0676C63.7551 53.9882 63.7991 53.9151 63.8561 53.8527C63.9333 53.7569 64.0287 53.6774 64.1369 53.6186L64.2211 53.7751C64.1291 53.819 64.0482 53.8829 63.9841 53.9621C63.9461 54.0044 63.9174 54.0543 63.9001 54.1085C63.8827 54.1627 63.8771 54.22 63.8834 54.2766C63.9044 54.3955 63.9709 54.5015 64.0689 54.5721C64.157 54.6544 64.2725 54.7012 64.393 54.7034C64.4472 54.6993 64.4997 54.6833 64.547 54.6566C64.5942 54.6299 64.635 54.5931 64.6664 54.5488C64.7093 54.4943 64.7464 54.4356 64.7771 54.3734L64.536 54.1783L64.3772 54.3744L64.2519 54.2616Z" fill="#C2C4C6"/>
<path d="M65.431 52.883C65.5665 52.9788 65.6601 53.1229 65.6924 53.2855C65.7018 53.3624 65.6944 53.4405 65.6706 53.5142C65.6468 53.5879 65.6073 53.6556 65.5547 53.7125C65.51 53.776 65.4522 53.8291 65.3851 53.8681C65.3181 53.9072 65.2433 53.9314 65.166 53.939C64.999 53.9396 64.8378 53.8772 64.7146 53.7643C64.5841 53.6694 64.4944 53.5285 64.4636 53.3702C64.4553 53.2927 64.4637 53.2143 64.4882 53.1403C64.5128 53.0663 64.5528 52.9984 64.6057 52.9412C64.6504 52.8783 64.7081 52.8259 64.7751 52.7877C64.842 52.7494 64.9165 52.7261 64.9933 52.7195C65.1546 52.7169 65.3109 52.7753 65.431 52.883ZM64.8487 53.6023C64.9364 53.6833 65.0485 53.733 65.1675 53.7436C65.2182 53.743 65.268 53.7303 65.3129 53.7068C65.3577 53.6832 65.3964 53.6493 65.4256 53.6079C65.4593 53.5709 65.484 53.5266 65.4977 53.4784C65.5115 53.4303 65.514 53.3796 65.505 53.3303C65.4622 53.2221 65.3922 53.1267 65.3017 53.0534C65.2112 52.9801 65.1033 52.9314 64.9885 52.9121C64.9383 52.913 64.889 52.9257 64.8447 52.9493C64.8004 52.9728 64.7623 53.0064 64.7335 53.0475C64.6989 53.0847 64.6735 53.1295 64.6592 53.1783C64.645 53.227 64.6423 53.2785 64.6513 53.3285C64.6856 53.4387 64.7549 53.5348 64.8487 53.6023Z" fill="#C2C4C6"/>
<path d="M66.4887 52.5345L66.0568 53.0679L65.1237 52.3122L65.5556 51.7789L65.6847 51.8834L65.3782 52.2619L65.6313 52.4669L65.9183 52.1124L66.0474 52.217L65.7604 52.5714L66.0531 52.8084L66.3596 52.4299L66.4887 52.5345Z" fill="#C2C4C6"/>
<path d="M66.8459 51.5758C66.8842 51.6047 66.9152 51.6424 66.9362 51.6856C66.9572 51.7289 66.9676 51.7764 66.9666 51.8245C66.9579 51.9392 66.9112 52.0478 66.8338 52.1329C66.7651 52.2248 66.6768 52.3002 66.5752 52.3536L66.4306 52.2365C66.486 52.2092 66.5384 52.1763 66.5871 52.1382C66.6349 52.1035 66.6782 52.063 66.7161 52.0177C66.7577 51.973 66.7837 51.9162 66.7903 51.8556C66.7893 51.8334 66.7835 51.8117 66.7735 51.792C66.7635 51.7722 66.7494 51.7547 66.7322 51.7408C66.7149 51.7268 66.695 51.7167 66.6735 51.711C66.6521 51.7053 66.6297 51.7042 66.6078 51.7078C66.5276 51.7295 66.4515 51.764 66.3824 51.8101C66.3044 51.8562 66.2165 51.8827 66.126 51.8874C66.0514 51.8867 65.9794 51.8597 65.9227 51.8111C65.8865 51.7842 65.857 51.7493 65.8367 51.709C65.8163 51.6688 65.8056 51.6244 65.8054 51.5793C65.8127 51.4761 65.8538 51.3783 65.9224 51.3009C65.9981 51.2079 66.0926 51.132 66.1997 51.0782L66.2833 51.2285C66.194 51.2724 66.1148 51.3344 66.0505 51.4103C66.0145 51.4479 65.993 51.497 65.9896 51.549C65.99 51.5699 65.9952 51.5905 66.0048 51.6092C66.0144 51.6278 66.0282 51.644 66.045 51.6566C66.0655 51.6741 66.09 51.6861 66.1164 51.6916C66.1474 51.6943 66.1787 51.6905 66.2081 51.6804C66.2647 51.6589 66.3194 51.6326 66.3715 51.6019C66.436 51.5644 66.5048 51.535 66.5764 51.5143C66.6221 51.5026 66.6699 51.5013 66.7162 51.5106C66.7635 51.5228 66.8078 51.5451 66.8459 51.5758Z" fill="#C2C4C6"/>
<path d="M68.1257 50.5127L68.0003 50.6676L67.5802 50.3274L67.2277 50.7627L67.6478 51.1029L67.5238 51.256L66.5907 50.5004L66.7146 50.3473L67.0969 50.6568L67.4494 50.2214L67.0671 49.9119L67.1925 49.7571L68.1257 50.5127Z" fill="#C2C4C6"/>
<path d="M68.757 49.7333L68.3265 50.2649L67.3933 49.5093L67.8238 48.9776L67.953 49.0822L67.6464 49.4608L67.8995 49.6657L68.1865 49.3112L68.3157 49.4158L68.0287 49.7703L68.3213 50.0073L68.6279 49.6287L68.757 49.7333Z" fill="#C2C4C6"/>
<path d="M68.6746 49.0743L69.0465 49.3754L68.9225 49.5286L67.9894 48.773L68.2025 48.5097C68.2719 48.4083 68.3731 48.3329 68.4901 48.2953C68.5386 48.2851 68.5889 48.2868 68.6366 48.3001C68.6844 48.3135 68.7282 48.3382 68.7643 48.3721C68.82 48.4168 68.8597 48.4781 68.8778 48.5471C68.8959 48.6161 68.8912 48.6891 68.8646 48.7552L69.4924 48.8248L69.3531 48.9969L68.7986 48.9212L68.6746 49.0743ZM68.5472 48.9711L68.6336 48.8645C68.6826 48.8129 68.7133 48.7466 68.7208 48.6758C68.7195 48.6476 68.7118 48.6201 68.6982 48.5953C68.6847 48.5706 68.6657 48.5492 68.6427 48.5328C68.6226 48.5132 68.5976 48.4991 68.5704 48.492C68.5431 48.4849 68.5145 48.4851 68.4873 48.4924C68.4221 48.5201 68.3659 48.5653 68.3247 48.6229L68.2425 48.7244L68.5472 48.9711Z" fill="#C2C4C6"/>
<path d="M70.0358 48.1537L69.6053 48.6854L68.6721 47.9298L69.1026 47.3981L69.2317 47.5027L68.9252 47.8812L69.1783 48.0861L69.4653 47.7317L69.5945 47.8363L69.3075 48.1907L69.6002 48.4277L69.9067 48.0492L70.0358 48.1537Z" fill="#C2C4C6"/>
<path d="M46.5508 48.2801L50.0197 46.9498L52.9088 49.2892L52.329 52.9589L48.86 54.2892L45.971 51.9499L46.5508 48.2801ZM46.2064 48.0013L45.5585 52.1002L48.785 54.7128L52.6595 53.2266L53.3061 49.1294L50.0795 46.5168L46.2064 48.0013Z" fill="#C2C4C6"/>
<defs>
<linearGradient id="paint0_linear_86_1729" x1="64.5584" y1="62.9528" x2="109.11" y2="99.0282" gradientUnits="userSpaceOnUse">
<stop offset="0.23" stop-color="#202629"/>
<stop offset="1"/>
</linearGradient>
<linearGradient id="paint1_linear_86_1729" x1="27.6232" y1="33.153" x2="70.9755" y2="68.2569" gradientUnits="userSpaceOnUse">
<stop offset="0.23" stop-color="#202629"/>
<stop offset="1"/>
</linearGradient>
</defs>
</svg>
