<svg width="1" height="1" viewBox="0 0 1 1" fill="none" xmlns="http://www.w3.org/2000/svg">
<path d="M0.9191 0.202645C0.991178 0.314709 1.01645 0.450391 0.989533 0.580758C0.962615 0.711124 0.885636 0.82586 0.775011 0.900482C0.722734 0.939554 0.663176 0.967865 0.5998 0.983761C0.536425 0.999656 0.4705 1.00281 0.405884 0.993059C0.341268 0.983306 0.27925 0.960831 0.223446 0.926945C0.167641 0.89306 0.119171 0.848448 0.0808588 0.795702C0.00883788 0.683801 -0.0164077 0.548282 0.0105154 0.418088C0.0374385 0.287894 0.114395 0.173344 0.224948 0.0989142C0.277107 0.0596503 0.336608 0.0311543 0.399966 0.0150981C0.463323 -0.000958064 0.529269 -0.00424559 0.59392 0.00541573C0.658572 0.015077 0.720634 0.0374949 0.776474 0.0713635C0.832315 0.105232 0.8808 0.149863 0.9191 0.202645Z" fill="#3F3F3F"/>
</svg>
