<svg width="14" height="14" viewBox="0 0 14 14" fill="none" xmlns="http://www.w3.org/2000/svg">
<path d="M7.01135 0.436606C8.49849 0.437166 9.94137 0.94296 11.1037 1.87125C12.266 2.79954 13.0789 4.09525 13.4092 5.5462C13.7395 6.99714 13.5677 8.51738 12.9218 9.85784C12.276 11.1983 11.1944 12.2796 9.85425 12.9246C8.51409 13.5697 6.99476 13.7403 5.54507 13.4084C4.09538 13.0766 2.8013 12.2619 1.87468 11.098C0.948063 9.93408 0.443823 8.48977 0.444618 7.00165C0.445412 5.51354 0.951144 4.0698 1.87901 2.90686C2.49009 2.13129 3.27011 1.50561 4.15955 1.07751C5.049 0.649401 6.02438 0.430201 7.01135 0.436606ZM7.01135 1.83132e-05C5.35947 -0.00376108 3.75957 0.57755 2.49492 1.64098C1.23028 2.70442 0.382548 4.18139 0.101793 5.81032C-0.178962 7.43924 0.125394 9.11504 0.960985 10.5409C1.79658 11.9668 3.10944 13.0508 4.66715 13.6009C6.22486 14.1511 7.92692 14.1319 9.47183 13.5467C11.0167 12.9615 12.3048 11.8482 13.1081 10.4038C13.9113 8.95937 14.1778 7.27714 13.8604 5.65497C13.543 4.03279 12.6621 2.57535 11.3738 1.54074C10.1364 0.546947 8.59805 0.00364858 7.01135 1.83132e-05Z" fill="#303030"/>
</svg>
