<svg width="19" height="21" viewBox="0 0 19 21" fill="none" xmlns="http://www.w3.org/2000/svg">
<path d="M0.590495 21L0.42881 20.929C0.306295 20.8863 0.199657 20.807 0.123205 20.7018C0.0467532 20.5966 0.00412529 20.4704 0.000996249 20.3402C-0.0259523 18.1542 0.489453 16.1544 2.07941 14.5572C3.06948 13.6021 4.29498 12.9293 5.62985 12.6081C8.0436 12.0219 10.5601 12.008 12.9801 12.5675C14.2716 12.8667 15.47 13.4802 16.4699 14.3542C17.5564 15.3391 18.2883 16.6573 18.5517 18.1035C18.6763 18.7328 18.6965 19.3825 18.7672 20.0255C18.817 20.2337 18.7825 20.4532 18.6714 20.6358C18.5602 20.8185 18.3815 20.9495 18.1744 21H0.590495Z" fill="#676767"/>
<path d="M9.66979 0C10.039 0.0525554 10.4053 0.125175 10.7674 0.217588C11.5055 0.409077 12.1865 0.792779 12.7485 1.33373C13.3104 1.87468 13.7355 2.55568 13.9848 3.31472C14.3583 4.30926 14.4617 5.39428 14.2835 6.44762C14.1054 7.50096 13.6527 8.48081 12.9764 9.27687C12.5611 9.80402 12.0464 10.2338 11.4652 10.5387C10.8839 10.8436 10.2489 11.017 9.6007 11.0477C8.9525 11.0784 8.30539 10.9658 7.70068 10.7171C7.09596 10.4684 6.54695 10.089 6.08877 9.60326C5.45096 8.95914 4.97236 8.15943 4.69488 7.27423C4.4174 6.38904 4.34951 5.44539 4.49721 4.52601C4.5916 3.55851 4.95273 2.64163 5.53569 1.88923C6.11865 1.13683 6.89779 0.582044 7.77638 0.293755C8.14159 0.182059 8.51423 0.0996137 8.89116 0.0471367L9.14498 0.00361909L9.66979 0Z" fill="#676767"/>
</svg>
