<svg width="6" height="5" viewBox="0 0 6 5" fill="none" xmlns="http://www.w3.org/2000/svg">
<g filter="url(#filter0_d_112_1097)">
<path fill-rule="evenodd" clip-rule="evenodd" d="M5.70826 3.52906C5.56203 3.46534 4.83554 3.14249 4.69874 3.10426C4.56193 3.06603 4.46755 3.04054 4.36849 3.17223C4.26942 3.30392 3.98638 3.59703 3.89675 3.68624C3.80712 3.77544 3.72224 3.78395 3.576 3.72023C3.14016 3.56669 2.73775 3.34524 2.38721 3.06603C2.06426 2.8004 1.78756 2.49251 1.56639 2.15271C1.48147 2.02102 1.56639 1.9488 1.63244 1.88508C1.69848 1.82136 1.77866 1.72789 1.85414 1.65143L1.90602 1.58771C1.9414 1.53731 1.9729 1.4848 2.00035 1.43054C2.02271 1.39566 2.0345 1.35611 2.0345 1.31584C2.0345 1.27558 2.02271 1.23601 2.00035 1.20114L1.52861 0.219847C1.40596 -0.0435303 1.28333 0.00320678 1.1937 0.00320678C1.10406 0.00320678 1.00973 0.00320678 0.910663 0.00320678C0.836471 0.00384863 0.763274 0.0185509 0.695813 0.0463637C0.628352 0.0741766 0.56816 0.114465 0.519141 0.164621C0.352223 0.306183 0.219839 0.477501 0.130498 0.66766C0.0411571 0.85782 -0.00322949 1.06265 0.000182832 1.26911C0.00377575 1.4215 0.0291598 1.57284 0.0756771 1.7194C0.193202 2.04854 0.371848 2.35737 0.604022 2.63273C1.22319 3.49525 2.09718 4.18519 3.12781 4.62504C4.62794 5.1518 4.62794 4.97764 4.90155 4.95215C5.10742 4.91826 5.30281 4.84498 5.47453 4.73725C5.64624 4.62952 5.79028 4.48985 5.89691 4.32769C5.99358 4.13028 6.02316 3.9115 5.98185 3.69898C5.94411 3.648 5.84978 3.61402 5.69882 3.54606L5.70826 3.52906Z" fill="white"/>
</g>
<defs>
<filter id="filter0_d_112_1097" x="-6" y="-4" width="22" height="21" filterUnits="userSpaceOnUse" color-interpolation-filters="sRGB">
<feFlood flood-opacity="0" result="BackgroundImageFix"/>
<feColorMatrix in="SourceAlpha" type="matrix" values="0 0 0 0 0 0 0 0 0 0 0 0 0 0 0 0 0 0 127 0" result="hardAlpha"/>
<feOffset dx="2" dy="4"/>
<feGaussianBlur stdDeviation="4"/>
<feComposite in2="hardAlpha" operator="out"/>
<feColorMatrix type="matrix" values="0 0 0 0 0 0 0 0 0 0 0 0 0 0 0 0 0 0 0.1 0"/>
<feBlend mode="normal" in2="BackgroundImageFix" result="effect1_dropShadow_112_1097"/>
<feBlend mode="normal" in="SourceGraphic" in2="effect1_dropShadow_112_1097" result="shape"/>
</filter>
</defs>
</svg>
