<svg width="14" height="20" viewBox="0 0 14 20" fill="none" xmlns="http://www.w3.org/2000/svg">
<g clip-path="url(#clip0_167_1768)">
<path d="M8.31633 14.2163C7.16151 14.2163 6.09837 14.2587 5.0407 14.2067C2.97735 14.1055 1.65696 12.5826 1.94293 10.5425C2.259 8.29171 2.63802 6.04638 3.09639 3.82158C3.54518 1.64055 5.38688 0.172403 7.64726 0.0903063C9.42601 0.0273659 11.2048 0.0246289 12.9753 0C13.1723 0 13.3694 0.028733 13.6389 0.0506253C13.2681 2.16597 12.9069 4.22248 12.5443 6.27899C11.997 9.43559 11.4497 12.5963 10.8764 15.7488C10.4508 18.0748 9.04014 19.4568 6.6744 19.9111C6.29241 19.9745 5.90537 20.0025 5.51822 19.9945C3.72442 20.0027 1.93062 19.9945 -0.00137329 19.9945C0.525411 19.0532 0.956416 18.2158 1.46952 17.414C1.57898 17.2429 1.94293 17.1691 2.19332 17.1636C3.37687 17.1376 4.56316 17.1513 5.75082 17.1513C7.42011 17.1513 7.82924 16.816 8.14394 15.1919C8.18773 14.9347 8.2356 14.672 8.31633 14.2163ZM7.19846 11.3813V11.4428C7.51757 11.4257 7.83742 11.428 8.15625 11.4497C8.68988 11.5154 8.8787 11.2554 8.95806 10.7738C9.3056 8.66662 9.67776 6.56359 10.0294 4.45646C10.21 3.37142 9.83374 2.91305 8.7446 2.86789C8.4039 2.85284 8.06046 2.85558 7.72113 2.86789C6.60599 2.89115 6.06006 3.34131 5.82334 4.42772C5.74672 4.78347 5.6742 5.13922 5.61536 5.49771C5.35813 7.04248 5.08037 8.58452 4.86419 10.1361C4.75062 10.9571 5.02701 11.2759 5.84113 11.3772C6.28308 11.4278 6.7442 11.3813 7.19846 11.3813Z" fill="white"/>
</g>
<defs>
<clipPath id="clip0_167_1768">
<rect width="13.6403" height="20" fill="white"/>
</clipPath>
</defs>
</svg>
