<svg width="26" height="25" viewBox="0 0 26 25" fill="none" xmlns="http://www.w3.org/2000/svg">
<path d="M3.68038 2.86805C4.24945 2.88275 4.78952 3.12252 5.1823 3.53488C5.57509 3.94723 5.78858 4.49857 5.77604 5.06813C5.77681 5.60425 5.57195 6.12022 5.20373 6.5096C4.8355 6.89898 4.33199 7.13206 3.79707 7.16078C3.04095 7.20282 2.27553 7.16078 1.50074 7.16078V10.566C2.15417 10.566 2.77494 10.5427 3.3677 10.566C3.77016 10.5725 4.16834 10.6499 4.5439 10.7949C4.97345 10.9958 5.32323 11.3352 5.53732 11.7586C5.7514 12.182 5.81736 12.665 5.72471 13.1304C5.62594 13.6057 5.37093 14.0342 5.00038 14.3474C4.62983 14.6607 4.16511 14.8407 3.68038 14.8587C2.95226 14.8821 2.22419 14.8587 1.44473 14.8587V18.2826C2.21018 18.2826 2.9103 18.2593 3.61041 18.2826C3.90093 18.2776 4.18935 18.3327 4.45752 18.4447C4.72569 18.5566 4.96777 18.7229 5.16857 18.9331C5.36938 19.1433 5.52453 19.3928 5.62426 19.6659C5.72399 19.939 5.76615 20.2299 5.74807 20.5201C5.72737 21.0888 5.48253 21.6262 5.0671 22.0149C4.65167 22.4035 4.09943 22.6117 3.53105 22.5941C2.86361 22.5941 2.19618 22.5941 1.44473 22.5941C1.44473 23.1779 1.47273 23.7151 1.44473 24.2476C1.44473 24.3457 1.44473 24.4438 1.44473 24.5419H26C26 24.4345 26 24.3317 26 24.2243V11.0658C26 7.68861 26 4.31141 26 0.934217C25.997 0.619361 25.9579 0.305891 25.8833 0H1.56142C1.42509 0.943376 1.39219 1.89884 1.46336 2.84937C2.25215 2.86805 2.96627 2.82601 3.68038 2.86805ZM14.4528 4.81123C14.9429 4.80501 15.4293 4.89664 15.8836 5.08076C16.3379 5.26489 16.7509 5.53783 17.0986 5.88359C17.4463 6.22936 17.7216 6.64102 17.9084 7.09451C18.0952 7.54801 18.1899 8.03422 18.1867 8.52473C18.183 9.50838 17.789 10.4503 17.0914 11.1432C16.3938 11.8361 15.4496 12.2233 14.4668 12.2196C13.4839 12.2158 12.5428 11.8215 11.8504 11.1234C11.158 10.4252 10.7712 9.48036 10.7749 8.49671C10.768 8.01013 10.8583 7.52707 11.0403 7.07584C11.2224 6.62461 11.4926 6.21427 11.8351 5.86887C12.1776 5.52346 12.5856 5.24995 13.0351 5.06433C13.4846 4.87871 13.9666 4.78471 14.4528 4.78786V4.81123ZM11.0456 13.8965C11.6358 13.641 12.2696 13.5015 12.9125 13.4854C13.9347 13.4154 14.9662 13.4527 15.993 13.4854C16.5613 13.4715 17.1265 13.5745 17.6534 13.7882C18.1803 14.002 18.6577 14.3217 19.0559 14.7278C19.4542 15.1338 19.7648 15.6174 19.9686 16.1485C20.1723 16.6797 20.2648 17.2471 20.2403 17.8155C20.2403 18.2826 20.2403 18.7264 20.2403 19.2169H8.7632C8.48315 16.8813 8.80988 14.9802 11.0456 13.8731V13.8965Z" fill="#3371A5"/>
<path d="M2.4481 3.80225C2.84016 3.80225 3.22756 3.80225 3.61962 3.80225C3.91554 3.79654 4.20251 3.90404 4.42195 4.10282C4.64138 4.3016 4.77677 4.57668 4.80049 4.87193C4.82844 5.02169 4.82464 5.17565 4.78938 5.32386C4.75412 5.47207 4.68817 5.61121 4.59578 5.7323C4.50339 5.85338 4.38665 5.95371 4.25307 6.02678C4.11949 6.09985 3.97207 6.14403 3.82035 6.15648C2.8879 6.21871 1.95235 6.21871 1.0199 6.15648C0.872962 6.14147 0.730513 6.09717 0.600961 6.02618C0.471409 5.95519 0.357395 5.85894 0.265605 5.74313C0.173815 5.62732 0.106124 5.49429 0.0665336 5.35189C0.0269434 5.20948 0.0162468 5.06058 0.0350833 4.91397C0.0560436 4.61809 0.186997 4.3408 0.402118 4.13675C0.617238 3.9327 0.900916 3.81669 1.19726 3.81159C1.59866 3.80225 2.02336 3.80225 2.4481 3.80225Z" fill="#3371A5"/>
<path d="M2.41552 21.6319C1.99079 21.6319 1.56607 21.6319 1.146 21.6319C0.849602 21.6216 0.567896 21.5002 0.356893 21.2916C0.145891 21.083 0.0210131 20.8026 0.00712265 20.5061C-0.0258061 20.2183 0.0563027 19.9291 0.235536 19.7016C0.41477 19.4741 0.676616 19.3268 0.963964 19.2917C1.92123 19.2263 2.88184 19.2263 3.8391 19.2917C3.98864 19.3098 4.13277 19.3589 4.26237 19.4357C4.39197 19.5125 4.50421 19.6155 4.59197 19.738C4.67974 19.8605 4.7411 20 4.77219 20.1475C4.80328 20.295 4.80342 20.4473 4.77259 20.5949C4.74358 20.8815 4.60891 21.1469 4.3949 21.3395C4.18088 21.5321 3.90283 21.638 3.61502 21.6365C3.23696 21.6412 2.83092 21.6319 2.41552 21.6319Z" fill="#3371A5"/>
<path d="M2.41556 13.9152C1.99083 13.9152 1.56611 13.9152 1.14604 13.9152C0.843873 13.8962 0.56028 13.7627 0.353004 13.5419C0.145727 13.321 0.0303529 13.0294 0.0303529 12.7264C0.0303529 12.4234 0.145727 12.1318 0.353004 11.9109C0.56028 11.6901 0.843873 11.5566 1.14604 11.5376C2.00484 11.5096 2.86828 11.5096 3.73175 11.5376C3.88259 11.5442 4.03065 11.5807 4.16727 11.645C4.30388 11.7094 4.42638 11.8002 4.52758 11.9124C4.62878 12.0245 4.70665 12.1557 4.75673 12.2982C4.80681 12.4408 4.8281 12.5919 4.81929 12.7427C4.82252 13.0393 4.71288 13.3259 4.51265 13.5446C4.31242 13.7632 4.03656 13.8973 3.74109 13.9199H2.41556V13.9152Z" fill="#3371A5"/>
<path d="M20.2542 19.2168H8.76308C8.48304 16.8813 8.80976 15.0128 11.0455 13.8964C11.6357 13.6409 12.2695 13.5014 12.9124 13.4854C13.9346 13.4153 14.9661 13.4527 15.9929 13.4854C16.5612 13.4714 17.1264 13.5745 17.6533 13.7882C18.1802 14.0019 18.6576 14.3217 19.0558 14.7277C19.4541 15.1337 19.7647 15.6173 19.9685 16.1485C20.1722 16.6796 20.2647 17.247 20.2402 17.8155C20.2589 18.2265 20.2542 18.6843 20.2542 19.2168Z" fill="white"/>
<path d="M14.4527 4.78788C14.9428 4.78166 15.4292 4.8733 15.8835 5.05743C16.3378 5.24155 16.7508 5.51448 17.0985 5.86024C17.4462 6.20601 17.7215 6.61767 17.9083 7.07116C18.0951 7.52466 18.1898 8.01088 18.1866 8.5014C18.1848 8.98845 18.0871 9.47037 17.8991 9.91965C17.7112 10.3689 17.4367 10.7768 17.0913 11.1198C16.7458 11.4629 16.3363 11.7346 15.886 11.9193C15.4356 12.104 14.9533 12.1981 14.4666 12.1962C13.98 12.1944 13.4985 12.0966 13.0496 11.9085C12.6006 11.7205 12.1931 11.4457 11.8503 11.1C11.5075 10.7543 11.236 10.3444 11.0515 9.89376C10.867 9.44308 10.7729 8.96042 10.7748 8.47337C10.771 7.98874 10.8636 7.50821 11.047 7.05969C11.2305 6.61117 11.5012 6.20361 11.8434 5.8607C12.1856 5.51779 12.5925 5.24636 13.0404 5.06219C13.4884 4.87802 13.9684 4.78477 14.4527 4.78788Z" fill="white"/>
</svg>
