<svg width="45" height="21" viewBox="0 0 45 21" fill="none" xmlns="http://www.w3.org/2000/svg">
<g clip-path="url(#clip0_86_1949)">
<path d="M9.58929 17.5175C9.61256 16.6888 9.71968 15.8644 9.90903 15.0568C10.1231 14.0543 10.4056 12.9848 10.7566 11.8483C9.74594 11.9276 8.73528 12.0306 7.72463 12.1573C6.84831 12.2746 5.96551 12.3381 5.08129 12.3473C4.4528 13.7819 3.90663 15.2507 3.4454 16.7465C3.0542 18.0345 2.73716 19.3435 2.49584 20.6673C1.96196 20.5541 1.46588 20.308 1.05427 19.9523C0.64348 19.5768 0.288918 19.145 0.00135179 18.67C0.122631 18.428 0.264582 18.1232 0.42445 17.739C0.584318 17.3549 0.775884 16.9024 0.996392 16.3719C1.2169 15.8415 1.4691 15.2072 1.75163 14.4881C2.03415 13.7691 2.35803 12.9338 2.72462 11.9796C2.22113 11.7681 1.88531 11.4728 1.71717 11.0937C1.87658 11.0006 2.05093 10.9354 2.23261 10.901C2.49998 10.834 2.83074 10.7643 3.22765 10.6863L3.52534 9.95906C3.84599 9.13882 4.10922 8.45027 4.31503 7.89342C4.52084 7.33657 4.69632 6.78975 4.84149 6.25295C4.98666 5.71615 5.12447 5.12375 5.25494 4.47577C5.38541 3.82778 5.5416 3.00298 5.72352 2.00138C6.37116 2.12499 6.975 2.41434 7.47517 2.84076C8.01296 3.29346 8.47285 3.82998 8.83681 4.42929C8.64992 4.69091 8.48139 4.96497 8.3324 5.24952C8.13394 5.61407 7.91665 6.04926 7.68052 6.55507C7.4444 7.06088 7.18898 7.62821 6.91426 8.25706C6.63863 8.88591 6.34094 9.54848 6.02121 10.2448C6.96847 10.1154 7.92584 9.99414 8.89331 9.88113C9.7474 9.77485 10.607 9.71779 11.4677 9.71025C11.7434 8.92009 12.0296 8.14861 12.3263 7.39581C12.6231 6.64302 12.9167 5.95493 13.207 5.33155C13.4973 4.70817 13.7762 4.16134 14.0435 3.69107C14.2405 3.30674 14.4814 2.9462 14.7616 2.61656C14.9703 2.64669 15.1741 2.70368 15.368 2.78608C15.6298 2.88936 15.8856 3.00711 16.1342 3.13878C16.3821 3.26723 16.6195 3.41488 16.844 3.58034C17.0173 3.69743 17.165 3.84809 17.2781 4.02327C16.966 4.32498 16.6887 4.66014 16.4512 5.02259C16.1516 5.47439 15.8805 5.9442 15.6395 6.4293C15.3721 6.95972 15.1089 7.5348 14.8498 8.15453C14.5907 8.77427 14.3472 9.41952 14.1193 10.0903C14.2664 10.2169 14.3836 10.3739 14.4626 10.5504C14.5417 10.7269 14.5807 10.9184 14.5769 11.1115C14.5809 11.389 14.5186 11.6636 14.395 11.9126C14.2603 11.8758 14.1212 11.8569 13.9815 11.8565C13.8437 11.8565 13.7059 11.8483 13.5474 11.8333C13.2865 12.6481 13.0499 13.456 12.8376 14.2571C12.6254 15.0582 12.4462 15.8201 12.3002 16.5428C12.1541 17.2719 12.0392 17.9363 11.9556 18.536C11.8797 19.0385 11.8378 19.5454 11.8302 20.0534C11.8302 20.2038 11.8302 20.3269 11.8412 20.4157C11.847 20.4917 11.8585 20.5671 11.8757 20.6413C11.6227 20.6598 11.3695 20.6087 11.1439 20.4936C11.0088 20.4118 10.892 20.3034 10.8007 20.1751C10.7235 20.0603 10.656 19.9468 10.594 19.8334C10.528 19.7149 10.4229 19.6227 10.2963 19.5722C10.1653 19.5008 10.0613 19.389 9.99999 19.2537C9.90268 19.0732 9.82595 18.8824 9.77121 18.685C9.71017 18.4757 9.66412 18.2624 9.63339 18.0466C9.60651 17.8715 9.59178 17.6947 9.58929 17.5175Z" fill="#3371A5"/>
<path d="M23.6866 9.44367C23.649 10.2708 23.4787 11.0867 23.1822 11.8606C22.9151 12.5242 22.5141 13.1266 22.0039 13.631C21.4483 14.171 20.8209 14.6332 20.1392 15.0049C19.3134 15.4567 18.4569 15.8509 17.5758 16.1847C17.5758 16.2763 17.5758 16.3706 17.5648 16.469C17.5538 16.5674 17.5524 16.67 17.5524 16.7752C17.5528 16.9807 17.5685 17.1859 17.5992 17.389C17.6267 17.5915 17.6804 17.7895 17.7591 17.9782C17.8277 18.1495 17.9375 18.3016 18.0789 18.4212C18.2281 18.5388 18.4149 18.5994 18.6053 18.5921C19.0249 18.5901 19.4389 18.4968 19.8181 18.3186C20.2182 18.1356 20.5979 17.9116 20.951 17.6502C21.3073 17.3871 21.644 17.0988 21.9584 16.7875C22.2708 16.4768 22.5492 16.1929 22.7936 15.9359C22.931 16.0563 23.0608 16.1851 23.1822 16.3214C22.5462 17.1791 21.787 17.94 20.9289 18.5798C20.1112 19.1785 19.3367 19.5609 18.6053 19.7267C17.5524 19.6055 16.7324 19.2232 16.1453 18.5798C15.5618 17.946 15.2465 17.1138 15.2646 16.2557C15.2669 15.6154 15.3554 14.9781 15.5279 14.361C15.7036 13.716 15.9489 13.0918 16.2597 12.4991C16.5735 11.9026 16.9426 11.3365 17.3622 10.808C17.7613 10.2999 18.2141 9.83569 18.7128 9.42317C19.1628 9.04907 19.6616 8.73684 20.1957 8.49493C20.6732 8.27541 21.1924 8.15937 21.7186 8.15453C22.4206 8.24111 23.0766 8.67083 23.6866 9.44367ZM22.1128 10.1928C21.6556 10.2704 21.2194 10.4402 20.8311 10.6918C20.3603 10.9895 19.9394 11.3585 19.5838 11.7855C19.1713 12.2745 18.8145 12.8073 18.5199 13.374C18.1937 13.9939 17.9403 14.6489 17.7646 15.3261C18.9105 14.7757 19.9426 14.0176 20.8076 13.091C21.6134 12.2024 22.0484 11.2363 22.1128 10.1928Z" fill="#3371A5"/>
<path d="M24.7162 17.389C24.7162 16.7228 24.8765 15.7882 25.1972 14.5852C25.5178 13.3822 25.9676 11.9782 26.5464 10.3733C27.4937 7.82142 28.3826 5.69154 29.2131 3.98362C30.0437 2.2757 30.8559 0.94783 31.6498 0C31.8838 0.0465462 32.1107 0.122819 32.3251 0.226932C32.5924 0.347234 32.8557 0.479383 33.1148 0.62338C33.3563 0.757147 33.5896 0.905051 33.8135 1.06631C33.9647 1.16655 34.0994 1.28919 34.2132 1.42995C33.0224 2.82296 31.9723 4.32847 31.0778 5.92485C30.1034 7.69338 29.2769 9.53828 28.6068 11.441C28.0275 13.0205 27.5384 14.6312 27.1418 16.2653C26.8055 17.6953 26.6378 18.8869 26.6387 19.8402V20.3173C26.6387 20.3786 26.6461 20.4396 26.6608 20.4991C26.4695 20.4755 26.2834 20.4215 26.1095 20.3392C25.9806 20.2861 25.875 20.1892 25.8118 20.0658C25.7467 19.9429 25.6615 19.8315 25.5596 19.7363C25.4482 19.6157 25.3259 19.5055 25.1944 19.4068C25.0566 19.3157 24.9417 19.0774 24.8499 18.6919C24.7554 18.2641 24.7105 17.8269 24.7162 17.389Z" fill="#3371A5"/>
<path d="M30.1172 17.389C30.1172 16.7228 30.2771 15.7882 30.5968 14.5852C30.9166 13.3822 31.3668 11.9782 31.9474 10.3733C32.8929 7.82142 33.7818 5.69154 34.6142 3.98362C35.4466 2.2757 36.2588 0.94783 37.0508 0C37.2848 0.0465462 37.5118 0.122819 37.7261 0.226932C37.9935 0.347234 38.2567 0.479383 38.5158 0.62338C38.7571 0.756819 38.99 0.904737 39.2131 1.06631C39.3655 1.16612 39.5012 1.2888 39.6156 1.42995C38.4243 2.8229 37.3737 4.32841 36.4789 5.92485C35.5044 7.69338 34.6779 9.53828 34.0078 11.441C33.4285 13.0205 32.9394 14.6312 32.5428 16.2653C32.2047 17.6953 32.0356 18.8873 32.0356 19.8416V20.3187C32.0356 20.3799 32.043 20.441 32.0577 20.5005C31.8664 20.4769 31.6803 20.4229 31.5064 20.3405C31.3775 20.2875 31.272 20.1905 31.2087 20.0671C31.1431 19.9445 31.0579 19.8333 30.9565 19.7377C30.8446 19.617 30.7219 19.5068 30.5899 19.4082C30.453 19.3171 30.3386 19.0787 30.2468 18.6932C30.1535 18.2648 30.1101 17.8272 30.1172 17.389Z" fill="#3371A5"/>
<path d="M45 11.3507C45.0053 12.3318 44.8374 13.3062 44.5039 14.2298C44.1795 15.121 43.7118 15.9543 43.1188 16.6973C42.5285 17.4352 41.8142 18.0664 41.0075 18.5633C40.1819 19.071 39.2741 19.4336 38.3242 19.6351C37.8919 19.5991 37.472 19.4731 37.0921 19.2654C36.7121 19.0576 36.3806 18.7728 36.1191 18.4294C35.5678 17.724 35.2922 16.8249 35.2922 15.7322C35.2969 15.0559 35.3948 14.3835 35.583 13.7335C35.7808 13.0347 36.0582 12.3605 36.4099 11.7239C36.7675 11.0689 37.1905 10.4511 37.6723 9.87976C38.1372 9.32221 38.6668 8.82112 39.2503 8.38693C40.1369 7.72983 40.9694 7.40128 41.7476 7.40128C42.2648 7.67469 42.7743 8.24476 43.276 9.11147C43.3496 9.11194 43.4233 9.10783 43.4965 9.09917C43.5687 9.09046 43.6414 9.08635 43.7142 9.08687C44.5714 9.08687 45 9.84149 45 11.3507Z" fill="#3371A5"/>
<path d="M39.8732 13.2673C39.937 13.2093 39.9965 13.1467 40.051 13.0801C40.5141 12.4457 40.9703 11.806 41.4375 11.1744C41.5482 11.0287 41.6769 10.8974 41.8206 10.7834C41.8859 10.7282 41.9673 10.6954 42.0529 10.6897C42.1385 10.6839 42.2236 10.7057 42.2957 10.7517C42.3679 10.7976 42.4232 10.8654 42.4536 10.945C42.4839 11.0245 42.4876 11.1117 42.4642 11.1935C42.3979 11.4003 42.3018 11.5964 42.1789 11.7759C41.7393 12.387 41.2804 12.9844 40.8311 13.59C40.7484 13.7021 40.674 13.8196 40.5995 13.9386C40.5835 13.9713 40.571 14.0057 40.5623 14.0411L40.6009 14.0698C40.6919 13.9755 40.7897 13.8866 40.8765 13.7855C41.2679 13.3125 41.6525 12.8285 42.0452 12.361C42.128 12.2613 42.2203 12.1697 42.3209 12.0876C42.5221 11.9222 42.7137 11.9126 42.8901 12.0493C42.9779 12.1172 43.0385 12.2139 43.061 12.3222C43.0835 12.4304 43.0664 12.543 43.0127 12.6399C42.9329 12.7861 42.8377 12.9236 42.7288 13.05C42.2465 13.6091 41.7558 14.16 41.2693 14.7164C41.223 14.7759 41.1802 14.838 41.1412 14.9024L41.1742 14.9324C41.212 14.9102 41.2479 14.8851 41.2817 14.8572C41.5711 14.5838 41.8537 14.3008 42.1472 14.0302C42.2728 13.912 42.4115 13.8084 42.5607 13.7212C42.6221 13.6804 42.6972 13.6652 42.7699 13.6787C42.8426 13.6923 42.907 13.7335 42.9493 13.7937C43.0747 13.9235 43.1271 14.0848 43.0389 14.2161C42.8956 14.4358 42.7347 14.6438 42.5579 14.8381C42.1817 15.2482 41.7834 15.6324 41.4044 16.0356C41.2101 16.2421 41.0392 16.469 40.8531 16.6836C40.5889 17.0173 40.2362 17.2715 39.8347 17.4177C39.4049 17.5529 38.9396 17.5231 38.5309 17.3344C38.1933 17.204 37.8873 17.0044 37.6329 16.7486C37.3785 16.4927 37.1815 16.1864 37.0549 15.8497C36.9686 15.5712 36.9437 15.2774 36.9818 14.9885C37.0094 14.5852 37.0452 14.1819 37.0673 13.7773C37.0702 13.4405 36.9671 13.1112 36.7724 12.8354C36.7021 12.7233 36.6345 12.6153 36.5629 12.5004C36.5273 12.448 36.506 12.3874 36.5011 12.3244C36.4962 12.2614 36.5078 12.1983 36.5349 12.1411C36.562 12.0839 36.6036 12.0347 36.6556 11.9982C36.7076 11.9618 36.7682 11.9393 36.8316 11.9331C37.0153 11.9083 37.2022 11.9365 37.3701 12.0143C37.538 12.0921 37.6798 12.2163 37.7784 12.3719C37.9048 12.562 37.9806 12.7807 37.9989 13.0076C38.0044 13.0707 38.0212 13.1322 38.0485 13.1894C38.1616 13.4396 38.4014 13.4915 38.5874 13.2879C38.7791 13.0802 38.9542 12.8581 39.1111 12.6235C39.4749 12.0766 39.8167 11.5052 40.1806 10.9529C40.2782 10.8073 40.3982 10.6777 40.5361 10.5688C40.5677 10.5345 40.6057 10.5068 40.6481 10.4871C40.6905 10.4675 40.7364 10.4563 40.7831 10.4543C40.8298 10.4523 40.8765 10.4594 40.9204 10.4753C40.9644 10.4912 41.0047 10.5155 41.0392 10.5469C41.1099 10.6009 41.1603 10.6768 41.1823 10.7626C41.2042 10.8484 41.1966 10.939 41.1605 11.0199C41.0878 11.2044 40.9983 11.3819 40.8931 11.5503C40.5816 12.0466 40.2605 12.5373 39.9449 13.0308C39.9073 13.0969 39.8733 13.1649 39.8429 13.2345L39.8732 13.2673Z" fill="white"/>
<path d="M44.0408 14.577C43.7177 15.3004 43.1778 15.9075 42.4945 16.3159C42.5151 16.2847 42.5397 16.2562 42.5676 16.2311C43.1637 15.8271 43.6415 15.2739 43.9526 14.6276C43.9695 14.6007 43.9889 14.5756 44.0105 14.5524L44.0408 14.577Z" fill="white"/>
<path d="M39.6155 10.1354C39.5943 10.165 39.5708 10.1928 39.5452 10.2188C39.0195 10.6895 38.6254 11.2871 38.4013 11.9536C38.3848 12.0028 38.3862 12.0903 38.3035 12.063C38.5364 11.306 38.9803 10.6298 39.5838 10.1122L39.6155 10.1354Z" fill="white"/>
<path d="M43.4261 14.4895C43.1723 14.9874 42.7923 15.4114 42.3236 15.7199C42.522 15.5285 42.737 15.3494 42.9148 15.1416C43.0926 14.9338 43.2428 14.6932 43.4041 14.4676L43.4261 14.4895Z" fill="white"/>
<path d="M39.8636 10.6891C39.4719 11.0869 39.1641 11.5581 38.9581 12.0753C38.9898 11.7253 39.5383 10.8818 39.8636 10.6891Z" fill="white"/>
</g>
<defs>
<clipPath id="clip0_86_1949">
<rect width="44.7" height="20.5308" fill="white" transform="scale(1.00671)"/>
</clipPath>
</defs>
</svg>
