<svg width="14" height="14" viewBox="0 0 14 14" fill="none" xmlns="http://www.w3.org/2000/svg">
<path d="M7.01831 0.436243C8.0645 0.438666 9.09491 0.691617 10.0234 1.17403C10.9519 1.65644 11.7515 2.35427 12.3554 3.20915C12.9592 4.06403 13.3499 5.05116 13.4945 6.08799C13.6392 7.12482 13.5337 8.18123 13.187 9.16893C12.8402 10.1566 12.2621 11.0469 11.5012 11.7653C10.7402 12.4837 9.81846 13.0095 8.81294 13.2986C7.80742 13.5876 6.74732 13.6316 5.72133 13.4269C4.69534 13.2221 3.73324 12.7747 2.91544 12.1218C1.85219 11.2729 1.07919 10.114 0.703615 8.80583C0.328039 7.49765 0.3685 6.10499 0.819371 4.82085C1.27024 3.53671 2.10922 2.42475 3.21995 1.63911C4.33068 0.853477 5.65812 0.433093 7.01831 0.436243ZM7.01831 3.76697e-05C5.36606 -0.00538381 3.76525 0.574554 2.49943 1.63717C1.23361 2.69978 0.384536 4.17648 0.102608 5.80558C-0.179319 7.43468 0.124073 9.11102 0.959105 10.5377C1.79414 11.9643 3.10688 13.0492 4.66475 13.6001C6.22261 14.1509 7.92503 14.1322 9.47042 13.5472C11.0158 12.9622 12.3044 11.8488 13.1079 10.4041C13.9114 8.95944 14.1779 7.2768 13.8603 5.65429C13.5426 4.03178 12.6613 2.57415 11.3725 1.53963C10.1371 0.548023 8.60202 0.00523424 7.01831 3.76697e-05Z" fill="#303030"/>
</svg>
