<svg width="38" height="22" viewBox="0 0 38 22" fill="none" xmlns="http://www.w3.org/2000/svg">
<path d="M29.7993 3.05428e-05L9.62261 3.05428e-05C7.47143 -0.0059883 5.40586 0.843303 3.8798 2.36128C2.35374 3.87926 1.49203 5.94174 1.48404 8.09549C1.48404 10.2505 2.33911 12.3173 3.86115 13.8412C5.38318 15.3651 7.4475 16.2211 9.59998 16.2211L29.7993 16.2211C31.9518 16.2211 34.0161 15.3651 35.5381 13.8412C37.0602 12.3173 37.9152 10.2505 37.9152 8.09549C37.9073 5.94567 37.0487 3.88663 35.5275 2.3693C34.0063 0.851973 31.9466 1.52714e-05 29.7993 3.05428e-05Z" fill="#D6D6D6"/>
<g filter="url(#filter0_d_135_1164)">
<path d="M9.89415 2.19758C13.1476 2.19758 15.785 4.83816 15.785 8.09548C15.785 11.3528 13.1476 13.9934 9.89415 13.9934C6.64073 13.9934 4.00331 11.3528 4.00331 8.09548C4.00331 4.83816 6.64073 2.19758 9.89415 2.19758Z" fill="#676767"/>
</g>
<defs>
<filter id="filter0_d_135_1164" x="0" y="2.19759" width="19.7883" height="19.8024" filterUnits="userSpaceOnUse" color-interpolation-filters="sRGB">
<feFlood flood-opacity="0" result="BackgroundImageFix"/>
<feColorMatrix in="SourceAlpha" type="matrix" values="0 0 0 0 0 0 0 0 0 0 0 0 0 0 0 0 0 0 127 0" result="hardAlpha"/>
<feOffset dy="4"/>
<feGaussianBlur stdDeviation="2"/>
<feComposite in2="hardAlpha" operator="out"/>
<feColorMatrix type="matrix" values="0 0 0 0 0 0 0 0 0 0 0 0 0 0 0 0 0 0 0.25 0"/>
<feBlend mode="normal" in2="BackgroundImageFix" result="effect1_dropShadow_135_1164"/>
<feBlend mode="normal" in="SourceGraphic" in2="effect1_dropShadow_135_1164" result="shape"/>
</filter>
</defs>
</svg>
