<svg width="34" height="9" viewBox="0 0 34 9" fill="none" xmlns="http://www.w3.org/2000/svg">
<path d="M0.85076 1.37227C0.735281 1.3796 0.619543 1.36278 0.510926 1.32289C0.402309 1.28299 0.303203 1.2209 0.219924 1.14056C0.148129 1.06623 0.0917538 0.978442 0.0540393 0.882231C0.0163249 0.786021 -0.00198827 0.683295 0.000170958 0.579979C0.00182745 0.514491 0.0103516 0.449358 0.0255905 0.385646C0.0393172 0.317699 0.0619368 0.251856 0.0928621 0.189817C0.22252 0.219139 0.354648 0.236152 0.487504 0.240638C0.660911 0.249607 0.864218 0.254096 1.09742 0.254096H2.28136C2.72285 0.254096 3.14491 0.233661 3.54754 0.1928C3.95016 0.15194 4.30544 0.112578 4.61339 0.0747079C4.92133 0.0373358 5.12015 0.0193979 5.21134 0.0193979C5.31982 0.010996 5.42851 0.0328101 5.52536 0.0824177C5.6222 0.132025 5.7034 0.207488 5.75996 0.300437C5.88779 0.532523 5.97285 0.785696 6.0111 1.04788C5.83588 1.02836 5.65972 1.01838 5.48341 1.01798H4.3757C4.15136 1.01817 3.92724 1.03165 3.7045 1.05834C3.60484 1.25766 3.4987 1.49235 3.38609 1.76243C3.26949 2.0345 3.15588 2.31704 3.04226 2.61153C2.92865 2.90602 2.82251 3.19901 2.71936 3.49051C2.61622 3.78202 2.52802 4.04362 2.45328 4.27682C2.30379 4.72529 2.17074 5.14685 2.05863 5.53103C1.94651 5.91522 1.84636 6.27848 1.75965 6.60585C1.67295 6.93323 1.6012 7.25463 1.53991 7.5566C1.47862 7.85856 1.4233 8.15456 1.37547 8.44008C0.918031 8.37331 0.535342 8.08629 0.227396 7.57903C0.281212 7.36825 0.348484 7.13056 0.426218 6.88689C0.503952 6.64323 0.598128 6.35471 0.704264 6.0363C0.810401 5.71789 0.934476 5.35763 1.07799 4.95551C1.22149 4.55338 1.38593 4.09296 1.5698 3.58021L1.78506 2.98226C1.8613 2.77447 1.93456 2.56668 2.00631 2.36188C2.07807 2.15708 2.14234 1.95826 2.20064 1.76392C2.25894 1.56959 2.30828 1.39917 2.35013 1.24221C2.06312 1.27659 1.79254 1.305 1.53542 1.32892C1.2783 1.35284 1.04958 1.37227 0.85076 1.37227Z" fill="#231F20"/>
<path d="M9.08458 3.217C9.18041 3.21159 9.27638 3.22517 9.36694 3.25698C9.4575 3.2888 9.54088 3.33821 9.61228 3.40237C9.67767 3.47005 9.72831 3.55057 9.76099 3.63882C9.79367 3.72708 9.80767 3.82116 9.80212 3.91511C9.80147 3.97172 9.79647 4.02819 9.78717 4.08403C9.77852 4.1346 9.76654 4.18454 9.7513 4.23352C9.66161 4.21857 9.56294 4.20661 9.45232 4.19765C9.3417 4.18868 9.21314 4.1812 9.06216 4.1812C8.76153 4.18192 8.4615 4.20792 8.16523 4.25893C7.86625 4.30976 7.57923 4.35261 7.30417 4.38749C7.14771 4.74925 7.0042 5.09806 6.87365 5.43391C6.74359 5.77175 6.63296 6.08269 6.54028 6.36223C6.4476 6.64178 6.37734 6.88694 6.32502 7.09174C6.2836 7.2431 6.25461 7.39759 6.23832 7.55366C6.79143 7.42809 7.35001 7.32045 7.91408 7.23076C8.50272 7.14049 9.09748 7.09601 9.693 7.09771C9.77007 7.2132 9.83377 7.33708 9.88285 7.46696C9.93485 7.60347 9.9612 7.74841 9.96058 7.89449V8.02454C9.96021 8.07164 9.95317 8.11845 9.93965 8.16357H7.86326C7.65953 8.16417 7.45596 8.17515 7.25334 8.19646C7.04855 8.21888 6.83179 8.24728 6.60158 8.28465C6.37137 8.32202 6.11574 8.36388 5.82873 8.41471C5.5138 8.29213 5.20934 7.99315 4.91534 7.51778C5.03195 7.27112 5.19339 6.89591 5.40268 6.39363C5.61196 5.89135 5.87506 5.21716 6.19646 4.37554C6.06382 4.34236 5.94074 4.27875 5.83695 4.18975C5.73317 4.10075 5.65152 3.98882 5.59851 3.86279C5.68938 3.80186 5.79075 3.75826 5.89748 3.73423C6.06043 3.6834 6.26224 3.62958 6.49544 3.57577C6.59858 3.30818 6.68529 3.07648 6.75704 2.87766C6.8288 2.67884 6.89158 2.49348 6.9469 2.31858C7.00221 2.14367 7.05154 1.97326 7.09638 1.80583C7.14123 1.6384 7.18308 1.45602 7.22344 1.2572C7.01961 1.26925 6.81863 1.20475 6.65988 1.07633C6.59309 1.01719 6.54012 0.944078 6.50473 0.862186C6.46933 0.780294 6.45239 0.691624 6.45508 0.602452C6.45672 0.535976 6.46523 0.469847 6.48049 0.405126C6.49454 0.337553 6.51353 0.271099 6.5373 0.206304C6.67333 0.216769 6.80488 0.222746 6.93195 0.222746H8.6391C8.97965 0.224357 9.32002 0.206893 9.65862 0.170429C9.95759 0.136046 10.2252 0.103155 10.4434 0.0732575C10.6097 0.0474035 10.7775 0.0319268 10.9457 0.0269165C11.0305 0.0308805 11.113 0.0554051 11.1862 0.098376C11.2594 0.141347 11.321 0.201478 11.3658 0.273576C11.5078 0.483311 11.6022 0.721588 11.6423 0.971684C11.4709 0.947366 11.2982 0.933393 11.1251 0.929832H10.7708C10.4267 0.928309 10.0827 0.947269 9.74083 0.986629C9.4299 1.0245 9.13092 1.06337 8.8439 1.10323C8.80354 1.16452 8.7572 1.24226 8.70488 1.33793C8.65256 1.4336 8.58828 1.56665 8.50606 1.73706C8.42384 1.90748 8.32219 2.12125 8.20708 2.37986C8.09197 2.63848 7.94249 2.96137 7.77207 3.35004C8.03218 3.30818 8.27584 3.2768 8.50456 3.25288C8.69718 3.23123 8.89076 3.21926 9.08458 3.217Z" fill="#231F20"/>
<path d="M11.5556 8.36236C11.314 8.30462 11.0836 8.20712 10.8739 8.07385C10.8153 8.03418 10.7674 7.98071 10.7342 7.91815C10.7011 7.85559 10.6839 7.78585 10.6841 7.71507C10.6928 7.5576 10.7235 7.40213 10.7753 7.25316C10.8531 7.01371 10.944 6.77867 11.0473 6.54907C11.1669 6.27899 11.3104 5.98002 11.4779 5.65214C11.6453 5.32326 11.8351 4.97196 12.0474 4.59525H11.2267C11.2642 4.52987 11.3143 4.47256 11.3741 4.42663C11.4339 4.38071 11.5022 4.34708 11.575 4.32767C11.8211 4.23763 12.0755 4.17204 12.3344 4.13184C12.597 3.69183 12.883 3.26617 13.191 2.8567C13.49 2.45209 13.7959 2.07987 14.1089 1.74003C14.3949 1.41979 14.7031 1.12008 15.0312 0.8431C15.3035 0.609243 15.599 0.403867 15.9132 0.230192C15.9132 0.182356 15.9251 0.140506 15.9281 0.106123C15.9311 0.0717411 15.9281 0.0478167 15.9281 0.0343628C16.0594 0.0406257 16.1891 0.0647728 16.3138 0.106123C16.4744 0.154209 16.6317 0.212629 16.7847 0.281022C16.9256 0.342435 17.0624 0.412836 17.1943 0.491797C17.3139 0.562056 17.3812 0.623348 17.3946 0.671185C17.1042 1.23633 16.8805 1.8333 16.7279 2.4501C16.4818 3.38323 16.3005 4.33225 16.1853 5.29038C16.1504 5.56344 16.1215 5.87438 16.0985 6.22318C16.0756 6.57199 16.0637 6.96166 16.0627 7.39218V7.8541C16.0627 8.00359 16.0627 8.1755 16.0821 8.34592C16.0698 8.35288 16.0559 8.35649 16.0417 8.35639H15.9595C15.8469 8.35433 15.735 8.33878 15.6262 8.31004C15.501 8.2804 15.3777 8.24346 15.2569 8.19942C15.1494 8.16043 15.0461 8.11033 14.949 8.04993C14.8857 8.01641 14.8314 7.96823 14.7905 7.90941C14.7905 7.82121 14.7801 7.73601 14.7801 7.65229V7.38471C14.7801 6.96714 14.7955 6.54309 14.8264 6.11256C14.8573 5.68204 14.9101 5.23805 14.9849 4.78062C14.8742 4.70375 14.7413 4.66541 14.6067 4.67149H12.8008C12.6374 4.97047 12.4839 5.27244 12.3404 5.57739C12.1993 5.86861 12.076 6.16814 11.9712 6.47432C11.8564 6.79187 11.762 7.11642 11.6886 7.446C11.6213 7.74768 11.5769 8.054 11.5556 8.36236ZM15.5126 2.20344C15.5395 2.10777 15.5724 1.97473 15.6097 1.8073C15.6471 1.63987 15.683 1.46198 15.7174 1.27661C15.5112 1.35888 15.3195 1.47343 15.1493 1.61595C14.9174 1.80144 14.7014 2.00596 14.5035 2.22736C14.2808 2.46953 14.055 2.74459 13.8263 3.04805C13.5976 3.35151 13.3779 3.6774 13.1656 4.01973C13.8165 3.95813 14.4701 3.92919 15.1239 3.93302C15.1777 3.64501 15.2375 3.35849 15.3033 3.07346C15.3691 2.78844 15.4388 2.49943 15.5126 2.20643V2.20344Z" fill="#231F20"/>
<path d="M21.9137 8.34442C21.9011 8.35066 21.8874 8.35422 21.8733 8.35488H21.7911C21.6786 8.35219 21.5667 8.33664 21.4578 8.30854C21.3326 8.2779 21.2093 8.23996 21.0885 8.19493C20.9806 8.15689 20.8772 8.10674 20.7806 8.04544C20.7166 8.00896 20.6623 7.9577 20.6221 7.89595C20.6146 7.80028 20.6116 7.70162 20.6116 7.59697V7.298C20.6145 6.49537 20.6709 5.69382 20.7806 4.89871C20.91 3.98547 21.0967 3.08127 21.3397 2.19147C21.3666 2.0958 21.3965 1.97471 21.4264 1.82821C21.4563 1.68172 21.4906 1.52176 21.525 1.35135C21.3078 1.53583 21.1118 1.7439 20.9405 1.97173C20.7153 2.25575 20.4776 2.5906 20.2275 2.97628C19.9773 3.36196 19.7282 3.78601 19.48 4.24843C19.2304 4.70886 19.0032 5.17825 18.7984 5.65213C18.599 6.11289 18.4228 6.58337 18.2707 7.0618C18.1325 7.48145 18.0412 7.91513 17.9986 8.35488C17.7573 8.29695 17.527 8.20001 17.3169 8.06787C17.2591 8.02951 17.2116 7.97757 17.1785 7.91659C17.1454 7.85561 17.1277 7.78744 17.1271 7.71806C17.1382 7.53939 17.1765 7.36347 17.2407 7.19635C17.3154 6.97062 17.4216 6.70303 17.5576 6.39658C17.6936 6.09013 17.8566 5.74481 18.0599 5.36511C18.2632 4.98541 18.477 4.57731 18.7161 4.1408C18.9892 3.64251 19.2578 3.17411 19.5219 2.73561C19.786 2.29711 20.0441 1.89848 20.2962 1.5397C20.5247 1.21609 20.7744 0.907966 21.0437 0.617363C21.2532 0.383175 21.4966 0.18163 21.7657 0.0194092C21.8965 0.0255642 22.0257 0.0497066 22.1499 0.0911607C22.311 0.138978 22.4688 0.197413 22.6223 0.266069C22.7632 0.327481 22.9 0.397882 23.0319 0.476843C23.1515 0.547103 23.2187 0.608395 23.2322 0.656231C23.1016 0.935878 22.9888 1.22347 22.8943 1.51729C22.7638 1.89998 22.6322 2.33398 22.4997 2.81932C22.3671 3.30466 22.2406 3.8189 22.12 4.36204C22.0004 4.90519 21.9062 5.4264 21.8375 5.9257C21.9944 5.55048 22.1783 5.15881 22.3861 4.75221C22.5939 4.3456 22.8151 3.94198 23.0483 3.54135C23.2815 3.14073 23.5177 2.75355 23.7599 2.37833C24.002 2.00311 24.2412 1.6593 24.4729 1.34687C24.7046 1.03444 24.9214 0.765355 25.1247 0.532153C25.2825 0.339913 25.4632 0.167718 25.6629 0.0194092C25.7936 0.0256958 25.9229 0.0498349 26.0471 0.0911607C26.2076 0.139247 26.3649 0.197676 26.5179 0.266069C26.6593 0.327483 26.7966 0.397883 26.929 0.476843C27.0486 0.547103 27.1144 0.608395 27.1278 0.656231C26.8839 1.10818 26.6914 1.58603 26.5538 2.08085C26.3856 2.66135 26.2474 3.25012 26.1397 3.84482C26.0261 4.45972 25.9404 5.06963 25.8826 5.67456C25.8248 6.27949 25.7959 6.82113 25.7959 7.29949V7.79131C25.7959 7.96322 25.7959 8.13962 25.8168 8.32498C25.7014 8.3231 25.5864 8.31109 25.473 8.28911C25.341 8.26519 25.2107 8.23273 25.0828 8.19194C24.9651 8.15367 24.8503 8.10722 24.739 8.05291C24.6543 8.01547 24.5803 7.95739 24.5238 7.88399C24.5238 7.78832 24.5133 7.68965 24.5133 7.58501V7.28604C24.5159 6.48334 24.5728 5.68175 24.6837 4.88675C24.8126 3.97353 24.9988 3.06933 25.2413 2.17952C25.2697 2.08385 25.2996 1.95528 25.334 1.79084C25.3684 1.62641 25.4028 1.45599 25.4371 1.2781C25.1885 1.42012 24.9677 1.606 24.7854 1.82673C24.5142 2.1351 24.2674 2.46395 24.0469 2.81035C23.7968 3.19703 23.5506 3.62606 23.3084 4.09745C23.0663 4.56883 22.848 5.04919 22.6537 5.53852C22.4621 6.01424 22.2974 6.50034 22.1604 6.99453C22.0321 7.43486 21.9495 7.8872 21.9137 8.34442Z" fill="#231F20"/>
<path d="M33.9385 0.675694C33.958 0.7908 33.9729 0.871522 33.9834 0.916368C33.9956 0.975346 34.0012 1.03553 33.9998 1.09576C34.0007 1.31492 33.9495 1.53115 33.8503 1.72659C33.7656 1.90616 33.6229 2.05201 33.4452 2.14068C33.3062 1.95424 33.1363 1.79296 32.9429 1.66381C32.7402 1.52879 32.5219 1.41886 32.2927 1.33643C32.0545 1.25026 31.8088 1.18669 31.5587 1.14658C31.3145 1.10669 31.0676 1.0862 30.8202 1.08529C30.5952 1.08436 30.3706 1.10337 30.149 1.1421C29.9601 1.17316 29.7748 1.22324 29.5959 1.29159C29.4539 1.34511 29.3246 1.42758 29.2162 1.53376C29.1723 1.57628 29.1374 1.62715 29.1136 1.68338C29.0897 1.73961 29.0773 1.80005 29.0772 1.86114C29.1149 2.04048 29.213 2.20144 29.3552 2.31707C29.5388 2.48653 29.7391 2.6368 29.9532 2.76554C30.1924 2.91403 30.4574 3.05953 30.7484 3.20204C31.0395 3.34455 31.3245 3.48109 31.6035 3.61164C31.9533 3.77608 32.2523 3.92556 32.5005 4.0601C32.73 4.18303 32.9405 4.33863 33.1253 4.52203C33.2867 4.68413 33.4124 4.87811 33.4945 5.09158C33.5829 5.33786 33.625 5.59837 33.6186 5.85995C33.6212 6.19433 33.5619 6.5263 33.4437 6.8391C33.3315 7.1363 33.1589 7.40706 32.937 7.63438C32.7072 7.86335 32.433 8.04292 32.1312 8.16206C31.7948 8.29218 31.4365 8.35662 31.0758 8.35192C30.6565 8.3469 30.2395 8.28813 29.8351 8.17702C29.403 8.06521 28.9848 7.90525 28.5883 7.70015C28.2325 7.52051 27.9075 7.28536 27.6256 7.00353C27.5092 6.89681 27.4153 6.76792 27.3493 6.62443C27.2834 6.48095 27.2467 6.32574 27.2415 6.1679C27.2505 5.98816 27.2899 5.81125 27.3581 5.64469C27.4588 5.39864 27.6032 5.17278 27.7841 4.97796C27.8317 5.24497 27.9464 5.49549 28.1175 5.70597C28.3632 6.02514 28.6721 6.29027 29.0249 6.48481C29.3875 6.69897 29.7792 6.85959 30.1879 6.96168C30.5546 7.05722 30.9316 7.10743 31.3105 7.11117C31.6286 7.12005 31.9454 7.06935 32.2448 6.96168C32.4531 6.88459 32.6445 6.76783 32.8084 6.61786C32.9311 6.50415 33.0288 6.3662 33.0954 6.21274C33.1407 6.1082 33.1718 5.99811 33.1881 5.88536C33.1747 5.73472 33.1073 5.59402 32.9983 5.48922C32.8547 5.34532 32.6923 5.22161 32.5154 5.12148C32.2881 4.98795 32.0541 4.86621 31.8143 4.75672C31.5467 4.63414 31.2702 4.51006 30.9831 4.38748C30.5526 4.19614 30.1819 4.01676 29.871 3.84933C29.5965 3.70682 29.3384 3.5349 29.1011 3.33659C28.9188 3.18517 28.7688 2.99859 28.6601 2.78797C28.5655 2.58232 28.5185 2.35801 28.5226 2.13171C28.5249 1.74238 28.6465 1.36311 28.8709 1.04493C29.1202 0.690567 29.4701 0.419244 29.8754 0.266098C30.1001 0.168587 30.3362 0.0997701 30.578 0.0612901C30.8201 0.0205457 31.0651 4.87012e-05 31.3105 3.86594e-06C31.7579 -0.000563496 32.2032 0.061321 32.6335 0.183872C33.0796 0.316822 33.5157 0.481177 33.9385 0.675694Z" fill="#231F20"/>
</svg>
