<svg width="26" height="26" viewBox="0 0 26 26" fill="none" xmlns="http://www.w3.org/2000/svg">
<path d="M3.05913 11.3026H22.3918C22.3918 11.4657 22.4197 11.6148 22.4197 11.7686C22.4197 13.5952 22.4197 15.4219 22.4197 17.2486C22.4197 18.8702 21.4 19.9373 19.7843 19.9467C15.0877 19.9467 10.3927 19.9467 5.69923 19.9467C4.08352 19.9467 3.06379 18.8656 3.05913 17.2486C3.05448 15.2681 3.05913 13.311 3.05913 11.3026ZM8.763 15.9625C8.763 14.3408 8.76305 14.3315 7.18459 14.3315C5.52698 14.3315 5.51297 14.3315 5.51297 16.0324C5.51297 17.5655 5.5549 17.6074 7.10542 17.6074C8.76303 17.6167 8.763 17.6167 8.763 15.9625Z" fill="#676767"/>
<path d="M22.4849 9.11711H3.14764C3.0699 8.78442 3.06185 8.43921 3.12399 8.10325C3.18614 7.76729 3.31714 7.44784 3.50873 7.16504C3.70032 6.88225 3.94832 6.64223 4.23718 6.4601C4.52603 6.27798 4.84947 6.15769 5.18706 6.10683C5.42184 6.07806 5.65833 6.0656 5.89482 6.06954H19.5795C20.953 6.06954 21.861 6.61475 22.2568 7.73312C22.3716 8.18721 22.4479 8.65018 22.4849 9.11711Z" fill="#676767"/>
<path d="M25.9678 4.20555C25.9678 4.76473 25.9678 5.31926 25.9678 5.87844C25.9728 6.02235 25.949 6.16581 25.8978 6.30039C25.8466 6.43497 25.7691 6.55795 25.6697 6.66213C25.5704 6.7663 25.4513 6.84958 25.3194 6.90705C25.1875 6.96453 25.0454 6.99505 24.9015 6.99683C24.7575 6.99757 24.6148 6.9691 24.4821 6.91315C24.3494 6.8572 24.2294 6.77493 24.1293 6.67128C24.0292 6.56764 23.9512 6.44478 23.8998 6.31012C23.8485 6.17546 23.8249 6.03179 23.8306 5.88777C23.8306 4.95579 23.8306 3.99586 23.8306 3.0499C23.8306 2.3416 23.649 2.16452 22.8994 2.15986C22.0054 2.15986 21.1114 2.15986 20.2174 2.15986C20.0632 2.18265 19.9059 2.17192 19.7562 2.12841C19.6065 2.08489 19.468 2.0096 19.35 1.90767C19.232 1.80574 19.1373 1.67957 19.0724 1.53774C19.0075 1.39591 18.974 1.24175 18.974 1.08576C18.974 0.929771 19.0075 0.775612 19.0724 0.63378C19.1373 0.491948 19.232 0.365766 19.35 0.263839C19.468 0.161912 19.6065 0.0866357 19.7562 0.0431172C19.9059 -0.000401256 20.0632 -0.0111431 20.2174 0.0116465C21.2138 0.0116465 22.2102 0.0116465 23.2066 0.0116465C23.5662 0.00665492 23.9231 0.0736929 24.2563 0.208804C24.5896 0.343916 24.8924 0.544375 25.1471 0.798386C25.4018 1.0524 25.6031 1.35482 25.7392 1.68787C25.8754 2.02092 25.9436 2.37786 25.9398 2.73768C25.9724 3.22697 25.9678 3.71626 25.9678 4.20555Z" fill="#676767"/>
<path d="M21.7725 25.9859C21.2324 25.9859 20.6922 25.9859 20.1521 25.9859C20.0044 25.9941 19.8565 25.9723 19.7173 25.9219C19.5782 25.8714 19.4506 25.7934 19.3423 25.6924C19.2341 25.5915 19.1473 25.4697 19.0873 25.3343C19.0272 25.199 18.995 25.0529 18.9927 24.9048C18.9957 24.7606 19.0274 24.6184 19.0859 24.4866C19.1444 24.3548 19.2285 24.2359 19.3334 24.137C19.4383 24.0381 19.5619 23.9611 19.6968 23.9105C19.8318 23.8599 19.9755 23.8367 20.1195 23.8423C21.0507 23.8423 22.0053 23.8423 22.9505 23.8423C23.6303 23.8423 23.8119 23.6513 23.8166 22.9616C23.8166 22.0296 23.8166 21.1349 23.8166 20.2263C23.7964 20.0736 23.809 19.9185 23.8536 19.7712C23.8982 19.6239 23.9737 19.4878 24.0751 19.372C24.1765 19.2562 24.3015 19.1635 24.4416 19.0999C24.5817 19.0364 24.7337 19.0035 24.8875 19.0035C25.0413 19.0035 25.1933 19.0364 25.3334 19.0999C25.4735 19.1635 25.5985 19.2562 25.6999 19.372C25.8012 19.4878 25.8768 19.6239 25.9214 19.7712C25.966 19.9185 25.9786 20.0736 25.9584 20.2263C25.9584 21.2421 25.9584 22.2533 25.9584 23.2645C25.9634 23.6243 25.8964 23.9815 25.7614 24.315C25.6264 24.6485 25.4261 24.9516 25.1723 25.2065C24.9185 25.4614 24.6163 25.6629 24.2835 25.7991C23.9507 25.9354 23.5941 26.0036 23.2345 25.9999C22.7596 25.9952 22.2614 25.9859 21.7725 25.9859Z" fill="#676767"/>
<path d="M0.0186431 4.16833C0.0186431 3.6604 0.0186431 3.15248 0.0186431 2.64455C0.0328738 1.95278 0.313496 1.29323 0.801936 0.803533C1.29038 0.31384 1.9489 0.0318355 2.6401 0.016366C3.70637 0.016366 4.76798 0.016366 5.83426 0.016366C6.11828 0.016366 6.39068 0.12928 6.59152 0.330277C6.79235 0.531274 6.90515 0.803882 6.90515 1.08813C6.90515 1.37239 6.79235 1.64501 6.59152 1.84601C6.39068 2.047 6.11828 2.15992 5.83426 2.15992C4.90301 2.15992 3.94385 2.15992 2.99863 2.15992C2.34211 2.15992 2.15117 2.35097 2.14651 3.00336C2.14651 3.93533 2.14651 4.83003 2.14651 5.74337C2.1639 5.89486 2.15005 6.04831 2.10576 6.19422C2.06146 6.34012 1.98769 6.47537 1.88903 6.59157C1.79038 6.70778 1.66892 6.80248 1.5322 6.86979C1.39548 6.93711 1.24639 6.97561 1.0942 6.9829C0.456298 6.9829 0.00465622 6.48895 0 5.73404C0 5.21214 0 4.68557 0 4.16366L0.0186431 4.16833Z" fill="#676767"/>
<path d="M0.0187135 21.7594C0.0187135 21.2189 0.0187135 20.6783 0.0187135 20.1378C0.0143742 19.9936 0.0385171 19.8499 0.0898186 19.7151C0.14112 19.5803 0.218545 19.4569 0.317628 19.3521C0.416711 19.2473 0.535501 19.1632 0.667185 19.1045C0.798869 19.0458 0.940838 19.0137 1.08495 19.0101C1.22878 19.01 1.37114 19.0389 1.50357 19.0951C1.63599 19.1513 1.75579 19.2336 1.85574 19.3371C1.95569 19.4406 2.03373 19.5631 2.08531 19.6975C2.13688 19.8319 2.1609 19.9753 2.1559 20.1191C2.1559 21.0511 2.1559 22.011 2.1559 22.9617C2.1559 23.6467 2.3468 23.8331 3.02661 23.8377C3.95786 23.8377 4.85185 23.8377 5.76447 23.8377C5.91696 23.8176 6.07197 23.8302 6.21918 23.8748C6.36639 23.9195 6.50241 23.995 6.61807 24.0965C6.73374 24.198 6.82644 24.323 6.88993 24.4632C6.95343 24.6034 6.98627 24.7556 6.98627 24.9095C6.98627 25.0634 6.95343 25.2156 6.88993 25.3558C6.82644 25.496 6.73374 25.621 6.61807 25.7225C6.50241 25.8239 6.36639 25.8995 6.21918 25.9441C6.07197 25.9888 5.91696 26.0014 5.76447 25.9813C4.74942 25.9813 3.73435 25.9813 2.72395 25.9813C2.36812 25.9825 2.01556 25.9133 1.68653 25.7778C1.3575 25.6422 1.05849 25.4429 0.806667 25.1913C0.554844 24.9397 0.355209 24.6408 0.219183 24.3117C0.0831577 23.9827 0.0134372 23.63 0.0140528 23.2739C0.00939657 22.7753 0.0187135 22.2673 0.0187135 21.7594Z" fill="#676767"/>
<path d="M8.76297 15.9625C8.76297 17.6075 8.763 17.6075 7.10539 17.6075C5.55487 17.6075 5.51294 17.5655 5.51294 16.0324C5.51294 14.3455 5.51298 14.3316 7.18456 14.3316C8.75836 14.3409 8.76297 14.3502 8.76297 15.9625Z" fill="white"/>
</svg>
