<svg width="20" height="21" viewBox="0 0 20 21" fill="none" xmlns="http://www.w3.org/2000/svg">
<g clip-path="url(#clip0_165_1531)">
<path d="M10.1971 -2.37816e-06C7.67621 -0.00893937 5.24921 1.00366 3.42172 2.82687C1.59422 4.65009 0.507186 7.14332 0.38689 9.78722C0.38689 9.93284 0.38689 10.0861 0.38689 10.2317C0.386172 12.0968 0.873446 13.9261 1.7956 15.5201L-0.0219116 21.0077L5.41601 19.1912C6.87002 20.0287 8.50215 20.4663 10.1605 20.4635C11.4496 20.4726 12.7276 20.2139 13.921 19.7022C15.1144 19.1905 16.1996 18.4361 17.1142 17.4822C18.0287 16.5283 18.7545 15.394 19.2498 14.1443C19.7451 12.8947 20.0001 11.5546 20 10.2011C20 10.1168 20 10.0325 20 9.94051C19.9184 7.27026 18.8489 4.7385 17.0187 2.88258C15.1884 1.02665 12.7415 -0.0073592 10.1971 -2.37816e-06ZM10.1971 18.831C8.58427 18.8342 7.00593 18.3413 5.65694 17.4131L2.48899 18.4708L3.51822 15.2748C2.49205 13.8144 1.93938 12.0466 1.94155 10.2317C1.94165 9.95265 1.95631 9.67377 1.98539 9.39634C2.19356 7.26344 3.14912 5.28786 4.66657 3.85316C6.18402 2.41846 8.1551 1.62701 10.1971 1.63248C12.2663 1.62878 14.2611 2.44261 15.7852 3.91225C17.3093 5.38189 18.2511 7.39978 18.4234 9.56496C18.4343 9.78707 18.4343 10.0096 18.4234 10.2317C18.4137 12.5159 17.5427 14.7031 16.001 16.3147C14.4593 17.9263 12.3725 18.831 10.1971 18.831Z" fill="white"/>
<path d="M14.6862 12.3011C14.438 12.1785 13.2263 11.5347 13.0365 11.481C12.8467 11.4274 12.657 11.3584 12.4964 11.6113C12.3358 11.8642 11.8686 12.4237 11.7299 12.5923C11.5912 12.761 11.4526 12.7763 11.2117 12.6536C10.5028 12.3583 9.8482 11.9355 9.27739 11.4044C8.74901 10.9015 8.29622 10.3175 7.93434 9.67226C7.79566 9.41934 7.93436 9.28905 8.04385 9.15876C8.15334 9.02847 8.27742 8.86752 8.40151 8.7219C8.43693 8.68636 8.46652 8.64493 8.4891 8.59927C8.55057 8.5059 8.60196 8.40565 8.64235 8.30036C8.67887 8.23395 8.69813 8.15862 8.69813 8.08194C8.69813 8.00525 8.67887 7.92991 8.64235 7.8635C8.58396 7.74087 8.09491 6.50693 7.91243 6.00109C7.72994 5.49525 7.51097 5.58723 7.36498 5.58723C7.21899 5.58723 7.06571 5.58723 6.90512 5.58723C6.78312 5.58974 6.66298 5.61898 6.55237 5.67309C6.44175 5.7272 6.3431 5.80499 6.26278 5.90146C5.99208 6.16983 5.77763 6.49449 5.6331 6.85475C5.48857 7.215 5.41711 7.60294 5.42335 7.9938C5.42717 8.28202 5.46896 8.56831 5.54747 8.84453C5.73218 9.4743 6.02403 10.0637 6.40882 10.5843C6.52561 10.7529 8.07297 13.3664 10.5182 14.3704C12.9635 15.3745 12.9635 15.0372 13.4379 14.9989C13.7735 14.9321 14.0916 14.7908 14.371 14.5847C14.6504 14.3785 14.8848 14.1121 15.0584 13.8033C15.2176 13.4311 15.2683 13.0178 15.2044 12.6153C15.0803 12.5004 14.9197 12.4237 14.6862 12.3011Z" fill="white"/>
</g>
<defs>
<clipPath id="clip0_165_1531">
<rect width="20" height="21" fill="white"/>
</clipPath>
</defs>
</svg>
