<svg width="10" height="10" viewBox="0 0 10 10" fill="none" xmlns="http://www.w3.org/2000/svg">
<path d="M5 0C3.67392 0 2.40212 0.52678 1.46444 1.46446C0.526755 2.40214 0 3.67392 0 5C0 6.32608 0.526755 7.59786 1.46444 8.53554C2.40212 9.47322 3.67392 10 5 10C6.32608 10 7.59783 9.47322 8.53551 8.53554C9.47319 7.59786 10 6.32608 10 5C10 3.67392 9.47319 2.40214 8.53551 1.46446C7.59783 0.52678 6.32608 0 5 0ZM7.30835 7.25C7.28825 7.28466 7.26128 7.3149 7.22916 7.33884C7.19703 7.36279 7.16039 7.37995 7.12143 7.3893C7.08247 7.39865 7.04201 7.39999 7.00251 7.39324C6.96302 7.38648 6.92532 7.37178 6.89168 7.35001C5.71252 6.62084 4.22914 6.47083 2.47498 6.875C2.39489 6.89386 2.3106 6.88038 2.2404 6.83748C2.17019 6.79457 2.11977 6.72571 2.10002 6.64584C2.08101 6.56632 2.09391 6.48252 2.13598 6.41242C2.17804 6.34231 2.24588 6.29148 2.32498 6.27083C4.22915 5.85416 5.8875 6.02084 7.19167 6.825C7.22843 6.84404 7.26084 6.87048 7.28689 6.90266C7.31293 6.93483 7.33203 6.97205 7.34299 7.01197C7.35395 7.05189 7.35653 7.09365 7.35057 7.13462C7.3446 7.17558 7.33024 7.21486 7.30835 7.25ZM7.9125 5.87083C7.88606 5.9139 7.85136 5.95132 7.81041 5.98094C7.76947 6.01055 7.72308 6.03178 7.6739 6.0434C7.62472 6.05501 7.57372 6.05678 7.52385 6.04862C7.47399 6.04046 7.42623 6.02253 7.38332 5.99584C6.63018 5.57196 5.8001 5.30242 4.94161 5.20298C4.08312 5.10354 3.21342 5.17618 2.38332 5.41667C2.28662 5.44561 2.18244 5.43569 2.09295 5.389C2.00346 5.34231 1.93572 5.26253 1.90414 5.16666C1.87552 5.06997 1.88617 4.9659 1.93375 4.87699C1.98132 4.78808 2.06198 4.7215 2.1583 4.69167C3.09618 4.4223 4.07847 4.34324 5.04735 4.45916C6.01623 4.57509 6.95214 4.88364 7.79999 5.36667C7.84166 5.39131 7.87784 5.42423 7.90629 5.4634C7.93474 5.50256 7.95485 5.54715 7.96539 5.59439C7.97594 5.64164 7.97668 5.69055 7.96758 5.73809C7.95848 5.78564 7.93974 5.83082 7.9125 5.87083ZM8.61252 4.3375C8.53601 4.43114 8.4293 4.49523 8.3107 4.5188C8.1921 4.54237 8.06899 4.52394 7.96249 4.46667C6.35416 3.5125 3.67083 3.41249 2.12916 3.88749C2.01257 3.92194 1.88718 3.90994 1.77923 3.85403C1.67127 3.79811 1.58912 3.70261 1.54999 3.58751C1.51661 3.47092 1.5291 3.34597 1.58488 3.23828C1.64066 3.1306 1.73549 3.04833 1.84998 3.00833C3.63331 2.48333 6.56665 2.59167 8.42499 3.6875C8.53507 3.74977 8.61637 3.85271 8.65143 3.97423C8.68648 4.09575 8.67252 4.22617 8.61252 4.3375Z" fill="#1F263E"/>
</svg>
