<svg width="65" height="66" viewBox="0 0 65 66" fill="none" xmlns="http://www.w3.org/2000/svg">
<path d="M5.27026 39.529V42.6013H8.34459V39.529V36.4527H5.27026V39.529Z" fill="#BA3131"/>
<path d="M8.34459 21.9595H5.27026V25.0338H8.34459V21.9595Z" fill="#BA3131"/>
<path d="M26.3514 54.0203H23.2771V57.0946H26.3514V54.0203Z" fill="#BA3131"/>
<path d="M8.16967 27.9332V30.8326H5.27026V33.7283H8.16967V36.6277H11.0691H13.9685V39.5271H16.8641V36.6277H19.7635V33.7283V30.8326H16.8641V33.7283H13.9685H11.0691V30.8326V27.9332V25.0338H8.16967V27.9332Z" fill="#BA3131"/>
<path d="M14.2755 21.9595H11.4189V25.0338H14.2755H17.1284V21.9595H14.2755Z" fill="#BA3131"/>
<path d="M27.2275 45.2365H28.9864V42.6013H27.2275H25.4729V45.2365H27.2275Z" fill="#BA3131"/>
<path d="M19.7636 25.0338H17.1284V28.1081H19.7636V25.0338Z" fill="#BA3131"/>
<path d="M40.4054 36.4527H37.3311V39.527H40.4054V36.4527Z" fill="#BA3131"/>
<path d="M43.0407 4.83105H40.4055V7.46619H43.0407V4.83105Z" fill="#BA3131"/>
<path d="M25.618 27.8885V25.0326H28.5472V22.1766H25.618V19.3243H22.6926V22.1766H19.7634V25.0326H22.6926V27.8885V30.7445V33.5968V36.4527H25.618V33.5968V30.7445H28.5472V27.8885H25.618Z" fill="#BA3131"/>
<path d="M40.1858 57.0946H43.0405V54.0203H40.1858H37.3311V57.0946H40.1858Z" fill="#BA3131"/>
<path d="M37.3312 4.83105H34.696V7.46619H37.3312V4.83105Z" fill="#BA3131"/>
<path d="M36.8919 27.8153V24.8874H33.9627V21.9595H31.0335V24.8874V27.8153H28.1082V30.7433H31.0335H33.9627V27.8153H36.8919Z" fill="#BA3131"/>
<path d="M53.142 21.9595H50.0676V25.0338H53.142V21.9595Z" fill="#BA3131"/>
<path d="M22.8378 36.4527H20.2026V39.527H22.8378V36.4527Z" fill="#BA3131"/>
<path d="M34.3424 19.3243V16.3588H37.2418V13.3933H40.1412H43.0406V10.4317H40.1412V7.46619H37.2418V10.4317H34.3424V13.3933H31.4468V16.3588H28.5474V19.3243H31.4468H34.3424Z" fill="#BA3131"/>
<path d="M34.4019 39.527V36.6723H37.3311V33.8176H34.4019H31.4766V36.6723H28.5474V39.527H31.4766H34.4019Z" fill="#BA3131"/>
<path d="M43.0405 51.0911V48.1619H40.1851H37.3298V45.2365H34.4744V48.1619H31.6228V51.0911H28.7675H25.9121V54.0203H28.7675H31.6228H34.4744V51.0911H37.3298V54.0203H40.1851V51.0911H43.0405Z" fill="#BA3131"/>
<path d="M31.6217 7.68579V4.83105H28.6925H25.7633V7.68579H22.8379V10.5405H25.7633H28.6925V7.68579H31.6217Z" fill="#BA3131"/>
<path d="M31.6217 10.5405H28.5474V13.1757H31.6217V10.5405Z" fill="#BA3131"/>
<path d="M38.9426 22.045H36.0134V24.9444V27.8438V30.7432H38.9426H41.8718V27.8438H38.9426V24.9444H41.8718V22.045H44.7972V19.1494H41.8718V16.25H38.9426V19.1494V22.045Z" fill="#BA3131"/>
<path d="M28.5472 13.1757H25.9121V16.25H28.5472V13.1757Z" fill="#BA3131"/>
<path d="M37.3311 42.3799V45.2365H40.2965H43.262V42.3799H46.2237H49.1892V39.527H46.2237H43.262H40.2965V42.3799H37.3311Z" fill="#BA3131"/>
<path d="M53.142 30.7432H50.0676V33.8175H53.142V30.7432Z" fill="#BA3131"/>
<path d="M43.0407 33.8176H40.4055V36.4527H43.0407V33.8176Z" fill="#BA3131"/>
<path d="M50.5068 25.0338H47.6521H44.7974V27.8885H47.6521V30.7433H50.5068V27.8885V25.0338Z" fill="#BA3131"/>
<path d="M49.1891 33.8176H46.1147V36.4527H49.1891V33.8176Z" fill="#BA3131"/>
<path d="M17.2208 51.1282H25.9122V39.527H14.2709V42.4142H11.4302V45.3014H14.2709V48.1886H11.4302V51.072H14.2709V51.1282H14.3123V53.9591H11.4189V59.7297H14.3123V56.8463H17.2095V51.1282H17.2208ZM23.681 41.7543V48.9722H16.4419V41.7468L23.681 41.7543Z" fill="#BA3131"/>
<path d="M55.0438 39.527H57.973V36.4527H55.0438H52.1184H49.1892V39.527H52.1184H55.0438Z" fill="#BA3131"/>
<path d="M54.8987 28.1081H57.973V25.0338V21.9595H54.8987V25.0338V28.1081Z" fill="#BA3131"/>
<path d="M31.6217 42.6013H28.9866V45.456V48.3108H31.6217V45.456V42.6013Z" fill="#BA3131"/>
<path d="M60.608 39.527H57.9729V42.6014H60.608V39.527Z" fill="#BA3131"/>
<path d="M60.608 33.5961V30.7432H57.9729V33.5961V36.4527H60.608V33.5961Z" fill="#BA3131"/>
<path d="M8.34459 54.0203H5.27026V56.875V59.7297H8.34459V56.875V54.0203Z" fill="#BA3131"/>
<path d="M60.608 19.3205V4.83105H46.1147V19.3243L60.608 19.3205ZM48.2874 17.1441V7.00372H58.4316V17.1441H48.2874Z" fill="#BA3131"/>
<path d="M56.2163 9.22296H50.5068V14.9324H56.2163V9.22296Z" fill="#BA3131"/>
<path d="M60.608 45.2365H46.1147V59.7298H60.608V45.2365ZM48.2874 57.5565V47.4097H58.4316V57.5565H48.2874Z" fill="#BA3131"/>
<path d="M56.2163 49.6284H50.5068V55.3378H56.2163V49.6284Z" fill="#BA3131"/>
<path d="M5.27026 4.83105V19.3243H19.7635V4.83105H5.27026ZM17.5903 7.00749V17.1441H7.44349V7.00372L17.5903 7.00749Z" fill="#BA3131"/>
<path d="M15.3716 9.22296H9.66211V14.9324H15.3716V9.22296Z" fill="#BA3131"/>
<path d="M1.11595 14.6152V4.41652C1.04673 3.47507 1.34527 2.5428 1.95244 1.80433C2.31526 1.41666 2.76245 1.11179 3.26176 0.911741C3.76106 0.711689 4.30001 0.621439 4.83972 0.647506H15.9185C16.0064 0.647506 16.0907 0.613693 16.1529 0.553508C16.2151 0.493322 16.25 0.411695 16.25 0.32658C16.25 0.241465 16.2151 0.159838 16.1529 0.0996525C16.0907 0.0394673 16.0064 0.00565408 15.9185 0.00565408H4.95921C4.03217 -0.039386 3.11244 0.185474 2.31866 0.651236C1.74688 1.01988 1.2776 1.51908 0.952227 2.10479C0.62685 2.6905 0.45537 3.34473 0.452915 4.00976C0.422076 5.68529 0.452915 7.36829 0.452915 9.04755V14.6115C0.452915 14.6966 0.487844 14.7782 0.550015 14.8384C0.612186 14.8986 0.696507 14.9324 0.784431 14.9324C0.872354 14.9324 0.956681 14.8986 1.01885 14.8384C1.08102 14.7782 1.11595 14.6966 1.11595 14.6115V14.6152Z" fill="white"/>
<path d="M14.6152 64.7812H4.41651C3.47507 64.8485 2.54279 64.5583 1.80433 63.968C1.41645 63.6154 1.11144 63.1807 0.911371 62.6952C0.711302 62.2097 0.621175 61.6857 0.647506 61.1609V50.3899C0.647506 50.3044 0.613693 50.2224 0.553508 50.162C0.493322 50.1015 0.411695 50.0676 0.32658 50.0676C0.241465 50.0676 0.159832 50.1015 0.0996468 50.162C0.0394616 50.2224 0.00565408 50.3044 0.00565408 50.3899V61.0447C-0.039386 61.946 0.185474 62.8402 0.651236 63.6119C1.0194 64.1683 1.5185 64.6249 2.10432 64.9413C2.69014 65.2577 3.3446 65.4241 4.00976 65.4259C5.68529 65.4558 7.36829 65.4259 9.04755 65.4259H14.6115C14.6966 65.4259 14.7782 65.3919 14.8384 65.3315C14.8986 65.271 14.9324 65.189 14.9324 65.1035C14.9324 65.0181 14.8986 64.9361 14.8384 64.8757C14.7782 64.8152 14.6966 64.7812 14.6115 64.7812H14.6152Z" fill="white"/>
<path d="M64.3404 50.3884V60.5841C64.4093 61.5249 64.1197 62.4569 63.5289 63.1956C63.1753 63.5834 62.7395 63.8886 62.253 64.0892C61.7664 64.2898 61.2411 64.3808 60.7148 64.3558H49.9167C49.8375 64.3643 49.7643 64.4016 49.7111 64.4604C49.6578 64.5193 49.6284 64.5956 49.6284 64.6747C49.6284 64.7538 49.6578 64.8302 49.7111 64.889C49.7643 64.9479 49.8375 64.9852 49.9167 64.9937H60.5946C61.4984 65.0415 62.3956 64.8165 63.1682 64.3483C63.7264 63.9807 64.1845 63.4819 64.5018 62.8961C64.819 62.3104 64.9856 61.6559 64.9867 60.9908C65.0167 59.312 64.9867 57.6332 64.9867 55.9545V50.3884C64.9867 50.3033 64.9526 50.2217 64.8921 50.1615C64.8315 50.1014 64.7493 50.0676 64.6636 50.0676C64.5779 50.0676 64.4957 50.1014 64.4351 50.1615C64.3745 50.2217 64.3404 50.3033 64.3404 50.3884Z" fill="white"/>
<path d="M50.3883 0.65794H60.5829C61.5233 0.588476 62.4552 0.877496 63.1931 1.46746C63.5807 1.82017 63.8858 2.25484 64.0863 2.74021C64.2868 3.22558 64.3778 3.74958 64.3528 4.27453V15.0493C64.3528 15.1348 64.3866 15.2168 64.4467 15.2772C64.5068 15.3377 64.5884 15.3716 64.6735 15.3716C64.7585 15.3716 64.8401 15.3377 64.9002 15.2772C64.9604 15.2168 64.9941 15.1348 64.9941 15.0493V4.39445C65.0403 3.49304 64.8155 2.59852 64.3491 1.82724C63.9809 1.27111 63.4822 0.814695 62.8968 0.498327C62.3115 0.181959 61.6577 0.015384 60.9931 0.0133253C59.3151 -0.0166567 57.6372 0.0133253 55.9592 0.0133253H50.3883C50.3033 0.0133253 50.2217 0.047284 50.1616 0.107728C50.1014 0.168173 50.0676 0.250151 50.0676 0.335632C50.0676 0.421114 50.1014 0.503092 50.1616 0.563537C50.2217 0.623981 50.3033 0.65794 50.3883 0.65794Z" fill="white"/>
</svg>
