<svg width="27" height="27" viewBox="0 0 27 27" fill="none" xmlns="http://www.w3.org/2000/svg">
<path d="M0 17.3115C0.17549 16.9853 0.389811 16.6816 0.638286 16.407C1.3185 15.8195 2.03602 15.2786 2.75817 14.7424C2.8551 14.677 2.93122 14.5851 2.97747 14.4776C3.02372 14.3702 3.03813 14.2517 3.01905 14.1362C2.99109 13.7171 2.99109 13.2965 3.01905 12.8773C3.03625 12.755 3.01824 12.6304 2.96706 12.5181C2.91589 12.4057 2.83369 12.3104 2.73019 12.2432C2.03133 11.7163 1.33251 11.1754 0.670931 10.6392C0.524292 10.5524 0.39766 10.4354 0.299436 10.2961C0.201213 10.1567 0.133576 9.99815 0.101006 9.83077C0.0684364 9.66338 0.0717051 9.49099 0.110504 9.32494C0.149303 9.15889 0.222807 9.00295 0.326167 8.86738C1.13684 7.45302 1.95061 6.04334 2.7675 4.63831C2.83689 4.48361 2.93732 4.34485 3.06261 4.23069C3.1879 4.11653 3.33536 4.02941 3.49576 3.97473C3.65615 3.92006 3.82606 3.89902 3.99493 3.91291C4.1638 3.9268 4.328 3.97533 4.47733 4.05547C5.30198 4.3772 6.12198 4.70358 6.93265 5.04862C7.03095 5.09768 7.14137 5.11719 7.25051 5.10478C7.35965 5.09237 7.46288 5.04856 7.54767 4.97868C7.89319 4.73791 8.2578 4.52583 8.63787 4.34456C8.76564 4.29312 8.87537 4.20504 8.95329 4.09139C9.03121 3.97774 9.07381 3.84358 9.07579 3.70577C9.18295 2.85716 9.30409 2.00854 9.42988 1.16459C9.4352 0.998074 9.47502 0.834483 9.54682 0.684174C9.61861 0.533865 9.72079 0.400108 9.84693 0.291398C9.97308 0.182688 10.1204 0.101386 10.2796 0.0526424C10.4388 0.00389829 10.6064 -0.0112246 10.7717 0.00823227H15.659C15.8277 -0.0113257 15.9986 0.00470614 16.1607 0.0552748C16.3229 0.105844 16.4727 0.189832 16.6004 0.301843C16.7281 0.413853 16.8309 0.551389 16.9023 0.705603C16.9737 0.859818 17.012 1.0273 17.0148 1.19723C17.1359 2.03186 17.2571 2.86181 17.3642 3.69644C17.3623 3.84185 17.4063 3.98417 17.4899 4.10307C17.5736 4.22197 17.6927 4.31139 17.8301 4.35855C18.0591 4.42847 18.2715 4.54427 18.4544 4.69891C18.6609 4.90482 18.9331 5.03162 19.2235 5.05718C19.5138 5.08275 19.8039 5.00547 20.0432 4.8388C20.6442 4.53573 21.2825 4.32125 21.9068 4.06946C22.7408 3.73841 23.2486 3.91092 23.7005 4.69891C24.4894 6.05421 25.2753 7.41416 26.058 8.77878C26.5239 9.60408 26.426 10.117 25.6713 10.7092C25.0004 11.236 24.3155 11.7536 23.6586 12.3038C23.5218 12.444 23.442 12.6302 23.435 12.826C23.4024 13.269 23.435 13.7213 23.435 14.1689C23.4198 14.2776 23.4358 14.3883 23.4812 14.4882C23.5265 14.5881 23.5994 14.6731 23.6912 14.7331C24.3854 15.2553 25.0889 15.8008 25.7505 16.337C26.4121 16.8733 26.5379 17.4048 26.1232 18.1368C25.3126 19.5481 24.4987 20.9578 23.6819 22.3659C23.6141 22.522 23.5146 22.6623 23.3895 22.7776C23.2645 22.893 23.1167 22.9809 22.9558 23.0358C22.7948 23.0907 22.6241 23.1113 22.4547 23.0963C22.2853 23.0813 22.1209 23.031 21.972 22.9488C21.152 22.6224 20.332 22.3006 19.5214 21.9509C19.4231 21.9019 19.3127 21.8824 19.2035 21.8948C19.0944 21.9072 18.9911 21.951 18.9063 22.0209C18.5608 22.2617 18.1962 22.4737 17.8161 22.655C17.688 22.7059 17.5779 22.7939 17.4999 22.9076C17.4219 23.0214 17.3796 23.1558 17.3782 23.2938C17.2664 24.1424 17.1499 24.9864 17.0241 25.835C17.0181 26.0013 16.9779 26.1645 16.9058 26.3145C16.8338 26.4644 16.7316 26.5979 16.6056 26.7065C16.4796 26.815 16.3326 26.8964 16.1737 26.9454C16.0148 26.9944 15.8475 27.0101 15.6823 26.9913H10.781C10.6122 27.0116 10.441 26.9961 10.2785 26.9458C10.1161 26.8955 9.96606 26.8116 9.83818 26.6994C9.71029 26.5873 9.60738 26.4494 9.53624 26.2949C9.46509 26.1403 9.42728 25.9725 9.42522 25.8023C9.29943 24.9584 9.17829 24.1098 9.07113 23.2611C9.07116 23.1293 9.0298 23.0007 8.95289 22.8936C8.87598 22.7865 8.76745 22.7063 8.64253 22.6643C8.40128 22.5854 8.17688 22.4621 7.98093 22.3006C7.77445 22.0947 7.50226 21.9679 7.21189 21.9424C6.92153 21.9168 6.63142 21.9941 6.39218 22.1608C5.79583 22.4638 5.15288 22.6783 4.52857 22.9301C3.69926 23.2658 3.19144 23.0886 2.73485 22.3053C1.93816 20.9298 1.14147 19.559 0.358755 18.1835C0.22275 17.8999 0.102965 17.6088 0 17.3115ZM13.2223 17.983C14.1088 17.9839 14.9756 17.7217 15.7132 17.2296C16.4508 16.7375 17.026 16.0376 17.3661 15.2183C17.7061 14.399 17.7958 13.4972 17.6238 12.6269C17.4518 11.7567 17.0257 10.957 16.3996 10.329C15.7734 9.70105 14.9752 9.27301 14.106 9.09903C13.2367 8.92505 12.3355 9.01294 11.5162 9.35159C10.6968 9.69024 9.99622 10.2644 9.50297 11.0016C9.00971 11.7387 8.74594 12.6056 8.74502 13.4928C8.74317 14.0813 8.85775 14.6644 9.08222 15.2083C9.30668 15.7523 9.63656 16.2464 10.0528 16.6621C10.4691 17.0778 10.9635 17.4069 11.5075 17.6304C12.0515 17.8539 12.6343 17.9674 13.2223 17.9643V17.983Z" fill="#676767"/>
</svg>
