<svg width="10" height="10" viewBox="0 0 10 10" fill="none" xmlns="http://www.w3.org/2000/svg">
<path d="M2.25712 3.31076H0.198167V9.96612H2.25712V3.31076Z" fill="#1E1E1E"/>
<path d="M1.21799 0C1.05741 0.000633456 0.898539 0.0328923 0.750423 0.09493C0.602308 0.156968 0.467873 0.247573 0.354773 0.36157C0.241673 0.475568 0.152147 0.610721 0.0912817 0.759322C0.0304167 0.907924 -0.000626388 1.06706 9.57725e-06 1.22764C-0.000626388 1.38822 0.0304167 1.54736 0.0912817 1.69596C0.152147 1.84456 0.241673 1.97971 0.354773 2.09371C0.467873 2.20771 0.602308 2.29831 0.750423 2.36035C0.898539 2.42239 1.05741 2.45465 1.21799 2.45528C1.37858 2.45465 1.53745 2.42239 1.68556 2.36035C1.83368 2.29831 1.96817 2.20771 2.08127 2.09371C2.19437 1.97971 2.2839 1.84456 2.34476 1.69596C2.40563 1.54736 2.43661 1.38822 2.43598 1.22764C2.43661 1.06706 2.40563 0.907924 2.34476 0.759322C2.2839 0.610721 2.19437 0.475568 2.08127 0.36157C1.96817 0.247573 1.83368 0.156968 1.68556 0.09493C1.53745 0.0328923 1.37858 0.000633456 1.21799 0Z" fill="#1E1E1E"/>
<path d="M7.55435 3.10776C7.15374 3.10187 6.75843 3.19983 6.40693 3.3921C6.05542 3.58437 5.75974 3.86439 5.5486 4.2049V3.31076H3.59112V9.96611H5.5679V6.47169C5.5679 5.53404 6.00287 4.97822 6.82452 4.97822C7.64617 4.97822 7.94587 5.51471 7.94587 6.47169V9.96611H9.99999V5.75154C9.98066 3.96807 8.96565 3.10776 7.55435 3.10776Z" fill="#1E1E1E"/>
</svg>
