<svg width="22" height="15" viewBox="0 0 22 15" fill="none" xmlns="http://www.w3.org/2000/svg">
<g clip-path="url(#clip0_14_106)">
<path d="M1.09002 0.132042C1.40479 0.0704627 1.72333 0.0289415 2.04371 0.00775146H19.9563C20.2741 0.0280017 20.5901 0.069533 20.902 0.132042L20.6135 0.435005L11.6853 9.11962C11.6138 9.23377 11.5133 9.32814 11.3932 9.39364C11.2732 9.45914 11.1378 9.49356 11 9.49356C10.8623 9.49356 10.7269 9.45914 10.6068 9.39364C10.4868 9.32814 10.3862 9.23377 10.3148 9.11962L1.38655 0.435005L1.09002 0.132042Z" fill="white"/>
<path d="M1.12201 14.899L7.82218 8.45931C8.35916 8.98754 8.95227 9.57015 9.55336 10.145C9.8484 10.4372 10.2305 10.6325 10.6459 10.7036C11.0613 10.7746 11.4892 10.7178 11.8696 10.5411C12.1089 10.415 12.3277 10.2554 12.5188 10.0673C13.0959 9.5313 13.6569 8.97199 14.1938 8.45154L20.8299 14.8291C20.6885 14.8907 20.5407 14.9376 20.3891 14.9689C20.1847 14.9975 19.9784 15.0105 19.7719 15.0077H2.2521C1.8674 14.9689 1.52274 14.9689 1.12201 14.899Z" fill="white"/>
<path d="M0.144229 1.10303L6.79636 7.4961L0.152251 13.8736C0.0780824 13.6464 0.0296659 13.4119 0.00794601 13.1745C0.00794601 9.39925 0.00794601 5.62399 0.00794601 1.84875C0.0306632 1.59677 0.0762908 1.34724 0.144229 1.10303Z" fill="white"/>
<path d="M15.2117 7.48055L21.8477 1.09528C21.918 1.34986 21.9663 1.6097 21.992 1.87208C21.992 5.64214 21.992 9.40701 21.992 13.1667C21.9707 13.4112 21.925 13.6531 21.8557 13.8891L15.2117 7.48055Z" fill="white"/>
</g>
<defs>
<clipPath id="clip0_14_106">
<rect width="22" height="15" fill="white"/>
</clipPath>
</defs>
</svg>
