<svg width="10" height="10" viewBox="0 0 10 10" fill="none" xmlns="http://www.w3.org/2000/svg">
<path d="M5.76531 4.45273L7.20824 5.51832L6.51291 6.45987L6.04197 6.11208L6.38093 5.65309L5.89752 5.2961L5.20144 6.23867L4.2419 5.53005L3.88856 6.00851L4.84188 6.71254L3.6139 8.37536L3.13361 8.02066L4.01128 6.8322L3.05174 6.12359L4.10495 4.69744L5.06241 5.40452L5.76531 4.45273Z" fill="#F4F4F4"/>
<path d="M5.68011 2.547L6.16144 2.90246L4.93043 4.56937L2.76862 2.97289L2.06648 3.92365L1.58412 3.56743L2.63656 2.1423L4.79838 3.73879L5.68011 2.547Z" fill="#F4F4F4"/>
<path d="M5.89816 1.24026L4.67698 2.89386L2.99753 1.6536L4.21871 0L5.89816 1.24026ZM4.54116 2.06841L5.06019 1.36558L4.35064 0.841582L3.83161 1.54441L4.54116 2.06841Z" fill="#F4F4F4"/>
<path d="M8.32585 3.03002L10.0001 4.26646L8.77517 5.92518L7.1009 4.68874L8.32585 3.03002ZM8.45101 3.86342L7.93046 4.5683L8.63586 5.08924L9.15641 4.38436L8.45101 3.86342Z" fill="#F4F4F4"/>
<path d="M1.67732 6.95153L-6.27929e-05 5.71279L1.22565 4.05304L2.902 5.29102L1.67732 6.95153ZM1.55113 6.11736L2.07319 5.41043L1.36364 4.88643L0.841577 5.59336L1.55113 6.11736Z" fill="#F4F4F4"/>
<path d="M7.93465 6.05637L8.41805 6.41337L7.01529 8.31285L5.33895 7.07488L5.68623 6.60462L6.87918 7.4856L7.93465 6.05637Z" fill="#F4F4F4"/>
<path d="M4.58236 9.09544L4.10517 8.74304L4.97982 7.55868L6.6572 8.79742L5.78331 9.98076L5.30718 9.62913L5.82622 8.9263L5.10008 8.39005L4.58236 9.09544Z" fill="#F4F4F4"/>
<path d="M6.12681 3.96766L6.99918 2.78638L6.04067 2.07852L6.39174 1.60314L7.82743 2.66338L6.60398 4.32006L6.12681 3.96766Z" fill="#F4F4F4"/>
<path d="M2.54702 4.27841L2.89127 3.81225L3.606 4.34007L3.26174 4.80624L2.54702 4.27841Z" fill="#F4F4F4"/>
<path d="M3.17238 6.95684L2.65335 7.65967L2.18447 7.31341L2.7035 6.61058L3.17238 6.95684Z" fill="#F4F4F4"/>
</svg>
