<svg width="49" height="49" viewBox="0 0 49 49" fill="none" xmlns="http://www.w3.org/2000/svg">
<g filter="url(#filter0_d_165_1682)">
<path d="M33.1057 37H11.8874C10.3254 36.9982 8.82787 36.377 7.72397 35.2729C6.62007 34.1689 6 32.6723 6 31.1119V9.88814C6 8.32771 6.62007 6.8311 7.72397 5.72706C8.82787 4.62302 10.3254 4.00184 11.8874 4H33.1057C33.8797 4 34.6462 4.1523 35.3613 4.44821C36.0765 4.74412 36.7262 5.17783 37.2736 5.7246C37.8209 6.27136 38.2551 6.92046 38.5513 7.63484C38.8475 8.34923 39 9.1149 39 9.88814V31.084C39 31.8573 38.8475 32.623 38.5513 33.3373C38.2551 34.0517 37.8209 34.7008 37.2736 35.2476C36.7262 35.7944 36.0765 36.2281 35.3613 36.524C34.6462 36.8199 33.8797 36.9722 33.1057 36.9722V37Z" fill="#5F259F"/>
</g>
<defs>
<filter id="filter0_d_165_1682" x="0" y="0" width="49" height="49" filterUnits="userSpaceOnUse" color-interpolation-filters="sRGB">
<feFlood flood-opacity="0" result="BackgroundImageFix"/>
<feColorMatrix in="SourceAlpha" type="matrix" values="0 0 0 0 0 0 0 0 0 0 0 0 0 0 0 0 0 0 127 0" result="hardAlpha"/>
<feOffset dx="2" dy="4"/>
<feGaussianBlur stdDeviation="4"/>
<feComposite in2="hardAlpha" operator="out"/>
<feColorMatrix type="matrix" values="0 0 0 0 0 0 0 0 0 0 0 0 0 0 0 0 0 0 0.1 0"/>
<feBlend mode="normal" in2="BackgroundImageFix" result="effect1_dropShadow_165_1682"/>
<feBlend mode="normal" in="SourceGraphic" in2="effect1_dropShadow_165_1682" result="shape"/>
</filter>
</defs>
</svg>
